<?xml version="1.0" encoding="utf-8"?>
<!-- Generator: Adobe Illustrator 16.0.0, SVG Export Plug-In . SVG Version: 6.00 Build 0)  -->
<!DOCTYPE svg PUBLIC "-//W3C//DTD SVG 1.1//EN" "http://www.w3.org/Graphics/SVG/1.1/DTD/svg11.dtd">
<svg version="1.1" id="Layer_1" xmlns="http://www.w3.org/2000/svg" xmlns:xlink="http://www.w3.org/1999/xlink" x="0px" y="0px"
	 width="578.667px" height="376px" viewBox="0 0 578.667 376" enable-background="new 0 0 578.667 376" xml:space="preserve">
<polygon fill="#FFFFFF" stroke="#000000" stroke-width="2" stroke-miterlimit="10" points="404.313,3 213,135.5 213,157 
	404.375,306 "/>
<path fill-rule="evenodd" clip-rule="evenodd" d="M167.607,276.863c7.488,7.791,8.07,14.369,2.47,23.232
	c-1.244,1.971-2.241,4.139-3.721,5.908c-7.813,9.338-10.423,20.191-9.44,32.051c0.416,5.035-1.254,8.326-6.313,9.684
	c-4.37,1.174-6.726,3.832-5.844,8.627c0.029,0.16,0.027,0.344-0.021,0.496c-0.89,2.818-1.02,7.238-2.847,8.115
	c-3.735,1.793-7.546-0.121-10.408-3.635c-3.121-3.83-7.925-2.744-9.747,1.934c-0.481,1.234-0.896,2.494-1.348,3.738
	c-1.852,5.113-3.316,5.43-7.096,1.518c-1.619-1.678-3.091-3.523-4.857-5.025c-3.466-2.947-3.86-6.469-4.186-10.926
	c-0.355-4.871-2.451-10.545-5.723-14.076c-6.638-7.166-14.471-13.252-22.038-19.51c-2.997-2.479-3.12-4.537-1.015-7.57
	c3.106-4.473,6.297-8.896,5.899-14.932c-0.352-5.344-4.163-8.314-9.083-6.469c-6.741,2.525-7.076,2.588-8.383-4.523
	c-1.72-9.352-6.087-16.596-13.295-23.005c-8.092-7.195-13.449-16.35-11.847-28.088c0.38-2.788,0.41-5.668,0.219-8.48
	c-0.394-5.812,1.746-9.987,6.485-13.56c6.479-4.886,7.887-11.956,4.723-19.054c-2.686-6.023,1.226-14.51,7.721-15.669
	c11.81-2.107,18.548-9.372,21.566-20.427c0.484-1.775-0.54-4.389-1.661-6.093c-2.82-4.287-6.208-8.195-9.119-12.427
	c-0.952-1.383-1.134-3.294-1.667-4.964c1.796-0.551,3.594-1.583,5.389-1.58c21.484,0.043,42.967,0.244,64.452,0.393
	c4.83,0.034,9.668,0.202,14.488-0.017c3.724-0.169,5.348,1.19,4.707,4.92c-0.701,4.091,1.583,6.621,3.631,9.969
	c3.607,5.896,6.762,12.99,7.172,19.76c1.686,27.914,2.268,55.894,3.263,83.85c0.071,1.996,0.25,3.989,0.3,5.986
	C170.603,263.896,172.625,271,167.607,276.863z"/>
<g>
	<path fill-rule="evenodd" clip-rule="evenodd" d="M158.706,118.08c13.325,0,26.652,0.104,39.977-0.058
		c4.615-0.056,6.584,1.828,5.848,6.296c-0.623,3.79,1.659,6.03,3.308,9.071c3.546,6.543,7.091,13.949,7.503,21.181
		c1.896,33.244,2.717,66.55,3.918,99.834c0.029,0.83,0.322,1.838-0.034,2.467c-2.524,4.451-1.628,7.344,1.572,11.824
		c2.367,3.313,0.036,10.057-0.421,15.252c-0.091,1.029-1.113,2.02-1.816,2.943c-9.08,11.928-15.252,24.824-13.604,40.369
		c0.438,4.125-1.573,6.73-5.434,7.717c-5.456,1.395-7.158,4.795-6.963,10.234c0.092,2.576-1.045,6.883-2.693,7.484
		c-3.512,1.285-7.658,1.318-10.878-2.395c-4.569-5.27-7.469-4.441-9.784,2.295c-0.433,1.256-0.796,2.549-1.363,3.744
		c-1.617,3.41-4.049,3.869-6.714,1.32c-3.243-3.102-6.497-6.254-9.249-9.773c-1.161-1.484-1.587-4.006-1.426-5.98
		c0.602-7.402-2.004-13.205-7.627-17.936c-6.113-5.145-12.045-10.502-18.099-15.717c-6.466-5.568-6.323-5.445-1.91-12.982
		c1.87-3.193,3.493-6.775,4.153-10.379c1.104-6.025-2.508-8.713-8.109-6.627c-6.397,2.381-7.15,1.998-8.965-4.596
		c-0.177-0.641-0.352-1.293-0.428-1.951c-1.026-8.893-5.756-15.342-12.344-21.269c-8.676-7.807-14.079-17.541-12.548-29.939
		c0.366-2.967,0.605-6.004,0.401-8.975c-0.406-5.923,2.273-9.863,6.794-13.411c6.233-4.892,7.331-10.979,4.118-18.213
		c-2.626-5.911,1.971-15.679,8.293-16.658c11.303-1.752,17.891-8.529,21.016-18.98c0.523-1.749-0.519-4.399-1.633-6.118
		c-2.79-4.304-6.223-8.19-9.053-12.471c-3.613-5.463-2.26-8,4.219-8.047c13.324-0.098,26.649-0.029,39.975-0.029
		C158.706,117.765,158.706,117.922,158.706,118.08z M164.585,357.721c1.332-3.627,2.162-5.934,3.025-8.229
		c2.131-5.67,8.187-6.955,11.971-2.295c2.364,2.914,5.467,4.752,8.52,3.375c1.573-0.711,2.494-4.775,2.264-7.186
		c-0.531-5.572,1.43-8.838,6.822-10.09c4.583-1.064,5.763-4.023,5.484-8.486c-0.757-12.115,1.762-23.332,9.748-32.969
		c2.104-2.539,4.354-5.377,5.192-8.445c1.188-4.346,1.132-9.033,1.606-13.574c-6.42-3.359-5.487-8.049-2.746-13.416
		c0.742-1.451,0.156-3.608,0.095-5.438c-1.085-31.793-1.713-63.614-3.628-95.357c-0.45-7.453-4.723-14.926-8.342-21.809
		c-1.372-2.608-3.633-4.63-2.8-7.768c1.347-5.068-1.098-5.735-5.4-5.723c-25.321,0.071-50.643-0.078-75.964-0.132
		c-1.714-0.004-3.429,0.158-5.143,0.242c-0.307,0.466-0.613,0.931-0.92,1.397c4.014,5.177,8.182,10.246,11.951,15.594
		c1.158,1.642,2.098,4.257,1.658,6.07c-2.82,11.659-9.411,19.635-21.961,21.819c-6.682,1.163-10.086,8.609-7.273,14.742
		c2.872,6.263,1.963,14.291-3.745,18.457c-6.358,4.642-8.162,10.27-7.624,17.521c0.195,2.627-0.717,5.346-0.459,7.958
		c0.348,3.521,1,7.091,2.117,10.44c2.969,8.898,10.043,14.65,16.437,20.958c1.881,1.857,3.223,4.545,4.075,7.096
		c1.605,4.809,2.675,9.795,4.1,15.213c2.301-0.918,4.055-1.416,5.604-2.279c3.317-1.844,5.708-1.229,8.044,1.846
		c2.689,3.539,3.41,10.166,0.914,14.381c-2.086,3.523-4.277,6.982-6.5,10.596c7.663,6.678,14.805,13.168,22.24,19.303
		c6.377,5.262,9.623,11.619,8.797,19.967c-0.141,1.42-0.197,3.344,0.598,4.273C156.646,349.643,160.289,353.221,164.585,357.721z"/>
	<path fill-rule="evenodd" clip-rule="evenodd" fill="#FFFFFF" d="M164.585,357.721c-4.296-4.5-7.939-8.078-11.242-11.949
		c-0.795-0.93-0.738-2.854-0.598-4.273c0.826-8.348-2.42-14.705-8.797-19.967c-7.436-6.135-14.577-12.625-22.24-19.303
		c2.223-3.613,4.414-7.072,6.5-10.596c2.496-4.215,1.775-10.842-0.914-14.381c-2.336-3.074-4.727-3.689-8.044-1.846
		c-1.55,0.863-3.304,1.361-5.604,2.279c-1.425-5.418-2.494-10.404-4.1-15.213c-0.853-2.551-2.194-5.238-4.075-7.096
		c-6.394-6.308-13.468-12.06-16.437-20.958c-1.117-3.35-1.77-6.92-2.117-10.44c-0.258-2.612,0.654-5.331,0.459-7.958
		C86.838,208.77,88.642,203.142,95,198.5c5.708-4.166,6.617-12.194,3.745-18.457c-2.813-6.133,0.592-13.579,7.273-14.742
		c12.55-2.184,19.141-10.161,21.961-21.819c0.439-1.813-0.5-4.428-1.658-6.07c-3.77-5.348-7.938-10.417-11.951-15.594
		c0.307-0.466,0.613-0.931,0.92-1.397c1.714-0.084,3.429-0.246,5.143-0.242c25.321,0.055,50.643,0.204,75.964,0.132
		c4.303-0.012,6.747,0.655,5.4,5.723c-0.833,3.137,1.428,5.159,2.8,7.768c3.619,6.882,7.892,14.356,8.342,21.809
		c1.915,31.744,2.543,63.564,3.628,95.357c0.062,1.83,0.647,3.987-0.095,5.438c-2.741,5.367-3.674,10.057,2.746,13.416
		c-0.475,4.541-0.418,9.229-1.606,13.574c-0.839,3.068-3.088,5.906-5.192,8.445c-7.986,9.637-10.505,20.854-9.748,32.969
		c0.278,4.463-0.901,7.422-5.484,8.486c-5.393,1.252-7.354,4.518-6.822,10.09c0.23,2.41-0.69,6.475-2.264,7.186
		c-3.053,1.377-6.155-0.461-8.52-3.375c-3.784-4.66-9.84-3.375-11.971,2.295C166.747,351.787,165.917,354.094,164.585,357.721z"/>
</g>
<circle fill-rule="evenodd" clip-rule="evenodd" fill="#FF0000" cx="213.25" cy="146.25" r="11.75"/>
<circle fill-rule="evenodd" clip-rule="evenodd" fill="#FFFFFF" stroke="#000000" stroke-width="2" stroke-miterlimit="10" cx="404.5" cy="154.5" r="151.5"/>
<g>
	<path fill="#333333" stroke="#000000" stroke-width="4" stroke-miterlimit="10" d="M252.254,134.685
		c0,0,15.584-48.354,21.12-52.713s13.038-10.228,13.038-10.228s-5.576-4.937-1.769-5.861c3.807-0.924,11.373-3.477,11.373-3.477
		l1.583,4.702l196.479-51.402l1.914-5.136l14.133-1.35l2.406,2.14l-11.707,3.098l11.088-0.911l3.929,5.275l3.815,2.794l2.71,19.687
		l-3.258,1.427l1.93,0.066l2.383,4.777c0,0,3.084,1.751,3.638,5.228c0.555,3.478-0.578,5.124-0.578,5.124l-2.72,7.529
		c0,0-9.94,4.09-10.433,4.646c-0.496,0.555-0.704,6.007-0.704,6.007l-70.538,24.12c0,0-0.544,20.739-10.508,33.43
		c-9.964,12.689-55.807,20.979-67.431,20.254s-8.131,8.021-8.234,9.254c-0.103,1.234-8.183,76.284-8.183,76.284
		s3.804,8.026,3.967,10.824c0.162,2.798,4.295,7.47,3.349,9.279c-0.947,1.812-37.161,9.715-45.515,10.904
		s-36.067,4.386-40.675,0.619s9.779-103.05,17.745-113.868c7.968-10.819-3.077-16.667-11.45-18.81
		C266.779,136.253,258.114,139.649,252.254,134.685z M387.775,108.527c0,0-4.14,12.481,4.776,16.436
		c8.917,3.955,15.058,5.439,15.058,5.439l0.306,2.451c0,0-16.802-0.964-20.966-4.669c-4.165-3.704-12.015-11.933-10.084-17.179
		c1.932-5.244-9.29,3.176-9.29,3.176l-9.268,14.05c0,0,0.301,21.744,23.557,18.809c23.255-2.938,45.433-13.048,46.117-23.881
		c0.684-10.833-8.767-22.722-13.721-21.41C409.305,103.061,387.775,108.527,387.775,108.527z"/>
	<g>
		<line fill="#333333" x1="444.388" y1="84.034" x2="509.758" y2="67.585"/>
		<path d="M444.388,84.034c0,0,0.962-0.492,2.667-1.272c0.852-0.391,1.886-0.866,3.082-1.372c0.598-0.258,1.232-0.532,1.902-0.821
			c0.671-0.283,1.441-0.325,2.196-0.56c6.129-1.542,14.3-3.598,22.472-5.654c8.171-2.056,16.342-4.112,22.471-5.654
			c0.383-0.098,0.76-0.185,1.121-0.296c0.358-0.125,0.717-0.212,1.084-0.232c0.727-0.062,1.416-0.121,2.063-0.177
			c1.294-0.119,2.43-0.191,3.364-0.254c1.87-0.12,2.947-0.157,2.947-0.157s-0.966,0.478-2.67,1.257
			c-0.854,0.387-1.889,0.861-3.084,1.368c-0.598,0.258-1.232,0.532-1.902,0.821c-0.332,0.156-0.688,0.25-1.063,0.309
			c-0.372,0.073-0.745,0.175-1.128,0.27c-6.129,1.542-14.3,3.598-22.472,5.654c-8.171,2.056-16.342,4.112-22.471,5.654
			c-0.776,0.151-1.475,0.478-2.2,0.547c-0.727,0.062-1.416,0.121-2.063,0.177c-1.294,0.12-2.43,0.191-3.365,0.25
			C445.469,84.012,444.388,84.034,444.388,84.034z"/>
	</g>
	<polygon fill="#333333" stroke="#000000" stroke-miterlimit="10" points="400.559,95.279 365.8,103.889 369.242,50.05 
		414.959,38.497 	"/>
	<g>
		<line fill="#333333" x1="510.711" y1="43.314" x2="266.664" y2="105.726"/>
		<path d="M510.711,43.314c0,0-0.939,0.297-2.702,0.853c-1.764,0.55-4.342,1.391-7.643,2.384c-3.297,1.006-7.301,2.228-11.894,3.63
			c-2.297,0.701-4.74,1.446-7.316,2.232c-2.579,0.777-5.355,1.335-8.206,2.105c-22.879,5.851-53.385,13.652-83.891,21.454
			s-61.012,15.603-83.892,21.454c-2.871,0.687-5.572,1.544-8.214,2.072c-2.638,0.548-5.139,1.068-7.489,1.556
			c-4.701,0.977-8.801,1.829-12.176,2.53c-3.372,0.713-6.036,1.219-7.847,1.586c-1.812,0.361-2.778,0.553-2.778,0.553
			s0.94-0.295,2.703-0.849c1.765-0.546,4.344-1.381,7.645-2.375c3.298-1.005,7.302-2.226,11.896-3.625
			c2.297-0.7,4.74-1.445,7.317-2.23c2.571-0.805,5.352-1.35,8.2-2.125c22.879-5.851,53.385-13.652,83.891-21.454
			s61.012-15.603,83.892-21.454c2.87-0.692,5.574-1.536,8.209-2.092c2.638-0.547,5.139-1.066,7.49-1.554
			c4.701-0.976,8.801-1.826,12.176-2.526c3.373-0.713,6.038-1.213,7.85-1.577C509.744,43.505,510.711,43.314,510.711,43.314z"/>
	</g>
	<g>
		<line fill="#333333" x1="363.559" y1="58.876" x2="361.127" y2="78.102"/>
		<path d="M363.559,58.876c0,0,0.197,0.33,0.474,0.899c0.136,0.284,0.303,0.629,0.454,1.021c0.08,0.196,0.166,0.405,0.256,0.625
			c0.05,0.11,0.026,0.214-0.017,0.319c-0.04,0.104-0.042,0.216-0.059,0.328c-0.229,1.803-0.532,4.206-0.836,6.609
			s-0.608,4.806-0.836,6.608c-0.011,0.113-0.037,0.222-0.028,0.333c0.021,0.112,0.004,0.217-0.079,0.311
			c-0.143,0.19-0.277,0.372-0.403,0.542c-0.245,0.341-0.491,0.634-0.69,0.876c-0.403,0.483-0.667,0.755-0.667,0.755
			s-0.188-0.329-0.458-0.897c-0.133-0.284-0.298-0.629-0.45-1.02c-0.08-0.196-0.166-0.405-0.256-0.625
			c-0.058-0.111-0.048-0.217,0.001-0.321c0.036-0.105,0.037-0.217,0.055-0.329c0.229-1.802,0.532-4.205,0.836-6.608
			s0.608-4.806,0.836-6.608c0.012-0.113,0.038-0.222,0.024-0.333c-0.016-0.112-0.012-0.218,0.063-0.313
			c0.143-0.19,0.277-0.372,0.403-0.542c0.244-0.341,0.491-0.634,0.694-0.875C363.285,59.147,363.559,58.876,363.559,58.876z"/>
	</g>
	<g>
		<line fill="#333333" x1="330.287" y1="66.083" x2="327.854" y2="85.308"/>
		<path d="M330.287,66.083c0,0,0.197,0.33,0.474,0.899c0.136,0.284,0.303,0.629,0.454,1.021c0.08,0.196,0.166,0.405,0.256,0.625
			c0.05,0.111,0.026,0.215-0.017,0.319c-0.04,0.104-0.042,0.216-0.059,0.329c-0.229,1.802-0.532,4.206-0.837,6.609
			c-0.304,2.403-0.607,4.806-0.836,6.608c-0.011,0.113-0.037,0.222-0.028,0.333c0.021,0.112,0.004,0.217-0.079,0.311
			c-0.143,0.19-0.277,0.372-0.403,0.542c-0.245,0.341-0.491,0.634-0.69,0.876c-0.403,0.483-0.667,0.755-0.667,0.755
			s-0.188-0.329-0.458-0.897c-0.133-0.284-0.298-0.629-0.45-1.02c-0.08-0.196-0.166-0.405-0.256-0.625
			c-0.058-0.111-0.048-0.217,0.001-0.321c0.036-0.105,0.037-0.217,0.055-0.329c0.229-1.802,0.532-4.206,0.837-6.609
			c0.304-2.403,0.607-4.806,0.836-6.608c0.011-0.113,0.038-0.222,0.024-0.333c-0.016-0.112-0.012-0.218,0.063-0.313
			c0.143-0.19,0.277-0.372,0.403-0.542c0.244-0.341,0.491-0.634,0.694-0.875C330.014,66.353,330.287,66.083,330.287,66.083z"/>
	</g>
	<g>
		<line fill="#333333" x1="325.102" y1="67.438" x2="322.67" y2="86.663"/>
		<path d="M325.102,67.438c0,0,0.197,0.33,0.474,0.899c0.136,0.284,0.303,0.629,0.454,1.021c0.08,0.196,0.166,0.405,0.256,0.625
			c0.05,0.11,0.026,0.214-0.017,0.319c-0.04,0.104-0.042,0.216-0.059,0.328c-0.229,1.803-0.532,4.206-0.836,6.609
			s-0.608,4.806-0.836,6.608c-0.011,0.113-0.037,0.222-0.028,0.333c0.021,0.112,0.004,0.217-0.079,0.311
			c-0.143,0.19-0.277,0.372-0.403,0.542c-0.245,0.341-0.491,0.634-0.69,0.876c-0.403,0.483-0.667,0.755-0.667,0.755
			s-0.188-0.329-0.458-0.897c-0.133-0.284-0.298-0.629-0.45-1.02c-0.08-0.196-0.166-0.405-0.256-0.625
			c-0.058-0.111-0.048-0.217,0.001-0.321c0.036-0.105,0.037-0.217,0.055-0.329c0.229-1.802,0.532-4.205,0.836-6.608
			s0.608-4.806,0.836-6.608c0.012-0.113,0.038-0.222,0.024-0.333c-0.016-0.112-0.012-0.218,0.063-0.313
			c0.143-0.19,0.277-0.372,0.403-0.542c0.244-0.341,0.491-0.634,0.694-0.875C324.828,67.708,325.102,67.438,325.102,67.438z"/>
	</g>
	<g>
		<line fill="#333333" x1="320.41" y1="68.238" x2="317.979" y2="87.464"/>
		<path d="M320.41,68.238c0,0,0.197,0.33,0.474,0.899c0.136,0.284,0.303,0.629,0.454,1.021c0.08,0.196,0.166,0.405,0.256,0.625
			c0.05,0.11,0.026,0.215-0.017,0.319c-0.04,0.104-0.042,0.216-0.059,0.329c-0.229,1.802-0.532,4.206-0.836,6.608
			c-0.304,2.403-0.608,4.807-0.836,6.609c-0.011,0.113-0.037,0.222-0.028,0.333c0.021,0.112,0.004,0.217-0.079,0.311
			c-0.143,0.19-0.277,0.372-0.403,0.542c-0.245,0.341-0.491,0.634-0.69,0.876c-0.403,0.483-0.667,0.755-0.667,0.755
			s-0.188-0.329-0.458-0.897c-0.133-0.284-0.298-0.629-0.45-1.02c-0.08-0.196-0.166-0.405-0.256-0.625
			c-0.058-0.111-0.048-0.217,0.001-0.321c0.036-0.105,0.037-0.217,0.055-0.329c0.229-1.802,0.532-4.206,0.836-6.608
			c0.304-2.403,0.608-4.807,0.836-6.609c0.012-0.113,0.038-0.222,0.024-0.333c-0.016-0.112-0.012-0.218,0.063-0.313
			c0.143-0.19,0.277-0.372,0.403-0.542c0.244-0.341,0.491-0.634,0.694-0.875C320.137,68.509,320.41,68.238,320.41,68.238z"/>
	</g>
	<g>
		<line fill="#333333" x1="315.719" y1="69.039" x2="313.287" y2="88.264"/>
		<path d="M315.719,69.039c0,0,0.197,0.33,0.474,0.899c0.136,0.284,0.303,0.629,0.454,1.021c0.08,0.196,0.166,0.405,0.256,0.625
			c0.05,0.11,0.026,0.214-0.017,0.319c-0.04,0.104-0.042,0.216-0.059,0.328c-0.229,1.803-0.532,4.206-0.836,6.609
			s-0.608,4.806-0.836,6.608c-0.011,0.113-0.037,0.222-0.028,0.333c0.021,0.112,0.004,0.217-0.079,0.311
			c-0.143,0.19-0.277,0.372-0.403,0.542c-0.245,0.341-0.491,0.634-0.69,0.876c-0.403,0.483-0.667,0.755-0.667,0.755
			s-0.188-0.329-0.458-0.897c-0.133-0.284-0.298-0.629-0.45-1.02c-0.08-0.196-0.166-0.405-0.256-0.625
			c-0.058-0.111-0.048-0.217,0.001-0.321c0.036-0.105,0.037-0.217,0.055-0.329c0.229-1.802,0.532-4.205,0.836-6.608
			s0.608-4.806,0.836-6.608c0.012-0.113,0.038-0.222,0.024-0.333c-0.016-0.112-0.012-0.218,0.063-0.313
			c0.143-0.19,0.277-0.372,0.403-0.542c0.244-0.341,0.491-0.634,0.694-0.875C315.445,69.309,315.719,69.039,315.719,69.039z"/>
	</g>
	<g>
		<line fill="#333333" x1="356.273" y1="60.354" x2="353.843" y2="79.579"/>
		<path d="M356.273,60.354c0,0,0.197,0.33,0.474,0.899c0.137,0.285,0.303,0.63,0.454,1.021c0.08,0.196,0.166,0.405,0.256,0.625
			c0.05,0.11,0.026,0.214-0.017,0.318c-0.04,0.104-0.041,0.216-0.059,0.329c-0.228,1.802-0.532,4.206-0.836,6.608
			c-0.304,2.403-0.607,4.806-0.835,6.608c-0.011,0.113-0.037,0.222-0.029,0.333c0.021,0.112,0.005,0.217-0.078,0.311
			c-0.143,0.19-0.277,0.372-0.404,0.542c-0.244,0.341-0.49,0.634-0.689,0.876c-0.403,0.483-0.667,0.755-0.667,0.755
			s-0.188-0.329-0.458-0.897c-0.133-0.284-0.298-0.629-0.45-1.02c-0.08-0.196-0.166-0.405-0.256-0.625
			c-0.058-0.112-0.048-0.218,0.001-0.321c0.036-0.105,0.037-0.217,0.055-0.329c0.228-1.802,0.531-4.206,0.836-6.608
			c0.304-2.403,0.607-4.806,0.835-6.608c0.012-0.113,0.038-0.222,0.024-0.333c-0.016-0.112-0.012-0.218,0.063-0.313
			c0.143-0.19,0.277-0.372,0.403-0.542c0.244-0.341,0.491-0.634,0.694-0.875C356,60.625,356.273,60.354,356.273,60.354z"/>
	</g>
	<g>
		<line fill="#333333" x1="350.04" y1="61.771" x2="347.608" y2="80.996"/>
		<path d="M350.04,61.771c0,0,0.197,0.33,0.474,0.899c0.137,0.284,0.303,0.629,0.454,1.021c0.08,0.196,0.166,0.405,0.256,0.625
			c0.05,0.11,0.026,0.214-0.017,0.318c-0.04,0.104-0.041,0.216-0.059,0.329c-0.229,1.802-0.532,4.206-0.836,6.609
			c-0.304,2.403-0.608,4.806-0.836,6.608c-0.011,0.113-0.037,0.222-0.028,0.332c0.021,0.112,0.004,0.217-0.079,0.311
			c-0.143,0.19-0.277,0.372-0.403,0.542c-0.245,0.341-0.491,0.634-0.69,0.876c-0.403,0.483-0.667,0.755-0.667,0.755
			s-0.188-0.329-0.458-0.897c-0.133-0.284-0.298-0.629-0.45-1.02c-0.08-0.196-0.166-0.405-0.256-0.625
			c-0.058-0.111-0.048-0.217,0.001-0.32c0.036-0.105,0.037-0.217,0.055-0.329c0.229-1.802,0.532-4.206,0.836-6.609
			c0.304-2.403,0.608-4.806,0.836-6.608c0.012-0.113,0.038-0.222,0.024-0.333c-0.016-0.112-0.012-0.218,0.063-0.313
			c0.143-0.191,0.277-0.372,0.403-0.542c0.244-0.341,0.491-0.634,0.694-0.875C349.767,62.042,350.04,61.771,350.04,61.771z"/>
	</g>
	<g>
		<line fill="#333333" x1="344.3" y1="62.633" x2="341.868" y2="81.858"/>
		<path d="M344.3,62.633c0,0,0.197,0.33,0.474,0.899c0.137,0.284,0.303,0.629,0.454,1.021c0.08,0.196,0.166,0.405,0.256,0.625
			c0.05,0.11,0.026,0.214-0.017,0.319c-0.04,0.104-0.041,0.216-0.059,0.329c-0.229,1.802-0.532,4.205-0.836,6.608
			s-0.608,4.806-0.836,6.608c-0.011,0.113-0.037,0.222-0.028,0.333c0.021,0.112,0.004,0.217-0.079,0.311
			c-0.143,0.19-0.277,0.372-0.403,0.542c-0.245,0.341-0.491,0.634-0.69,0.876c-0.403,0.483-0.667,0.755-0.667,0.755
			s-0.188-0.329-0.458-0.897c-0.133-0.284-0.298-0.629-0.45-1.02c-0.08-0.196-0.166-0.405-0.256-0.625
			c-0.058-0.111-0.048-0.217,0.001-0.321c0.036-0.105,0.037-0.217,0.055-0.329c0.229-1.803,0.532-4.206,0.836-6.609
			s0.608-4.806,0.836-6.608c0.012-0.113,0.038-0.222,0.024-0.333c-0.016-0.112-0.012-0.218,0.063-0.313
			c0.143-0.19,0.277-0.372,0.403-0.542c0.244-0.341,0.491-0.634,0.694-0.875C344.026,62.903,344.3,62.633,344.3,62.633z"/>
	</g>
	<g>
		<line fill="#333333" x1="337.016" y1="64.111" x2="334.584" y2="83.336"/>
		<path d="M337.016,64.111c0,0,0.197,0.33,0.474,0.899c0.136,0.284,0.303,0.629,0.454,1.021c0.08,0.196,0.166,0.405,0.256,0.625
			c0.05,0.11,0.026,0.214-0.017,0.318c-0.04,0.104-0.042,0.216-0.059,0.329c-0.229,1.802-0.532,4.206-0.836,6.609
			c-0.304,2.403-0.608,4.806-0.836,6.608c-0.011,0.113-0.037,0.222-0.028,0.332c0.021,0.112,0.004,0.217-0.079,0.311
			c-0.143,0.19-0.277,0.372-0.403,0.542c-0.245,0.341-0.491,0.634-0.69,0.876c-0.403,0.483-0.667,0.755-0.667,0.755
			s-0.188-0.329-0.458-0.897c-0.133-0.284-0.298-0.629-0.45-1.02c-0.08-0.196-0.166-0.405-0.256-0.625
			c-0.058-0.111-0.048-0.217,0.001-0.32c0.036-0.105,0.037-0.217,0.055-0.329c0.229-1.802,0.532-4.206,0.836-6.609
			c0.304-2.403,0.608-4.806,0.836-6.608c0.012-0.113,0.038-0.222,0.024-0.333c-0.016-0.112-0.012-0.218,0.063-0.313
			c0.143-0.191,0.277-0.372,0.403-0.542c0.244-0.341,0.491-0.634,0.694-0.875C336.742,64.382,337.016,64.111,337.016,64.111z"/>
	</g>
	<g>
		<path d="M357.626,139.899c-3.035-0.278-6.063-0.721-9.068-1.365c-1.505-0.314-3.003-0.688-4.49-1.146
			c-1.488-0.459-2.973-0.978-4.437-1.668c-0.733-0.342-1.461-0.74-2.156-1.229c-0.679-0.522-1.333-1.125-1.907-1.884
			c-0.147-0.218-0.255-0.356-0.434-0.64l-0.281-0.495c-0.206-0.409-0.415-0.849-0.557-1.229c-0.311-0.789-0.552-1.579-0.737-2.37
			c-0.387-1.581-0.59-3.163-0.706-4.744c-0.114-1.581-0.12-3.162-0.026-4.74c0.095-1.579,0.277-3.156,0.603-4.726
			c0.335-1.568,0.766-3.137,1.494-4.665c0.354-0.764,0.789-1.518,1.354-2.229c0.269-0.358,0.597-0.7,0.948-1.019
			c0.188-0.154,0.354-0.322,0.564-0.458l0.311-0.207l0.156-0.102l0.039-0.025l0.02-0.013c0.054-0.029-0.094,0.047,0.126-0.067
			l0.064-0.03l1.032-0.479c0.39-0.151,0.849-0.287,1.272-0.423c0.448-0.154,0.834-0.221,1.232-0.308
			c0.396-0.077,0.798-0.186,1.191-0.235c1.578-0.245,3.146-0.401,4.699-0.463c1.557-0.082,3.103-0.084,4.646-0.069
			c3.09,0.06,6.134,0.238,9.226,0.557l-0.527,0.035l38.92-9.641l0.245-0.061l0.244,0.022c1.909,0.176,3.776,0.389,5.659,0.636
			c1.878,0.253,3.755,0.52,5.628,0.856c1.873,0.332,3.745,0.696,5.614,1.173c0.935,0.217,1.869,0.508,2.804,0.781
			c0.936,0.32,1.865,0.649,2.81,1.085c0.469,0.169,0.955,0.493,1.426,0.753l0.177,0.105l0.089,0.052l0.142,0.106
			c0.094,0.071,0.184,0.146,0.272,0.224l0.532,0.46c0.367,0.372,0.756,0.804,1.106,1.205c0.305,0.411,0.621,0.813,0.907,1.228
			c0.557,0.84,1.05,1.703,1.488,2.585c0.43,0.886,0.805,1.789,1.138,2.703l0.451,1.384l0.372,1.403l0.289,1.419l0.198,1.432
			c0.088,0.96,0.116,1.926,0.025,2.883c-0.06,0.956-0.303,1.9-0.653,2.769c0.197-0.924,0.271-1.849,0.17-2.772
			c-0.064-0.92-0.271-1.824-0.479-2.714l-0.384-1.321l-0.466-1.292l-0.539-1.26l-0.605-1.224c-0.433-0.8-0.896-1.575-1.4-2.318
			c-0.512-0.737-1.061-1.435-1.644-2.086c-0.297-0.319-0.612-0.613-0.912-0.919l-0.915-0.751l-0.57-0.413
			c-0.096-0.068-0.189-0.139-0.28-0.213l-0.034-0.028l-0.018-0.014c0.029,0.021-0.075-0.057,0.063,0.045l-0.009-0.005l-0.063-0.036
			l-0.126-0.073c-0.352-0.188-0.628-0.431-1.041-0.594c-0.751-0.377-1.596-0.656-2.433-0.951c-0.867-0.251-1.725-0.522-2.618-0.729
			c-1.768-0.451-3.581-0.805-5.402-1.127c-1.819-0.327-3.659-0.588-5.5-0.836c-1.837-0.242-3.698-0.454-5.525-0.622l0.488-0.039
			l-38.92,9.641l-0.254,0.063l-0.274-0.028c-2.943-0.304-5.963-0.482-8.938-0.539c-1.49-0.015-2.979-0.012-4.453,0.065
			c-1.479,0.058-2.934,0.208-4.354,0.427c-0.36,0.044-0.692,0.14-1.04,0.206c-0.343,0.073-0.706,0.139-0.975,0.239
			c-0.297,0.098-0.574,0.158-0.892,0.273l-1.032,0.479l-0.064,0.03c0.209-0.109,0.052-0.026,0.096-0.049l-0.01,0.007l-0.02,0.014
			l-0.081,0.056l-0.163,0.108c-0.112,0.064-0.21,0.176-0.317,0.259c-0.206,0.19-0.414,0.395-0.597,0.645
			c-0.381,0.475-0.715,1.042-0.997,1.653c-0.583,1.213-0.97,2.591-1.267,3.985c-0.291,1.401-0.459,2.846-0.547,4.295
			c-0.163,2.893,0.005,5.855,0.653,8.604c0.16,0.686,0.366,1.35,0.611,1.972c0.125,0.332,0.247,0.574,0.374,0.846l0.281,0.495
			l0.218,0.292c0.74,0.87,1.886,1.664,3.044,2.475c2.4,1.559,5.188,2.735,7.987,3.82
			C351.808,138.129,354.693,139.081,357.626,139.899z"/>
	</g>
	<g>
		<polyline fill="#333333" points="388.425,108.358 384.537,104.9 376.864,108.73 		"/>
		<path d="M388.425,108.358c-0.307,0.018-0.624,0.05-0.908,0.042c-0.296,0.007-0.579-0.001-0.851-0.022l-0.415-0.023
			c-0.158,0.015-0.236-0.06-0.286-0.167c-0.151-0.156-0.321-0.292-0.48-0.438l-1.944-1.729l1.667,0.221l-3.837,1.915l-1.918,0.958
			c-0.177,0.044-0.26,0.28-0.52,0.158l-0.67-0.142c-0.452-0.105-0.917-0.236-1.398-0.401c0.158-0.484,0.333-0.934,0.521-1.358
			l0.289-0.621c0.059-0.281,0.297-0.206,0.438-0.321l1.918-0.958l3.837-1.915l0.908-0.454l0.759,0.675l1.943,1.729
			c0.165,0.141,0.319,0.294,0.492,0.426c0.111,0.037,0.195,0.106,0.199,0.265l0.071,0.409c0.052,0.268,0.093,0.547,0.121,0.843
			C388.401,107.732,388.407,108.052,388.425,108.358z"/>
	</g>
	<g>
		<line fill="#333333" x1="508.743" y1="59.222" x2="441.088" y2="77.12"/>
		<path d="M508.743,59.222c0,0-0.995,0.514-2.758,1.333c-0.882,0.41-1.951,0.909-3.188,1.442c-0.618,0.271-1.274,0.56-1.968,0.864
			c-0.694,0.298-1.491,0.357-2.273,0.608c-6.343,1.678-14.8,3.916-23.257,6.153s-16.913,4.475-23.256,6.152
			c-0.396,0.106-0.786,0.202-1.161,0.321c-0.37,0.134-0.741,0.229-1.121,0.256c-0.753,0.078-1.467,0.152-2.138,0.222
			c-1.339,0.147-2.516,0.244-3.483,0.328c-1.937,0.161-3.052,0.221-3.052,0.221s0.999-0.5,2.762-1.317
			c0.883-0.406,1.953-0.904,3.189-1.438c0.618-0.271,1.275-0.56,1.968-0.864c0.343-0.164,0.713-0.265,1.102-0.332
			c0.384-0.082,0.771-0.192,1.167-0.295c6.343-1.678,14.8-3.916,23.257-6.153s16.913-4.475,23.256-6.152
			c0.804-0.168,1.526-0.511,2.277-0.596c0.753-0.078,1.466-0.152,2.137-0.222c1.34-0.148,2.517-0.244,3.485-0.324
			C507.624,59.267,508.743,59.222,508.743,59.222z"/>
	</g>
	<g>
		<path fill="#333333" d="M524.066,59.051c0,0-5.06-6.614-1.524-10.307"/>
		<path d="M524.066,59.051c0,0-0.209-0.06-0.525-0.227c-0.318-0.162-0.739-0.428-1.184-0.809c-0.889-0.753-1.814-2.029-2.23-3.603
			c-0.107-0.385-0.171-0.799-0.2-1.208c-0.058-0.399,0.008-0.835,0.035-1.225c0.065-0.402,0.185-0.792,0.304-1.139
			c0.172-0.349,0.344-0.663,0.526-0.927c0.222-0.254,0.444-0.459,0.636-0.627c0.181-0.176,0.424-0.257,0.58-0.342
			c0.335-0.156,0.534-0.2,0.534-0.2s-0.017,0.234-0.062,0.563c-0.015,0.169-0.062,0.345-0.063,0.56
			c0.003,0.217,0.011,0.446-0.001,0.665c0.025,0.238,0.061,0.481,0.07,0.715c0.055,0.252,0.093,0.5,0.136,0.754
			c0.082,0.268,0.102,0.521,0.186,0.803c0.08,0.276,0.121,0.559,0.22,0.849c0.134,0.58,0.319,1.184,0.454,1.779
			c0.151,0.593,0.273,1.18,0.368,1.708c0.088,0.532,0.149,1.002,0.18,1.348C524.063,58.831,524.066,59.051,524.066,59.051z"/>
	</g>
	<g>
		<path fill="#333333" d="M515.59,20.919c0,0-3.955,8.917,3.625,17.028"/>
		<path d="M515.59,20.919c0,0,0.005,0.303,0.013,0.833c0.015,0.521,0.02,1.241,0.074,2.08c0.029,0.835,0.113,1.785,0.215,2.773
			c0.122,0.988,0.263,2.021,0.501,3.032c0.066,0.518,0.264,1.002,0.361,1.508c0.127,0.498,0.311,0.971,0.436,1.455
			c0.145,0.476,0.34,0.918,0.48,1.366c0.128,0.456,0.341,0.845,0.483,1.242c0.162,0.384,0.261,0.781,0.42,1.089
			c0.15,0.313,0.261,0.609,0.358,0.852c0.192,0.487,0.283,0.798,0.283,0.798s-0.279-0.128-0.735-0.409
			c-0.227-0.142-0.51-0.311-0.811-0.533c-0.322-0.204-0.614-0.5-0.951-0.816c-0.32-0.328-0.71-0.664-1.009-1.102
			c-0.307-0.431-0.665-0.876-0.943-1.39c-0.26-0.521-0.572-1.051-0.773-1.634c-0.194-0.585-0.427-1.175-0.532-1.796
			c-0.122-0.617-0.233-1.236-0.247-1.856c-0.06-0.615-0.015-1.223,0.026-1.805c0.117-1.164,0.379-2.223,0.733-3.08
			c0.341-0.86,0.748-1.522,1.065-1.959C515.354,21.13,515.59,20.919,515.59,20.919z"/>
	</g>
	<g>
		<path fill="#333333" d="M351.06,158.182c0,0-8.147,0.212-11.791,5.426c-3.644,5.215-13.041,38.138-10.238,50.083
			c2.803,11.944,15.914,20.128,15.914,20.128"/>
		<path d="M351.06,158.182c0,0-1.446,0.247-3.733,1.154c-1.132,0.458-2.468,1.112-3.771,2.055c-0.654,0.467-1.266,1.043-1.819,1.681
			c-0.243,0.347-0.585,0.607-0.853,0.943l-0.363,0.424c-0.131,0.227-0.264,0.456-0.397,0.688c-0.299,0.473-0.481,0.917-0.685,1.372
			c-0.205,0.455-0.422,0.904-0.624,1.448c-0.421,1.041-0.839,2.128-1.228,3.275c-0.81,2.273-1.56,4.725-2.303,7.268
			c-0.732,2.548-1.419,5.203-2.075,7.91c-0.304,1.358-0.609,2.727-0.917,4.102c-0.267,1.381-0.559,2.765-0.809,4.153
			c-0.481,2.778-0.92,5.565-1.167,8.306c-0.061,0.685-0.122,1.367-0.183,2.046c-0.04,0.677-0.048,1.347-0.074,2.015
			c-0.091,1.345,0.032,2.625,0.07,3.901c0.064,0.621,0.185,1.211,0.268,1.811l0.067,0.446l0.018,0.111l0.008,0.056
			c-0.038-0.144-0.006-0.023-0.012-0.048l0.009,0.029l0.068,0.235l0.271,0.932c0.091,0.309,0.181,0.616,0.27,0.922l0.323,0.799
			c0.232,0.525,0.383,1.046,0.677,1.562c0.973,2.099,2.267,3.921,3.521,5.539c0.328,0.396,0.625,0.803,0.965,1.16
			c0.356,0.346,0.674,0.705,0.936,1.104c0.558,0.767,1.106,1.491,1.65,2.149c1.081,1.325,2.101,2.435,2.953,3.344
			c0.872,0.885,1.562,1.596,2.058,2.05c0.489,0.463,0.765,0.696,0.765,0.696s-0.331-0.144-0.938-0.446
			c-0.608-0.301-1.497-0.757-2.59-1.412c-1.083-0.666-2.406-1.487-3.826-2.581c-0.718-0.537-1.461-1.142-2.235-1.798
			c-0.782-0.655-1.37-1.556-2.088-2.403c-1.362-1.756-2.775-3.744-3.874-6.102c-0.313-0.554-0.532-1.229-0.799-1.857
			c-0.125-0.319-0.251-0.642-0.378-0.965c-0.089-0.306-0.179-0.613-0.269-0.922l-0.272-0.932l-0.068-0.234l-0.037-0.136
			l-0.011-0.065l-0.021-0.131l-0.085-0.525c-0.104-0.7-0.24-1.415-0.312-2.122c-0.051-1.396-0.175-2.834-0.081-4.24
			c0.027-0.708,0.037-1.424,0.08-2.137c0.063-0.707,0.126-1.418,0.189-2.132c0.258-2.855,0.708-5.711,1.201-8.555
			c0.255-1.42,0.552-2.83,0.825-4.239c0.313-1.399,0.625-2.793,0.934-4.176c0.667-2.753,1.365-5.452,2.111-8.046
			c0.757-2.592,1.521-5.089,2.355-7.436c0.399-1.176,0.836-2.315,1.281-3.414c0.198-0.539,0.468-1.115,0.726-1.672
			c0.257-0.56,0.51-1.119,0.784-1.553c0.134-0.231,0.267-0.461,0.397-0.688l0.025-0.042l0.07-0.11l0.018-0.022l0.068-0.09
			l0.136-0.18l0.271-0.358c0.329-0.501,0.764-0.886,1.198-1.239c0.913-0.646,1.82-1.145,2.7-1.499
			c1.751-0.73,3.332-1.006,4.615-1.154c1.284-0.152,2.294-0.121,2.974-0.098C350.702,158.136,351.06,158.182,351.06,158.182z"/>
	</g>
	<path fill="#333333" stroke="#000000" stroke-miterlimit="10" d="M389.739,149.092c0,0-11.434,2.635-18.596,3.013
		c-13.438,0.71-15.944,2.799-15.944,2.799l3.037-20.125c0,0,2.118,9.848,13.061,13.238c7.137,2.212,19.626-1.186,19.626-1.186
		L389.739,149.092z"/>
</g>
<g>
	<g>
		<path d="M390.205,151.243c-4.265,6.208-10.019,11.922-11.448,19.583c-1.128,6.042,3.108,12.908,8.699,15.207
			c4.671,1.921,9.966,1.782,14.924,2.108c6.772,0.445,11.926,2.108,9.674,9.961c-0.534,1.863,2.36,2.653,2.893,0.797
			c1.092-3.807,1.563-8.575-2.176-11.129c-3.739-2.555-8.761-2.55-13.112-2.794c-7.469-0.419-14.617-1.04-17.653-9.249
			c-2.975-8.042,6.715-17.035,10.79-22.97C393.894,151.158,391.292,149.659,390.205,151.243L390.205,151.243z"/>
	</g>
</g>
<rect x="409.5" y="187.5" transform="matrix(0.9429 0.3331 -0.3331 0.9429 103.3748 -148.9294)" fill="#E8D7C5" stroke="#000000" stroke-width="2" stroke-miterlimit="10" width="153" height="79"/>
<g>
	<path d="M158.83,186.995v27.967h-6.967v-27.967H158.83z"/>
	<path d="M186.597,209.837v5.125h-21.321v-27.967h6.967v22.842H186.597z"/>
</g>
<g>
	<path d="M442.077,224.007l8.086-24.566l3.161,1.042l-8.087,24.563L442.077,224.007z"/>
	<path d="M449.476,226.441l8.086-24.565l2.567,0.846l0.441,16.98l0.083-0.01l4.987-15.157l2.91,0.959l-8.086,24.565l-2.567-0.846
		l-0.407-17.088l-0.071-0.026l-5.035,15.301L449.476,226.441z"/>
	<path d="M464.667,231.442l8.085-24.565l3.484,1.146c5.614,1.848,7.078,6.854,4.392,15.019c-1.343,4.083-3.053,6.927-5.128,8.532
		c-2.073,1.607-4.375,1.994-6.9,1.162L464.667,231.442z M468.797,229.537l0.468,0.153c1.866,0.615,3.422,0.335,4.664-0.841
		c1.244-1.178,2.407-3.412,3.491-6.704c1.131-3.437,1.566-5.989,1.308-7.66c-0.26-1.672-1.343-2.82-3.244-3.447l-0.541-0.177
		L468.797,229.537z"/>
	<path d="M480.037,236.501l8.087-24.564l3.16,1.039l-8.086,24.566L480.037,236.501z"/>
	<path d="M485.516,238.304l12.766-23.185l3.287,1.083l-3.536,26.221l-3.054-1.004l0.911-5.731l-4.561-1.501l-2.762,5.122
		L485.516,238.304z M492.765,231.395l3.538,1.164l1.661-10.855l-0.089-0.03L492.765,231.395z"/>
	<path d="M500.456,243.222l8.085-24.565l2.567,0.846l0.442,16.979l0.082-0.01l4.989-15.156l2.909,0.957l-8.086,24.566l-2.567-0.845
		l-0.406-17.088l-0.071-0.026l-5.036,15.298L500.456,243.222z"/>
	<path d="M513.869,247.636l12.767-23.184l3.286,1.082l-3.536,26.223l-3.053-1.006l0.911-5.731l-4.562-1.501l-2.759,5.123
		L513.869,247.636z M521.12,240.728l3.537,1.165l1.661-10.857l-0.089-0.028L521.12,240.728z"/>
</g>
<line fill="none" stroke="#000000" stroke-width="2" stroke-miterlimit="10" x1="209.68" y1="131.553" x2="220.57" y2="103.725"/>
<g>
	<path fill="#FFFFFF" d="M208.112,99.146v1.626c-0.58,0.451-1.192,0.677-1.837,0.677c-1.031,0-1.828-0.527-2.391-1.582
		s-0.844-2.561-0.844-4.518s0.283-3.486,0.848-4.588s1.373-1.652,2.421-1.652c0.504,0,1.058,0.208,1.661,0.624v1.564
		c-0.516-0.498-1.031-0.747-1.547-0.747c-0.621,0-1.071,0.364-1.349,1.092s-0.417,1.94-0.417,3.636c0,1.679,0.141,2.886,0.422,3.623
		s0.747,1.105,1.397,1.105C206.922,100.007,207.467,99.72,208.112,99.146z"/>
	<path fill="#FFFFFF" d="M209.518,101.291V89.267h1.538v5.291h2.303v-5.291h1.538v12.023h-1.538V96h-2.303v5.291H209.518z"/>
	<path fill="#FFFFFF" d="M216.971,101.291V89.267h1.547v12.023H216.971z"/>
	<path fill="#FFFFFF" d="M225.18,99.146v1.626c-0.58,0.451-1.192,0.677-1.837,0.677c-1.031,0-1.828-0.527-2.391-1.582
		s-0.844-2.561-0.844-4.518s0.283-3.486,0.848-4.588s1.373-1.652,2.421-1.652c0.504,0,1.058,0.208,1.661,0.624v1.564
		c-0.516-0.498-1.031-0.747-1.547-0.747c-0.621,0-1.071,0.364-1.349,1.092s-0.417,1.94-0.417,3.636c0,1.679,0.141,2.886,0.422,3.623
		s0.747,1.105,1.397,1.105C223.991,100.007,224.536,99.72,225.18,99.146z"/>
	<path fill="#FFFFFF" d="M225.646,101.291l2.268-12.094h1.608l2.25,12.094h-1.494l-0.431-2.663h-2.232l-0.475,2.663H225.646z
		 M227.843,97.186h1.731l-0.844-5.036h-0.044L227.843,97.186z"/>
	<path fill="#FFFFFF" d="M238.592,94.831v5.906c-0.727,0.475-1.436,0.712-2.127,0.712c-1.219,0-2.183-0.542-2.892-1.626
		s-1.063-2.593-1.063-4.526c0-1.904,0.343-3.412,1.028-4.522s1.603-1.666,2.751-1.666c0.691,0,1.459,0.287,2.303,0.861v1.652
		c-0.861-0.785-1.605-1.178-2.232-1.178c-1.535,0-2.303,1.614-2.303,4.843c0,3.146,0.814,4.72,2.443,4.72
		c0.135,0,0.316-0.021,0.545-0.062v-3.674h-1.063v-1.441H238.592z"/>
	<path fill="#FFFFFF" d="M243.25,101.449c-0.949,0-1.723-0.549-2.32-1.648s-0.896-2.606-0.896-4.522
		c0-1.811,0.283-3.292,0.848-4.443s1.355-1.727,2.369-1.727c0.984,0,1.768,0.574,2.351,1.723s0.875,2.631,0.875,4.447
		c0,1.934-0.308,3.445-0.923,4.535S244.17,101.449,243.25,101.449z M243.233,90.55c-0.51,0-0.901,0.42-1.173,1.259
		c-0.272,0.839-0.409,1.996-0.409,3.47c0,1.526,0.141,2.696,0.422,3.509s0.68,1.219,1.195,1.219c0.492,0,0.88-0.415,1.165-1.246
		s0.426-1.992,0.426-3.483c0-1.515-0.144-2.682-0.431-3.5C244.141,90.96,243.743,90.55,243.233,90.55z"/>
</g>
<g>
	<path d="M14.969,21.812v2.25H9.572v2.742h5.396v2.25H9.572v5.036H6.514V21.812H14.969z"/>
	<path d="M20.84,25.618c1.301,0,2.404,0.381,3.309,1.144c0.905,0.762,1.358,1.824,1.358,3.185c0,1.367-0.46,2.425-1.38,3.176
		c-0.92,0.75-2.016,1.126-3.287,1.126c-1.377,0-2.503-0.4-3.379-1.201c-0.876-0.8-1.314-1.84-1.314-3.119
		c0-1.302,0.447-2.346,1.34-3.132C18.38,26.011,19.498,25.618,20.84,25.618z M20.84,32.702c1.248,0,1.872-0.942,1.872-2.826
		c0-1.802-0.624-2.703-1.872-2.703c-0.598,0-1.065,0.238-1.402,0.713c-0.337,0.475-0.505,1.156-0.505,2.042
		C18.933,31.777,19.568,32.702,20.84,32.702z"/>
	<path d="M29.937,25.793v2.373h0.035c0.756-1.699,1.638-2.549,2.646-2.549c0.48,0,1.058,0.252,1.731,0.756l-0.721,2.312
		c-0.645-0.41-1.16-0.615-1.547-0.615c-0.604,0-1.112,0.374-1.525,1.122c-0.413,0.749-0.62,1.184-0.62,1.307v3.591h-2.61v-8.297
		H29.937z"/>
	<path d="M48.42,31.515v1.644c-0.996,0.727-2.229,1.09-3.7,1.09c-1.459,0-2.625-0.392-3.498-1.174c-0.873-0.783-1.31-1.82-1.31-3.11
		c0-1.267,0.41-2.308,1.23-3.123c0.82-0.815,1.866-1.223,3.138-1.223c1.277,0,2.325,0.429,3.142,1.288s1.2,2.008,1.147,3.45H42.61
		c0.053,0.753,0.319,1.332,0.8,1.738c0.48,0.406,1.125,0.608,1.934,0.608C46.322,32.702,47.348,32.306,48.42,31.515z M42.663,28.984
		h3.604c-0.141-1.207-0.741-1.811-1.802-1.811C43.393,27.173,42.792,27.777,42.663,28.984z"/>
	<path d="M58.633,25.793l-3.27,4.055l3.516,4.242h-3.031l-1.953-2.572L52.01,34.09h-2.94l3.385-4.236l-3.385-4.061h3.043
		l1.785,2.397l1.694-2.397H58.633z"/>
	<path d="M68.485,32.042v1.45c-0.867,0.504-1.682,0.756-2.443,0.756c-0.82,0-1.307-0.311-1.459-0.932
		c-0.908,0.621-1.819,0.932-2.733,0.932c-0.645,0-1.192-0.204-1.644-0.612s-0.677-0.882-0.677-1.422
		c0-0.722,0.233-1.304,0.699-1.747c0.466-0.443,1.876-1.014,4.232-1.712c0.059-0.926-0.422-1.389-1.441-1.389
		c-1.107,0-2.127,0.463-3.059,1.389v-2.127c1.09-0.674,2.288-1.011,3.595-1.011c2.344,0,3.516,0.842,3.516,2.525v3.785
		c0,0.387,0.144,0.581,0.431,0.581C67.718,32.508,68.046,32.353,68.485,32.042z M64.46,32.076v-2.011
		c-0.873,0.306-1.472,0.581-1.797,0.825c-0.325,0.244-0.488,0.554-0.488,0.93c0,0.241,0.082,0.448,0.246,0.622
		c0.164,0.174,0.363,0.26,0.598,0.26C63.511,32.702,63.991,32.493,64.46,32.076z"/>
	<path d="M72.229,25.793v1.063c0.885-0.826,1.847-1.239,2.885-1.239c1.425,0,2.422,0.589,2.99,1.767
		c1.003-1.178,2.094-1.767,3.272-1.767c0.956,0,1.736,0.291,2.34,0.871s0.906,1.337,0.906,2.27v5.332h-2.61v-4.867
		c0-0.586-0.135-1.043-0.405-1.369c-0.27-0.325-0.646-0.488-1.128-0.488c-0.764,0-1.451,0.469-2.062,1.408v5.315h-2.602v-4.919
		c0-0.581-0.145-1.027-0.435-1.338c-0.29-0.311-0.675-0.466-1.156-0.466c-0.686,0-1.351,0.384-1.995,1.153v5.571h-2.61v-8.297
		H72.229z"/>
	<path d="M89.368,25.793v0.721c0.697-0.598,1.488-0.896,2.373-0.896c1.078,0,1.989,0.408,2.733,1.223
		c0.744,0.815,1.116,1.815,1.116,3c0,1.332-0.374,2.399-1.121,3.202c-0.747,0.804-1.736,1.206-2.966,1.206
		c-0.762,0-1.474-0.19-2.136-0.571v4.553h-2.61V25.793H89.368z M89.368,28.14v3.814c0.492,0.363,0.996,0.545,1.512,0.545
		c0.633,0,1.135-0.227,1.507-0.681s0.558-1.068,0.558-1.841c0-0.791-0.171-1.406-0.514-1.846s-0.825-0.659-1.446-0.659
		C90.464,27.472,89.925,27.695,89.368,28.14z"/>
	<path d="M99.968,21.812V34.09h-2.61V21.812H99.968z"/>
	<path d="M110.277,31.515v1.644c-0.996,0.727-2.229,1.09-3.7,1.09c-1.459,0-2.625-0.392-3.498-1.174
		c-0.873-0.783-1.31-1.82-1.31-3.11c0-1.267,0.41-2.308,1.23-3.123c0.82-0.815,1.866-1.223,3.138-1.223
		c1.277,0,2.325,0.429,3.142,1.288s1.2,2.008,1.147,3.45h-5.959c0.053,0.753,0.319,1.332,0.8,1.738
		c0.48,0.406,1.125,0.608,1.934,0.608C108.18,32.702,109.205,32.306,110.277,31.515z M104.521,28.984h3.604
		c-0.141-1.207-0.741-1.811-1.802-1.811C105.25,27.173,104.649,27.777,104.521,28.984z"/>
	<path d="M112.29,37.131v-0.554c0.557-0.533,0.835-1.21,0.835-2.03c0-0.1-0.006-0.199-0.018-0.299
		c-0.615-0.234-0.923-0.671-0.923-1.31c0-0.41,0.141-0.75,0.422-1.02s0.633-0.404,1.055-0.404c0.527,0,0.959,0.192,1.296,0.576
		s0.505,0.877,0.505,1.481c0,0.867-0.297,1.649-0.892,2.347S113.216,37.02,112.29,37.131z"/>
	<path d="M132.285,30.346v2.681c-1.535,0.814-3.144,1.222-4.825,1.222c-2.18,0-3.916-0.602-5.208-1.806s-1.938-2.688-1.938-4.452
		s0.681-3.261,2.043-4.491s3.142-1.846,5.339-1.846c1.752,0,3.234,0.36,4.447,1.081v2.733c-1.488-0.838-2.897-1.257-4.228-1.257
		c-1.307,0-2.375,0.35-3.204,1.05s-1.244,1.592-1.244,2.676c0,1.09,0.409,1.989,1.226,2.698s1.865,1.063,3.142,1.063
		c0.633,0,1.242-0.083,1.828-0.25S131.125,30.915,132.285,30.346z"/>
	<path d="M137.075,21.812v5.194h0.035c0.727-0.926,1.603-1.389,2.628-1.389c0.885,0,1.613,0.28,2.184,0.84s0.857,1.339,0.857,2.336
		v5.296h-2.61v-4.744c0-1.208-0.448-1.813-1.345-1.813c-0.592,0-1.175,0.419-1.749,1.258v5.298h-2.61V21.812H137.075z"/>
	<path d="M144.836,23.095c0-0.398,0.141-0.738,0.422-1.02s0.618-0.422,1.011-0.422c0.398,0,0.738,0.141,1.02,0.422
		s0.422,0.621,0.422,1.02c0,0.393-0.141,0.731-0.422,1.015s-0.621,0.426-1.02,0.426c-0.393,0-0.729-0.142-1.011-0.426
		S144.836,23.488,144.836,23.095z M147.587,25.793v8.297h-2.61v-8.297H147.587z"/>
	<path d="M157.053,31.823v1.872c-1.02,0.369-1.954,0.554-2.804,0.554c-1.459,0-2.625-0.392-3.498-1.174
		c-0.873-0.783-1.31-1.82-1.31-3.11c0-1.261,0.441-2.301,1.323-3.119c0.882-0.818,2.005-1.228,3.371-1.228
		c0.879,0,1.811,0.182,2.795,0.545v1.942c-0.721-0.369-1.43-0.554-2.127-0.554c-0.779,0-1.403,0.217-1.872,0.652
		c-0.469,0.434-0.703,1.015-0.703,1.743c0,0.734,0.229,1.325,0.686,1.774c0.457,0.449,1.058,0.674,1.802,0.674
		C155.266,32.394,156.045,32.204,157.053,31.823z"/>
	<path d="M167.274,32.042v1.45c-0.867,0.504-1.682,0.756-2.443,0.756c-0.82,0-1.307-0.311-1.459-0.932
		c-0.908,0.621-1.819,0.932-2.733,0.932c-0.645,0-1.192-0.204-1.644-0.612s-0.677-0.882-0.677-1.422
		c0-0.722,0.233-1.304,0.699-1.747c0.466-0.443,1.876-1.014,4.232-1.712c0.059-0.926-0.422-1.389-1.441-1.389
		c-1.107,0-2.127,0.463-3.059,1.389v-2.127c1.09-0.674,2.288-1.011,3.595-1.011c2.344,0,3.516,0.842,3.516,2.525v3.785
		c0,0.387,0.144,0.581,0.431,0.581C166.507,32.508,166.835,32.353,167.274,32.042z M163.249,32.076v-2.011
		c-0.873,0.306-1.472,0.581-1.797,0.825c-0.325,0.244-0.488,0.554-0.488,0.93c0,0.241,0.082,0.448,0.246,0.622
		c0.164,0.174,0.363,0.26,0.598,0.26C162.3,32.702,162.78,32.493,163.249,32.076z"/>
	<path d="M176.538,25.793v1.749h-1.187c0.275,0.469,0.413,0.929,0.413,1.38c0,0.645-0.24,1.239-0.721,1.784
		s-1.191,0.869-2.131,0.971s-1.474,0.199-1.6,0.29s-0.189,0.209-0.189,0.356s0.082,0.265,0.246,0.356s0.81,0.185,1.938,0.281
		s1.913,0.393,2.355,0.888s0.664,1.027,0.664,1.595c0,0.908-0.376,1.6-1.129,2.074s-1.841,0.712-3.265,0.712
		c-1.453,0-2.555-0.22-3.305-0.659s-1.125-1.022-1.125-1.749c0-1.008,0.738-1.711,2.215-2.109c-0.668-0.199-1.002-0.56-1.002-1.081
		c0-0.609,0.504-1.028,1.512-1.257c-0.674-0.117-1.23-0.41-1.67-0.879s-0.659-1.028-0.659-1.679c0-0.797,0.316-1.5,0.949-2.109
		s1.553-0.914,2.76-0.914H176.538z M172.056,36.683c0.557,0,1.008-0.103,1.354-0.308s0.519-0.451,0.519-0.738
		c0-0.609-0.677-0.914-2.03-0.914c-0.615,0-1.099,0.089-1.45,0.268s-0.527,0.417-0.527,0.716
		C169.92,36.358,170.632,36.683,172.056,36.683z M171.84,27.34c-0.427,0-0.785,0.146-1.074,0.439s-0.434,0.65-0.434,1.072
		c0,0.404,0.149,0.754,0.447,1.05c0.298,0.296,0.651,0.444,1.061,0.444s0.759-0.155,1.052-0.466
		c0.292-0.311,0.438-0.683,0.438-1.116c0-0.393-0.142-0.728-0.425-1.006C172.622,27.479,172.267,27.34,171.84,27.34z"/>
	<path d="M181.943,25.618c1.301,0,2.404,0.381,3.309,1.144c0.905,0.762,1.358,1.824,1.358,3.185c0,1.367-0.46,2.425-1.38,3.176
		c-0.92,0.75-2.016,1.126-3.287,1.126c-1.377,0-2.503-0.4-3.379-1.201c-0.876-0.8-1.314-1.84-1.314-3.119
		c0-1.302,0.447-2.346,1.34-3.132C179.484,26.011,180.602,25.618,181.943,25.618z M181.943,32.702c1.248,0,1.872-0.942,1.872-2.826
		c0-1.802-0.624-2.703-1.872-2.703c-0.598,0-1.065,0.238-1.402,0.713c-0.337,0.475-0.505,1.156-0.505,2.042
		C180.036,31.777,180.672,32.702,181.943,32.702z"/>
	<path d="M196.006,21.812v5.194h0.035c0.727-0.926,1.603-1.389,2.628-1.389c0.885,0,1.613,0.28,2.184,0.84s0.857,1.339,0.857,2.336
		v5.296h-2.61v-4.744c0-1.208-0.448-1.813-1.345-1.813c-0.592,0-1.175,0.419-1.749,1.258v5.298h-2.61V21.812H196.006z"/>
	<path d="M212.327,32.042v1.45c-0.867,0.504-1.682,0.756-2.443,0.756c-0.82,0-1.307-0.311-1.459-0.932
		c-0.908,0.621-1.819,0.932-2.733,0.932c-0.645,0-1.192-0.204-1.644-0.612s-0.677-0.882-0.677-1.422
		c0-0.722,0.233-1.304,0.699-1.747c0.466-0.443,1.876-1.014,4.232-1.712c0.059-0.926-0.422-1.389-1.441-1.389
		c-1.107,0-2.127,0.463-3.059,1.389v-2.127c1.09-0.674,2.288-1.011,3.595-1.011c2.344,0,3.516,0.842,3.516,2.525v3.785
		c0,0.387,0.144,0.581,0.431,0.581C211.56,32.508,211.888,32.353,212.327,32.042z M208.302,32.076v-2.011
		c-0.873,0.306-1.472,0.581-1.797,0.825c-0.325,0.244-0.488,0.554-0.488,0.93c0,0.241,0.082,0.448,0.246,0.622
		c0.164,0.174,0.363,0.26,0.598,0.26C207.353,32.702,207.833,32.493,208.302,32.076z"/>
	<path d="M219.112,26.233v1.854c-0.996-0.609-1.919-0.914-2.769-0.914c-0.627,0-0.94,0.214-0.94,0.642
		c0,0.111,0.066,0.221,0.198,0.33s0.638,0.337,1.516,0.688s1.5,0.753,1.863,1.211s0.545,0.959,0.545,1.504
		c0,0.862-0.293,1.528-0.879,1.998s-1.421,0.704-2.505,0.704c-1.113,0-2.104-0.202-2.971-0.606v-1.837
		c1.066,0.469,1.96,0.703,2.681,0.703c0.844,0,1.266-0.205,1.266-0.614c0-0.158-0.078-0.307-0.234-0.447
		c-0.156-0.141-0.679-0.385-1.569-0.733c-0.89-0.348-1.499-0.73-1.827-1.147c-0.328-0.416-0.492-0.88-0.492-1.39
		c0-0.756,0.315-1.372,0.945-1.847s1.46-0.713,2.492-0.713C217.422,25.618,218.315,25.823,219.112,26.233z"/>
	<path d="M11.928,47.833v1.854c-0.996-0.609-1.919-0.914-2.769-0.914c-0.627,0-0.94,0.214-0.94,0.642
		c0,0.111,0.066,0.221,0.198,0.33s0.638,0.337,1.516,0.688s1.5,0.753,1.863,1.211s0.545,0.959,0.545,1.504
		c0,0.862-0.293,1.528-0.879,1.998s-1.421,0.704-2.505,0.704c-1.113,0-2.104-0.202-2.971-0.606v-1.837
		c1.066,0.469,1.96,0.703,2.681,0.703c0.844,0,1.266-0.205,1.266-0.614c0-0.158-0.078-0.307-0.234-0.447
		c-0.156-0.141-0.679-0.385-1.569-0.733c-0.89-0.348-1.499-0.73-1.827-1.147c-0.328-0.416-0.492-0.88-0.492-1.39
		c0-0.756,0.315-1.372,0.945-1.847s1.46-0.713,2.492-0.713C10.237,47.218,11.131,47.423,11.928,47.833z"/>
	<path d="M19.864,47.394v1.784h-3.023v3.419c0,0.41,0.113,0.734,0.338,0.971s0.538,0.356,0.936,0.356
		c0.539,0,1.122-0.161,1.749-0.483v1.89c-0.832,0.346-1.638,0.519-2.417,0.519c-1.02,0-1.811-0.264-2.373-0.791
		s-0.844-1.301-0.844-2.32v-3.56h-1.187v-0.51l3.472-3.885h0.325v2.61H19.864z"/>
	<path d="M23.89,47.394v2.373h0.035c0.756-1.699,1.638-2.549,2.646-2.549c0.48,0,1.058,0.252,1.731,0.756l-0.721,2.312
		c-0.645-0.41-1.16-0.615-1.547-0.615c-0.604,0-1.112,0.374-1.525,1.122c-0.413,0.749-0.62,1.184-0.62,1.307v3.591h-2.61v-8.297
		H23.89z"/>
	<path d="M29.189,44.695c0-0.398,0.141-0.738,0.422-1.02s0.618-0.422,1.011-0.422c0.398,0,0.738,0.141,1.02,0.422
		s0.422,0.621,0.422,1.02c0,0.393-0.141,0.731-0.422,1.015s-0.621,0.426-1.02,0.426c-0.393,0-0.729-0.142-1.011-0.426
		S29.189,45.088,29.189,44.695z M31.94,47.394v8.297h-2.61v-8.297H31.94z"/>
	<path d="M41.406,53.423v1.872c-1.02,0.369-1.954,0.554-2.804,0.554c-1.459,0-2.625-0.392-3.498-1.174
		c-0.873-0.783-1.31-1.82-1.31-3.11c0-1.261,0.441-2.301,1.323-3.119c0.882-0.818,2.005-1.228,3.371-1.228
		c0.879,0,1.811,0.182,2.795,0.545v1.942c-0.721-0.369-1.43-0.554-2.127-0.554c-0.779,0-1.403,0.217-1.872,0.652
		c-0.469,0.434-0.703,1.015-0.703,1.743c0,0.734,0.229,1.325,0.686,1.774c0.457,0.449,1.058,0.674,1.802,0.674
		C39.619,53.994,40.398,53.804,41.406,53.423z"/>
	<path d="M49.114,47.394v1.784h-3.023v3.419c0,0.41,0.113,0.734,0.338,0.971s0.538,0.356,0.936,0.356
		c0.539,0,1.122-0.161,1.749-0.483v1.89c-0.832,0.346-1.638,0.519-2.417,0.519c-1.02,0-1.811-0.264-2.373-0.791
		s-0.844-1.301-0.844-2.32v-3.56h-1.187v-0.51l3.472-3.885h0.325v2.61H49.114z"/>
	<path d="M63.915,47.394v1.749h-1.187c0.275,0.469,0.413,0.929,0.413,1.38c0,0.645-0.24,1.239-0.721,1.784s-1.191,0.869-2.131,0.971
		s-1.474,0.199-1.6,0.29s-0.189,0.209-0.189,0.356s0.082,0.265,0.246,0.356s0.81,0.185,1.938,0.281s1.913,0.393,2.355,0.888
		s0.664,1.027,0.664,1.595c0,0.908-0.376,1.6-1.129,2.074s-1.841,0.712-3.265,0.712c-1.453,0-2.555-0.22-3.305-0.659
		s-1.125-1.022-1.125-1.749c0-1.008,0.738-1.711,2.215-2.109c-0.668-0.199-1.002-0.56-1.002-1.081c0-0.609,0.504-1.028,1.512-1.257
		c-0.674-0.117-1.23-0.41-1.67-0.879s-0.659-1.028-0.659-1.679c0-0.797,0.316-1.5,0.949-2.109s1.553-0.914,2.76-0.914H63.915z
		 M59.433,58.283c0.557,0,1.008-0.103,1.354-0.308s0.519-0.451,0.519-0.738c0-0.609-0.677-0.914-2.03-0.914
		c-0.615,0-1.099,0.089-1.45,0.268s-0.527,0.417-0.527,0.716C57.297,57.958,58.009,58.283,59.433,58.283z M59.217,48.94
		c-0.427,0-0.785,0.146-1.074,0.439s-0.434,0.65-0.434,1.072c0,0.404,0.149,0.754,0.447,1.05c0.298,0.296,0.651,0.444,1.061,0.444
		s0.759-0.155,1.052-0.466c0.292-0.311,0.438-0.683,0.438-1.116c0-0.393-0.142-0.728-0.425-1.006
		C59.999,49.08,59.644,48.94,59.217,48.94z"/>
	<path d="M70.938,55.69v-1.187c-0.768,0.896-1.661,1.345-2.681,1.345c-0.902,0-1.635-0.278-2.197-0.835s-0.844-1.327-0.844-2.312
		v-5.309h2.61v5.126c0,1.053,0.437,1.58,1.31,1.58c0.492,0,0.913-0.191,1.261-0.575s0.523-0.666,0.523-0.847v-5.284h2.628v8.297
		H70.938z"/>
	<path d="M78.32,47.394v1.178c0.768-0.902,1.667-1.354,2.698-1.354c0.861,0,1.581,0.276,2.158,0.827s0.866,1.34,0.866,2.367v5.279
		h-2.61V50.63c0-1.108-0.431-1.663-1.292-1.663c-0.615,0-1.222,0.457-1.819,1.371v5.353h-2.61v-8.297H78.32z"/>
	<path d="M98.456,53.423v1.872c-1.02,0.369-1.954,0.554-2.804,0.554c-1.459,0-2.625-0.392-3.498-1.174
		c-0.873-0.783-1.31-1.82-1.31-3.11c0-1.261,0.441-2.301,1.323-3.119c0.882-0.818,2.005-1.228,3.371-1.228
		c0.879,0,1.811,0.182,2.795,0.545v1.942c-0.721-0.369-1.43-0.554-2.127-0.554c-0.779,0-1.403,0.217-1.872,0.652
		c-0.469,0.434-0.703,1.015-0.703,1.743c0,0.734,0.229,1.325,0.686,1.774c0.457,0.449,1.058,0.674,1.802,0.674
		C96.669,53.994,97.448,53.804,98.456,53.423z"/>
	<path d="M104.485,47.218c1.301,0,2.404,0.381,3.309,1.144c0.905,0.762,1.358,1.824,1.358,3.185c0,1.367-0.46,2.425-1.38,3.176
		c-0.92,0.75-2.016,1.126-3.287,1.126c-1.377,0-2.503-0.4-3.379-1.201c-0.876-0.8-1.314-1.84-1.314-3.119
		c0-1.302,0.447-2.346,1.34-3.132C102.026,47.611,103.144,47.218,104.485,47.218z M104.485,54.302c1.248,0,1.872-0.942,1.872-2.826
		c0-1.802-0.624-2.703-1.872-2.703c-0.598,0-1.065,0.238-1.402,0.713c-0.337,0.475-0.505,1.156-0.505,2.042
		C102.578,53.377,103.214,54.302,104.485,54.302z"/>
	<path d="M113.512,47.394v1.178c0.768-0.902,1.667-1.354,2.698-1.354c0.861,0,1.581,0.276,2.158,0.827s0.866,1.34,0.866,2.367v5.279
		h-2.61V50.63c0-1.108-0.431-1.663-1.292-1.663c-0.615,0-1.222,0.457-1.819,1.371v5.353h-2.61v-8.297H113.512z"/>
	<path d="M127.354,47.394v1.784h-3.023v3.419c0,0.41,0.113,0.734,0.338,0.971s0.538,0.356,0.936,0.356
		c0.539,0,1.122-0.161,1.749-0.483v1.89c-0.832,0.346-1.638,0.519-2.417,0.519c-1.02,0-1.811-0.264-2.373-0.791
		s-0.844-1.301-0.844-2.32v-3.56h-1.187v-0.51l3.472-3.885h0.325v2.61H127.354z"/>
	<path d="M131.38,47.394v2.373h0.035c0.756-1.699,1.638-2.549,2.646-2.549c0.48,0,1.058,0.252,1.731,0.756l-0.721,2.312
		c-0.645-0.41-1.16-0.615-1.547-0.615c-0.604,0-1.112,0.374-1.525,1.122c-0.413,0.749-0.62,1.184-0.62,1.307v3.591h-2.61v-8.297
		H131.38z"/>
	<path d="M140.6,47.218c1.301,0,2.404,0.381,3.309,1.144c0.905,0.762,1.358,1.824,1.358,3.185c0,1.367-0.46,2.425-1.38,3.176
		c-0.92,0.75-2.016,1.126-3.287,1.126c-1.377,0-2.503-0.4-3.379-1.201c-0.876-0.8-1.314-1.84-1.314-3.119
		c0-1.302,0.447-2.346,1.34-3.132C138.14,47.611,139.258,47.218,140.6,47.218z M140.6,54.302c1.248,0,1.872-0.942,1.872-2.826
		c0-1.802-0.624-2.703-1.872-2.703c-0.598,0-1.065,0.238-1.402,0.713c-0.337,0.475-0.505,1.156-0.505,2.042
		C138.692,53.377,139.328,54.302,140.6,54.302z"/>
	<path d="M149.679,43.412V55.69h-2.61V43.412H149.679z"/>
	<path d="M159.558,47.394v1.063c0.885-0.826,1.847-1.239,2.885-1.239c1.425,0,2.422,0.589,2.99,1.767
		c1.003-1.178,2.094-1.767,3.272-1.767c0.956,0,1.736,0.291,2.34,0.871s0.906,1.337,0.906,2.27v5.332h-2.61v-4.867
		c0-0.586-0.135-1.043-0.405-1.369c-0.27-0.325-0.646-0.488-1.128-0.488c-0.764,0-1.451,0.469-2.062,1.408v5.315h-2.602v-4.919
		c0-0.581-0.145-1.027-0.435-1.338c-0.29-0.311-0.675-0.466-1.156-0.466c-0.686,0-1.351,0.384-1.995,1.153v5.571h-2.61v-8.297
		H159.558z"/>
	<path d="M182.233,53.115v1.644c-0.996,0.727-2.229,1.09-3.7,1.09c-1.459,0-2.625-0.392-3.498-1.174
		c-0.873-0.783-1.31-1.82-1.31-3.11c0-1.267,0.41-2.308,1.23-3.123c0.82-0.815,1.866-1.223,3.138-1.223
		c1.277,0,2.325,0.429,3.142,1.288s1.2,2.008,1.147,3.45h-5.959c0.053,0.753,0.319,1.332,0.8,1.738
		c0.48,0.406,1.125,0.608,1.934,0.608C180.136,54.302,181.161,53.906,182.233,53.115z M176.477,50.584h3.604
		c-0.141-1.207-0.741-1.811-1.802-1.811C177.206,48.773,176.605,49.377,176.477,50.584z"/>
	<path d="M192.543,53.643v1.45c-0.867,0.504-1.682,0.756-2.443,0.756c-0.82,0-1.307-0.311-1.459-0.932
		c-0.908,0.621-1.819,0.932-2.733,0.932c-0.645,0-1.192-0.204-1.644-0.612s-0.677-0.882-0.677-1.422
		c0-0.722,0.233-1.304,0.699-1.747c0.466-0.443,1.876-1.014,4.232-1.712c0.059-0.926-0.422-1.389-1.441-1.389
		c-1.107,0-2.127,0.463-3.059,1.389v-2.127c1.09-0.674,2.288-1.011,3.595-1.011c2.344,0,3.516,0.842,3.516,2.525v3.785
		c0,0.387,0.144,0.581,0.431,0.581C191.775,54.108,192.104,53.953,192.543,53.643z M188.518,53.676v-2.011
		c-0.873,0.306-1.472,0.581-1.797,0.825c-0.325,0.244-0.488,0.554-0.488,0.93c0,0.241,0.082,0.448,0.246,0.622
		c0.164,0.174,0.363,0.26,0.598,0.26C187.568,54.302,188.049,54.093,188.518,53.676z"/>
	<path d="M199.328,47.833v1.854c-0.996-0.609-1.919-0.914-2.769-0.914c-0.627,0-0.94,0.214-0.94,0.642
		c0,0.111,0.066,0.221,0.198,0.33s0.638,0.337,1.516,0.688s1.5,0.753,1.863,1.211s0.545,0.959,0.545,1.504
		c0,0.862-0.293,1.528-0.879,1.998s-1.421,0.704-2.505,0.704c-1.113,0-2.104-0.202-2.971-0.606v-1.837
		c1.066,0.469,1.96,0.703,2.681,0.703c0.844,0,1.266-0.205,1.266-0.614c0-0.158-0.078-0.307-0.234-0.447
		c-0.156-0.141-0.679-0.385-1.569-0.733c-0.89-0.348-1.499-0.73-1.827-1.147c-0.328-0.416-0.492-0.88-0.492-1.39
		c0-0.756,0.315-1.372,0.945-1.847s1.46-0.713,2.492-0.713C197.638,47.218,198.531,47.423,199.328,47.833z"/>
	<path d="M207.027,55.69v-1.187c-0.768,0.896-1.661,1.345-2.681,1.345c-0.902,0-1.635-0.278-2.197-0.835s-0.844-1.327-0.844-2.312
		v-5.309h2.61v5.126c0,1.053,0.437,1.58,1.31,1.58c0.492,0,0.913-0.191,1.261-0.575s0.523-0.666,0.523-0.847v-5.284h2.628v8.297
		H207.027z"/>
	<path d="M214.48,47.394v2.373h0.035c0.756-1.699,1.638-2.549,2.646-2.549c0.48,0,1.058,0.252,1.731,0.756l-0.721,2.312
		c-0.645-0.41-1.16-0.615-1.547-0.615c-0.604,0-1.112,0.374-1.525,1.122c-0.413,0.749-0.62,1.184-0.62,1.307v3.591h-2.61v-8.297
		H214.48z"/>
	<path d="M227.603,53.115v1.644c-0.996,0.727-2.229,1.09-3.7,1.09c-1.459,0-2.625-0.392-3.498-1.174
		c-0.873-0.783-1.31-1.82-1.31-3.11c0-1.267,0.41-2.308,1.23-3.123c0.82-0.815,1.866-1.223,3.138-1.223
		c1.277,0,2.325,0.429,3.142,1.288s1.2,2.008,1.147,3.45h-5.959c0.053,0.753,0.319,1.332,0.8,1.738
		c0.48,0.406,1.125,0.608,1.934,0.608C225.505,54.302,226.53,53.906,227.603,53.115z M221.846,50.584h3.604
		c-0.141-1.207-0.741-1.811-1.802-1.811C222.575,48.773,221.975,49.377,221.846,50.584z"/>
	<path d="M235.144,47.833v1.854c-0.996-0.609-1.919-0.914-2.769-0.914c-0.627,0-0.94,0.214-0.94,0.642
		c0,0.111,0.066,0.221,0.198,0.33s0.638,0.337,1.516,0.688s1.5,0.753,1.863,1.211s0.545,0.959,0.545,1.504
		c0,0.862-0.293,1.528-0.879,1.998s-1.421,0.704-2.505,0.704c-1.113,0-2.104-0.202-2.971-0.606v-1.837
		c1.066,0.469,1.96,0.703,2.681,0.703c0.844,0,1.266-0.205,1.266-0.614c0-0.158-0.078-0.307-0.234-0.447
		c-0.156-0.141-0.679-0.385-1.569-0.733c-0.89-0.348-1.499-0.73-1.827-1.147c-0.328-0.416-0.492-0.88-0.492-1.39
		c0-0.756,0.315-1.372,0.945-1.847s1.46-0.713,2.492-0.713C233.453,47.218,234.347,47.423,235.144,47.833z"/>
	<path d="M236.901,54.284c0-0.428,0.154-0.795,0.461-1.103s0.675-0.461,1.103-0.461c0.434,0,0.804,0.154,1.112,0.461
		s0.461,0.675,0.461,1.103c0,0.434-0.154,0.803-0.461,1.107s-0.678,0.457-1.112,0.457c-0.428,0-0.795-0.152-1.103-0.457
		S236.901,54.718,236.901,54.284z"/>
	<path d="M241.779,54.284c0-0.428,0.154-0.795,0.461-1.103s0.675-0.461,1.103-0.461c0.434,0,0.804,0.154,1.112,0.461
		s0.461,0.675,0.461,1.103c0,0.434-0.154,0.803-0.461,1.107s-0.678,0.457-1.112,0.457c-0.428,0-0.795-0.152-1.103-0.457
		S241.779,54.718,241.779,54.284z"/>
	<path d="M246.657,54.284c0-0.428,0.154-0.795,0.461-1.103s0.675-0.461,1.103-0.461c0.434,0,0.804,0.154,1.112,0.461
		s0.461,0.675,0.461,1.103c0,0.434-0.154,0.803-0.461,1.107s-0.678,0.457-1.112,0.457c-0.428,0-0.795-0.152-1.103-0.457
		S246.657,54.718,246.657,54.284z"/>
</g>
<g>
	<path d="M231.991,325.887c0-0.428,0.154-0.795,0.461-1.103s0.675-0.462,1.103-0.462c0.434,0,0.804,0.154,1.112,0.462
		s0.461,0.675,0.461,1.103c0,0.434-0.154,0.803-0.461,1.107s-0.678,0.457-1.112,0.457c-0.428,0-0.795-0.152-1.103-0.457
		S231.991,326.32,231.991,325.887z"/>
	<path d="M236.869,325.887c0-0.428,0.154-0.795,0.461-1.103s0.675-0.462,1.103-0.462c0.434,0,0.804,0.154,1.112,0.462
		s0.461,0.675,0.461,1.103c0,0.434-0.154,0.803-0.461,1.107s-0.678,0.457-1.112,0.457c-0.428,0-0.795-0.152-1.103-0.457
		S236.869,326.32,236.869,325.887z"/>
	<path d="M241.747,325.887c0-0.428,0.154-0.795,0.461-1.103s0.675-0.462,1.103-0.462c0.434,0,0.804,0.154,1.112,0.462
		s0.461,0.675,0.461,1.103c0,0.434-0.154,0.803-0.461,1.107s-0.678,0.457-1.112,0.457c-0.428,0-0.795-0.152-1.103-0.457
		S241.747,326.32,241.747,325.887z"/>
	<path d="M249.419,315.016v4.438c0.686-0.422,1.397-0.633,2.136-0.633c1.195,0,2.169,0.399,2.922,1.197
		c0.753,0.797,1.13,1.83,1.13,3.097c0,1.272-0.362,2.313-1.086,3.123s-1.651,1.214-2.782,1.214c-0.82,0-1.594-0.264-2.32-0.791
		v0.633h-2.61v-12.277H249.419z M249.419,321.15V325c0.527,0.469,1.043,0.703,1.547,0.703c0.621,0,1.109-0.233,1.463-0.699
		s0.532-1.109,0.532-1.93c0-0.797-0.186-1.413-0.558-1.85s-0.863-0.654-1.472-0.654C250.457,320.57,249.953,320.764,249.419,321.15z
		"/>
	<path d="M263.061,327.293v-1.186c-0.768,0.896-1.662,1.344-2.682,1.344c-0.902,0-1.635-0.277-2.197-0.834s-0.844-1.328-0.844-2.313
		v-5.309h2.611v5.127c0,1.053,0.436,1.58,1.309,1.58c0.492,0,0.913-0.191,1.262-0.575s0.523-0.666,0.523-0.847v-5.285h2.627v8.297
		H263.061z"/>
	<path d="M273.791,318.996v1.785h-3.023v3.418c0,0.41,0.113,0.734,0.339,0.972s0.538,0.356,0.937,0.356
		c0.539,0,1.121-0.162,1.748-0.484v1.891c-0.832,0.346-1.637,0.518-2.416,0.518c-1.02,0-1.811-0.264-2.373-0.791
		s-0.844-1.301-0.844-2.32v-3.559h-1.188v-0.51l3.473-3.885h0.324v2.609H273.791z"/>
	<path d="M284.418,318.82c1.301,0,2.403,0.382,3.309,1.145c0.905,0.762,1.357,1.824,1.357,3.185c0,1.366-0.459,2.425-1.379,3.177
		c-0.92,0.75-2.016,1.125-3.287,1.125c-1.377,0-2.504-0.4-3.38-1.201c-0.876-0.8-1.313-1.84-1.313-3.118
		c0-1.302,0.446-2.347,1.34-3.132C281.958,319.214,283.076,318.82,284.418,318.82z M284.418,325.904
		c1.248,0,1.871-0.941,1.871-2.825c0-1.802-0.623-2.702-1.871-2.702c-0.598,0-1.065,0.237-1.402,0.713
		c-0.337,0.475-0.506,1.156-0.506,2.042C282.51,324.98,283.146,325.904,284.418,325.904z"/>
	<path d="M293.443,318.996v1.178c0.768-0.902,1.668-1.354,2.699-1.354c0.861,0,1.58,0.276,2.157,0.828
		c0.577,0.551,0.866,1.34,0.866,2.366v5.278h-2.611v-5.061c0-1.107-0.43-1.662-1.291-1.662c-0.615,0-1.223,0.457-1.82,1.371v5.352
		h-2.609v-8.297H293.443z"/>
	<path d="M309.422,324.719v1.643c-0.996,0.727-2.229,1.09-3.699,1.09c-1.459,0-2.625-0.391-3.498-1.174s-1.311-1.82-1.311-3.11
		c0-1.267,0.41-2.308,1.23-3.123s1.867-1.224,3.139-1.224c1.277,0,2.324,0.43,3.142,1.288s1.2,2.009,1.147,3.45h-5.959
		c0.053,0.752,0.318,1.332,0.799,1.738c0.48,0.405,1.125,0.607,1.934,0.607C307.324,325.904,308.35,325.51,309.422,324.719z
		 M303.666,322.188h3.604c-0.141-1.207-0.742-1.811-1.803-1.811C304.395,320.377,303.795,320.98,303.666,322.188z"/>
	<path d="M323.512,325.025v1.873c-1.02,0.369-1.955,0.553-2.805,0.553c-1.459,0-2.625-0.391-3.498-1.174s-1.309-1.82-1.309-3.11
		c0-1.261,0.44-2.301,1.322-3.118c0.882-0.818,2.006-1.229,3.371-1.229c0.879,0,1.811,0.182,2.795,0.545v1.943
		c-0.721-0.369-1.43-0.555-2.127-0.555c-0.779,0-1.404,0.218-1.873,0.652c-0.469,0.434-0.703,1.016-0.703,1.743
		c0,0.733,0.229,1.325,0.686,1.774s1.059,0.674,1.803,0.674C321.725,325.598,322.504,325.406,323.512,325.025z"/>
	<path d="M333.732,325.246v1.449c-0.867,0.504-1.682,0.756-2.443,0.756c-0.82,0-1.307-0.311-1.459-0.932
		c-0.908,0.621-1.818,0.932-2.732,0.932c-0.645,0-1.193-0.203-1.645-0.611s-0.676-0.882-0.676-1.422
		c0-0.722,0.232-1.305,0.698-1.747c0.466-0.443,1.876-1.015,4.231-1.712c0.059-0.926-0.422-1.389-1.441-1.389
		c-1.107,0-2.127,0.463-3.059,1.389v-2.127c1.09-0.674,2.289-1.012,3.596-1.012c2.344,0,3.516,0.842,3.516,2.525v3.785
		c0,0.387,0.143,0.58,0.43,0.58C332.965,325.711,333.293,325.557,333.732,325.246z M329.707,325.279v-2.012
		c-0.873,0.307-1.472,0.581-1.797,0.825c-0.325,0.243-0.488,0.554-0.488,0.931c0,0.24,0.082,0.447,0.246,0.621
		s0.363,0.26,0.598,0.26C328.758,325.904,329.238,325.696,329.707,325.279z"/>
	<path d="M337.424,318.996v1.178c0.768-0.902,1.668-1.354,2.699-1.354c0.861,0,1.58,0.276,2.157,0.828
		c0.577,0.551,0.866,1.34,0.866,2.366v5.278h-2.611v-5.061c0-1.107-0.43-1.662-1.291-1.662c-0.615,0-1.223,0.457-1.82,1.371v5.352
		h-2.609v-8.297H337.424z"/>
	<path d="M356.014,319.436v1.855c-0.996-0.609-1.92-0.914-2.77-0.914c-0.627,0-0.939,0.213-0.939,0.641
		c0,0.111,0.065,0.222,0.197,0.33c0.133,0.108,0.639,0.338,1.517,0.688s1.499,0.754,1.862,1.211s0.545,0.959,0.545,1.504
		c0,0.863-0.293,1.529-0.879,1.998s-1.42,0.703-2.504,0.703c-1.113,0-2.104-0.201-2.971-0.605v-1.838
		c1.066,0.469,1.959,0.703,2.68,0.703c0.844,0,1.266-0.204,1.266-0.613c0-0.158-0.078-0.307-0.234-0.447
		c-0.155-0.141-0.678-0.385-1.568-0.732c-0.89-0.348-1.498-0.73-1.826-1.146s-0.492-0.881-0.492-1.391
		c0-0.756,0.314-1.372,0.944-1.848c0.63-0.475,1.46-0.713,2.491-0.713C354.322,318.82,355.217,319.025,356.014,319.436z"/>
	<path d="M357.902,316.299c0-0.398,0.141-0.738,0.422-1.02s0.619-0.422,1.012-0.422c0.398,0,0.738,0.141,1.02,0.422
		s0.422,0.621,0.422,1.02c0,0.393-0.141,0.73-0.422,1.015s-0.621,0.427-1.02,0.427c-0.393,0-0.73-0.143-1.012-0.427
		S357.902,316.691,357.902,316.299z M360.654,318.996v8.297h-2.611v-8.297H360.654z"/>
	<path d="M365.531,318.996v1.064c0.886-0.826,1.848-1.24,2.885-1.24c1.426,0,2.422,0.59,2.99,1.768
		c1.004-1.178,2.094-1.768,3.272-1.768c0.956,0,1.735,0.291,2.34,0.871c0.604,0.581,0.905,1.338,0.905,2.271v5.331h-2.609v-4.866
		c0-0.587-0.136-1.043-0.406-1.368c-0.27-0.326-0.646-0.488-1.127-0.488c-0.764,0-1.451,0.469-2.063,1.408v5.314h-2.602v-4.919
		c0-0.581-0.145-1.026-0.435-1.338c-0.29-0.311-0.675-0.466-1.155-0.466c-0.686,0-1.352,0.384-1.996,1.152v5.57h-2.609v-8.297
		H365.531z"/>
	<path d="M382.67,318.996v0.721c0.697-0.598,1.488-0.896,2.373-0.896c1.078,0,1.99,0.408,2.734,1.224s1.115,1.815,1.115,3
		c0,1.331-0.373,2.399-1.12,3.202c-0.747,0.804-1.735,1.205-2.966,1.205c-0.762,0-1.475-0.189-2.137-0.57v4.553h-2.609v-12.438
		H382.67z M382.67,321.344v3.814c0.492,0.363,0.996,0.545,1.512,0.545c0.633,0,1.136-0.228,1.508-0.682s0.559-1.068,0.559-1.842
		c0-0.791-0.172-1.406-0.515-1.846s-0.825-0.658-1.446-0.658C383.766,320.676,383.227,320.898,382.67,321.344z"/>
	<path d="M393.27,315.016v12.277h-2.609v-12.277H393.27z"/>
	<path d="M403.396,318.996l-5.561,12.279h-2.781l2.436-5.338l-3.244-6.941h2.784l1.755,4.274l1.874-4.274H403.396z"/>
	<path d="M416.736,325.025v1.873c-1.02,0.369-1.953,0.553-2.803,0.553c-1.459,0-2.625-0.391-3.498-1.174s-1.311-1.82-1.311-3.11
		c0-1.261,0.441-2.301,1.323-3.118c0.882-0.818,2.005-1.229,3.37-1.229c0.879,0,1.811,0.182,2.795,0.545v1.943
		c-0.721-0.369-1.43-0.555-2.127-0.555c-0.779,0-1.402,0.218-1.871,0.652c-0.469,0.434-0.703,1.016-0.703,1.743
		c0,0.733,0.229,1.325,0.686,1.774s1.057,0.674,1.801,0.674C414.949,325.598,415.729,325.406,416.736,325.025z"/>
	<path d="M421.166,318.996v2.373h0.035c0.756-1.699,1.639-2.549,2.646-2.549c0.48,0,1.057,0.252,1.73,0.756l-0.721,2.313
		c-0.645-0.41-1.16-0.615-1.547-0.615c-0.604,0-1.111,0.373-1.524,1.121c-0.413,0.749-0.62,1.185-0.62,1.308v3.591h-2.609v-8.297
		H421.166z"/>
	<path d="M430.387,318.82c1.301,0,2.403,0.382,3.309,1.145c0.905,0.762,1.357,1.824,1.357,3.185c0,1.366-0.459,2.425-1.379,3.177
		c-0.92,0.75-2.016,1.125-3.287,1.125c-1.377,0-2.504-0.4-3.38-1.201c-0.876-0.8-1.313-1.84-1.313-3.118
		c0-1.302,0.446-2.347,1.34-3.132C427.927,319.214,429.045,318.82,430.387,318.82z M430.387,325.904
		c1.248,0,1.871-0.941,1.871-2.825c0-1.802-0.623-2.702-1.871-2.702c-0.598,0-1.065,0.237-1.402,0.713
		c-0.337,0.475-0.506,1.156-0.506,2.042C428.479,324.98,429.115,325.904,430.387,325.904z"/>
	<path d="M442.506,319.436v1.855c-0.996-0.609-1.918-0.914-2.768-0.914c-0.627,0-0.941,0.213-0.941,0.641
		c0,0.111,0.066,0.222,0.199,0.33c0.132,0.108,0.637,0.338,1.516,0.688s1.5,0.754,1.863,1.211s0.545,0.959,0.545,1.504
		c0,0.863-0.293,1.529-0.879,1.998s-1.422,0.703-2.506,0.703c-1.113,0-2.104-0.201-2.971-0.605v-1.838
		c1.066,0.469,1.961,0.703,2.682,0.703c0.844,0,1.266-0.204,1.266-0.613c0-0.158-0.078-0.307-0.234-0.447s-0.68-0.385-1.569-0.732
		s-1.499-0.73-1.827-1.146s-0.492-0.881-0.492-1.391c0-0.756,0.315-1.372,0.945-1.848c0.63-0.475,1.461-0.713,2.492-0.713
		C440.816,318.82,441.709,319.025,442.506,319.436z"/>
	<path d="M450.188,319.436v1.855c-0.996-0.609-1.918-0.914-2.768-0.914c-0.627,0-0.941,0.213-0.941,0.641
		c0,0.111,0.066,0.222,0.199,0.33c0.132,0.108,0.637,0.338,1.516,0.688s1.5,0.754,1.863,1.211s0.545,0.959,0.545,1.504
		c0,0.863-0.293,1.529-0.879,1.998s-1.422,0.703-2.506,0.703c-1.113,0-2.104-0.201-2.971-0.605v-1.838
		c1.066,0.469,1.961,0.703,2.682,0.703c0.844,0,1.266-0.204,1.266-0.613c0-0.158-0.078-0.307-0.234-0.447s-0.68-0.385-1.569-0.732
		s-1.499-0.73-1.827-1.146s-0.492-0.881-0.492-1.391c0-0.756,0.315-1.372,0.945-1.848c0.63-0.475,1.461-0.713,2.492-0.713
		C448.498,318.82,449.391,319.025,450.188,319.436z"/>
	<path d="M463.125,318.996v1.785h-3.023v3.418c0,0.41,0.113,0.734,0.339,0.972s0.538,0.356,0.937,0.356
		c0.539,0,1.121-0.162,1.748-0.484v1.891c-0.832,0.346-1.637,0.518-2.416,0.518c-1.02,0-1.811-0.264-2.373-0.791
		s-0.844-1.301-0.844-2.32v-3.559h-1.188v-0.51l3.473-3.885h0.324v2.609H463.125z"/>
	<path d="M467.115,315.016v5.193h0.035c0.727-0.926,1.604-1.389,2.629-1.389c0.885,0,1.612,0.281,2.184,0.841
		s0.857,1.339,0.857,2.336v5.296h-2.611v-4.743c0-1.208-0.447-1.813-1.344-1.813c-0.592,0-1.176,0.42-1.75,1.259v5.298h-2.609
		v-12.277H467.115z"/>
	<path d="M483.059,324.719v1.643c-0.996,0.727-2.229,1.09-3.699,1.09c-1.459,0-2.625-0.391-3.498-1.174s-1.311-1.82-1.311-3.11
		c0-1.267,0.41-2.308,1.23-3.123s1.867-1.224,3.139-1.224c1.277,0,2.324,0.43,3.142,1.288s1.2,2.009,1.147,3.45h-5.959
		c0.053,0.752,0.318,1.332,0.799,1.738c0.48,0.405,1.125,0.607,1.934,0.607C480.961,325.904,481.986,325.51,483.059,324.719z
		 M477.303,322.188h3.604c-0.141-1.207-0.742-1.811-1.803-1.811C478.031,320.377,477.432,320.98,477.303,322.188z"/>
	<path d="M234.786,336.615v4.438c0.686-0.422,1.397-0.633,2.136-0.633c1.195,0,2.169,0.399,2.922,1.196
		c0.753,0.798,1.129,1.83,1.129,3.098c0,1.272-0.362,2.313-1.085,3.123c-0.724,0.809-1.651,1.214-2.782,1.214
		c-0.82,0-1.594-0.264-2.32-0.791v0.633h-2.61v-12.278H234.786z M234.786,342.75v3.85c0.527,0.469,1.043,0.703,1.547,0.703
		c0.621,0,1.109-0.232,1.463-0.699c0.354-0.465,0.532-1.108,0.532-1.929c0-0.797-0.186-1.413-0.558-1.851
		c-0.372-0.436-0.863-0.654-1.472-0.654C235.823,342.17,235.319,342.363,234.786,342.75z"/>
	<path d="M246.985,340.421c1.301,0,2.404,0.382,3.309,1.144c0.905,0.763,1.358,1.824,1.358,3.186c0,1.366-0.46,2.425-1.38,3.176
		c-0.92,0.75-2.016,1.126-3.287,1.126c-1.377,0-2.503-0.4-3.379-1.201c-0.876-0.8-1.314-1.84-1.314-3.118
		c0-1.303,0.447-2.347,1.34-3.133C244.525,340.814,245.643,340.421,246.985,340.421z M246.985,347.505
		c1.248,0,1.872-0.942,1.872-2.825c0-1.803-0.624-2.703-1.872-2.703c-0.598,0-1.065,0.238-1.402,0.713
		c-0.337,0.476-0.505,1.156-0.505,2.043C245.078,346.58,245.713,347.505,246.985,347.505z"/>
	<path d="M256.082,340.597v2.373h0.035c0.756-1.699,1.637-2.549,2.645-2.549c0.48,0,1.059,0.252,1.732,0.756l-0.721,2.312
		c-0.645-0.41-1.16-0.615-1.547-0.615c-0.604,0-1.112,0.374-1.525,1.122c-0.413,0.749-0.619,1.185-0.619,1.308v3.591h-2.611v-8.297
		H256.082z"/>
	<path d="M269.547,336.615v12.278h-2.611v-0.668c-0.668,0.551-1.436,0.826-2.303,0.826c-1.107,0-2.031-0.411-2.772-1.231
		c-0.741-0.821-1.112-1.851-1.112-3.088c0-1.268,0.377-2.303,1.13-3.105c0.753-0.805,1.718-1.206,2.896-1.206
		c0.732,0,1.453,0.176,2.162,0.527v-4.333H269.547z M266.936,346.617v-3.964c-0.475-0.322-0.961-0.483-1.459-0.483
		c-0.656,0-1.167,0.229-1.533,0.686s-0.549,1.099-0.549,1.925c0,0.762,0.182,1.372,0.545,1.833c0.363,0.459,0.846,0.689,1.449,0.689
		C265.922,347.303,266.438,347.074,266.936,346.617z"/>
	<path d="M279.785,346.318v1.644c-0.996,0.727-2.229,1.09-3.699,1.09c-1.459,0-2.625-0.392-3.498-1.175s-1.311-1.819-1.311-3.109
		c0-1.268,0.41-2.309,1.23-3.123c0.82-0.816,1.867-1.224,3.139-1.224c1.277,0,2.324,0.429,3.142,1.288
		c0.817,0.857,1.2,2.008,1.147,3.449h-5.959c0.053,0.753,0.318,1.332,0.799,1.738s1.125,0.608,1.934,0.608
		C277.688,347.505,278.713,347.109,279.785,346.318z M274.029,343.787h3.604c-0.141-1.207-0.742-1.811-1.803-1.811
		C274.758,341.977,274.158,342.58,274.029,343.787z"/>
	<path d="M284.303,340.597v2.373h0.035c0.756-1.699,1.639-2.549,2.646-2.549c0.48,0,1.057,0.252,1.73,0.756l-0.721,2.312
		c-0.645-0.41-1.16-0.615-1.547-0.615c-0.604,0-1.111,0.374-1.524,1.122c-0.413,0.749-0.62,1.185-0.62,1.308v3.591h-2.609v-8.297
		H284.303z"/>
	<path d="M300.65,340.597v1.784h-3.023v3.419c0,0.41,0.113,0.733,0.339,0.972c0.226,0.236,0.538,0.355,0.937,0.355
		c0.539,0,1.121-0.161,1.748-0.483v1.89c-0.832,0.346-1.637,0.519-2.416,0.519c-1.02,0-1.811-0.264-2.373-0.791
		s-0.844-1.301-0.844-2.32v-3.56h-1.188v-0.51l3.473-3.885h0.324v2.61H300.65z"/>
	<path d="M306.275,340.421c1.301,0,2.404,0.382,3.31,1.144c0.905,0.763,1.358,1.824,1.358,3.186c0,1.366-0.461,2.425-1.381,3.176
		c-0.92,0.75-2.016,1.126-3.287,1.126c-1.377,0-2.503-0.4-3.379-1.201c-0.876-0.8-1.314-1.84-1.314-3.118
		c0-1.303,0.447-2.347,1.341-3.133C303.816,340.814,304.934,340.421,306.275,340.421z M306.275,347.505
		c1.248,0,1.873-0.942,1.873-2.825c0-1.803-0.625-2.703-1.873-2.703c-0.598,0-1.064,0.238-1.401,0.713
		c-0.337,0.476-0.505,1.156-0.505,2.043C304.369,346.58,305.004,347.505,306.275,347.505z"/>
	<path d="M321.146,336.615v12.278h-3.059v-12.278H321.146z"/>
	<path d="M326.297,340.597v1.178c0.768-0.902,1.668-1.354,2.699-1.354c0.861,0,1.58,0.276,2.157,0.827s0.866,1.34,0.866,2.367v5.278
		h-2.611v-5.061c0-1.108-0.43-1.663-1.291-1.663c-0.615,0-1.223,0.457-1.82,1.371v5.353h-2.609v-8.297H326.297z"/>
	<path d="M342.531,336.615v12.278h-2.611v-0.668c-0.668,0.551-1.436,0.826-2.303,0.826c-1.107,0-2.031-0.411-2.772-1.231
		c-0.741-0.821-1.112-1.851-1.112-3.088c0-1.268,0.377-2.303,1.13-3.105c0.753-0.805,1.718-1.206,2.896-1.206
		c0.732,0,1.453,0.176,2.162,0.527v-4.333H342.531z M339.92,346.617v-3.964c-0.475-0.322-0.961-0.483-1.459-0.483
		c-0.656,0-1.167,0.229-1.533,0.686s-0.549,1.099-0.549,1.925c0,0.762,0.182,1.372,0.545,1.833c0.363,0.459,0.846,0.689,1.449,0.689
		C338.906,347.303,339.422,347.074,339.92,346.617z"/>
	<path d="M344.588,337.898c0-0.398,0.141-0.738,0.422-1.02s0.617-0.422,1.01-0.422c0.398,0,0.738,0.141,1.02,0.422
		s0.422,0.621,0.422,1.02c0,0.393-0.141,0.73-0.422,1.016c-0.281,0.283-0.621,0.426-1.02,0.426c-0.393,0-0.729-0.143-1.01-0.426
		C344.729,338.629,344.588,338.291,344.588,337.898z M347.338,340.597v8.297h-2.609v-8.297H347.338z"/>
	<path d="M358.025,346.846v1.45c-0.867,0.504-1.682,0.756-2.443,0.756c-0.82,0-1.307-0.311-1.459-0.932
		c-0.908,0.621-1.818,0.932-2.732,0.932c-0.645,0-1.193-0.204-1.645-0.612c-0.451-0.407-0.676-0.881-0.676-1.422
		c0-0.721,0.232-1.304,0.698-1.746c0.466-0.443,1.876-1.015,4.231-1.713c0.059-0.926-0.422-1.389-1.441-1.389
		c-1.107,0-2.127,0.463-3.059,1.389v-2.127c1.09-0.674,2.289-1.011,3.596-1.011c2.344,0,3.516,0.842,3.516,2.525v3.784
		c0,0.388,0.143,0.581,0.43,0.581C357.258,347.312,357.586,347.156,358.025,346.846z M354,346.879v-2.011
		c-0.873,0.306-1.472,0.581-1.797,0.825c-0.325,0.243-0.488,0.553-0.488,0.93c0,0.241,0.082,0.448,0.246,0.621
		c0.164,0.174,0.363,0.261,0.598,0.261C353.051,347.505,353.531,347.297,354,346.879z"/>
	<path d="M361.717,340.597v1.178c0.768-0.902,1.668-1.354,2.699-1.354c0.861,0,1.58,0.276,2.157,0.827s0.866,1.34,0.866,2.367v5.278
		h-2.611v-5.061c0-1.108-0.43-1.663-1.291-1.663c-0.615,0-1.223,0.457-1.82,1.371v5.353h-2.609v-8.297H361.717z"/>
	<path d="M378.074,346.846v1.45c-0.867,0.504-1.682,0.756-2.443,0.756c-0.82,0-1.307-0.311-1.459-0.932
		c-0.908,0.621-1.82,0.932-2.734,0.932c-0.645,0-1.191-0.204-1.643-0.612c-0.451-0.407-0.678-0.881-0.678-1.422
		c0-0.721,0.233-1.304,0.699-1.746c0.466-0.443,1.877-1.015,4.232-1.713c0.059-0.926-0.422-1.389-1.441-1.389
		c-1.107,0-2.127,0.463-3.059,1.389v-2.127c1.09-0.674,2.287-1.011,3.594-1.011c2.344,0,3.516,0.842,3.516,2.525v3.784
		c0,0.388,0.145,0.581,0.432,0.581C377.307,347.312,377.635,347.156,378.074,346.846z M374.049,346.879v-2.011
		c-0.873,0.306-1.473,0.581-1.798,0.825c-0.325,0.243-0.487,0.553-0.487,0.93c0,0.241,0.082,0.448,0.246,0.621
		c0.164,0.174,0.363,0.261,0.598,0.261C373.1,347.505,373.58,347.297,374.049,346.879z"/>
	<path d="M378.971,351.935v-0.554c0.557-0.533,0.834-1.21,0.834-2.03c0-0.1-0.006-0.199-0.018-0.299
		c-0.615-0.234-0.922-0.671-0.922-1.31c0-0.41,0.141-0.75,0.422-1.02s0.633-0.404,1.055-0.404c0.527,0,0.959,0.191,1.296,0.576
		c0.337,0.383,0.505,0.877,0.505,1.48c0,0.867-0.297,1.649-0.892,2.347S379.896,351.823,378.971,351.935z"/>
	<path d="M393.195,344.534l-2.098,4.518h-1.212l-3.753-8.455h2.664l1.753,4.57l1.854-4.57h1.581l1.839,4.57l1.746-4.57h2.671
		l-3.738,8.455h-1.243L393.195,344.534z"/>
	<path d="M403.932,336.615v5.194h0.035c0.727-0.926,1.602-1.389,2.627-1.389c0.885,0,1.613,0.28,2.185,0.841
		c0.571,0.56,0.856,1.338,0.856,2.336v5.296h-2.609v-4.743c0-1.209-0.449-1.813-1.346-1.813c-0.592,0-1.174,0.419-1.748,1.259v5.298
		h-2.611v-12.278H403.932z"/>
	<path d="M411.691,337.898c0-0.398,0.141-0.738,0.422-1.02s0.619-0.422,1.012-0.422c0.398,0,0.738,0.141,1.02,0.422
		s0.422,0.621,0.422,1.02c0,0.393-0.141,0.73-0.422,1.016c-0.281,0.283-0.621,0.426-1.02,0.426c-0.393,0-0.73-0.143-1.012-0.426
		C411.832,338.629,411.691,338.291,411.691,337.898z M414.443,340.597v8.297h-2.611v-8.297H414.443z"/>
	<path d="M423.908,346.626v1.872c-1.02,0.369-1.953,0.554-2.803,0.554c-1.459,0-2.625-0.392-3.498-1.175s-1.311-1.819-1.311-3.109
		c0-1.262,0.441-2.301,1.323-3.119s2.005-1.228,3.37-1.228c0.879,0,1.811,0.182,2.795,0.545v1.942
		c-0.721-0.369-1.43-0.554-2.127-0.554c-0.779,0-1.402,0.218-1.871,0.651c-0.469,0.435-0.703,1.016-0.703,1.744
		c0,0.733,0.229,1.324,0.686,1.773s1.057,0.674,1.801,0.674C422.121,347.197,422.9,347.007,423.908,346.626z"/>
	<path d="M428.303,336.615v5.194h0.035c0.727-0.926,1.604-1.389,2.629-1.389c0.885,0,1.612,0.28,2.184,0.841
		c0.571,0.56,0.857,1.338,0.857,2.336v5.296h-2.611v-4.743c0-1.209-0.447-1.813-1.344-1.813c-0.592,0-1.176,0.419-1.75,1.259v5.298
		h-2.609v-12.278H428.303z"/>
	<path d="M443.799,336.615v5.194h0.035c0.727-0.926,1.602-1.389,2.627-1.389c0.885,0,1.613,0.28,2.185,0.841
		c0.571,0.56,0.856,1.338,0.856,2.336v5.296h-2.609v-4.743c0-1.209-0.449-1.813-1.346-1.813c-0.592,0-1.174,0.419-1.748,1.259v5.298
		h-2.611v-12.278H443.799z"/>
	<path d="M460.119,346.846v1.45c-0.867,0.504-1.682,0.756-2.443,0.756c-0.82,0-1.307-0.311-1.459-0.932
		c-0.908,0.621-1.818,0.932-2.732,0.932c-0.645,0-1.193-0.204-1.645-0.612c-0.451-0.407-0.676-0.881-0.676-1.422
		c0-0.721,0.232-1.304,0.698-1.746c0.466-0.443,1.876-1.015,4.231-1.713c0.059-0.926-0.422-1.389-1.441-1.389
		c-1.107,0-2.127,0.463-3.059,1.389v-2.127c1.09-0.674,2.289-1.011,3.596-1.011c2.344,0,3.516,0.842,3.516,2.525v3.784
		c0,0.388,0.143,0.581,0.43,0.581C459.352,347.312,459.68,347.156,460.119,346.846z M456.094,346.879v-2.011
		c-0.873,0.306-1.472,0.581-1.797,0.825c-0.325,0.243-0.488,0.553-0.488,0.93c0,0.241,0.082,0.448,0.246,0.621
		c0.164,0.174,0.363,0.261,0.598,0.261C455.145,347.505,455.625,347.297,456.094,346.879z"/>
	<path d="M466.904,341.036v1.854c-0.996-0.609-1.918-0.914-2.768-0.914c-0.627,0-0.941,0.214-0.941,0.642
		c0,0.111,0.066,0.222,0.199,0.329c0.132,0.109,0.637,0.338,1.516,0.688c0.879,0.351,1.5,0.754,1.863,1.211
		c0.363,0.458,0.545,0.959,0.545,1.505c0,0.862-0.293,1.528-0.879,1.997c-0.586,0.47-1.422,0.704-2.506,0.704
		c-1.113,0-2.104-0.202-2.971-0.606v-1.837c1.066,0.469,1.961,0.703,2.682,0.703c0.844,0,1.266-0.204,1.266-0.614
		c0-0.157-0.078-0.307-0.234-0.446c-0.156-0.141-0.68-0.385-1.569-0.733c-0.89-0.348-1.499-0.73-1.827-1.146
		s-0.492-0.88-0.492-1.391c0-0.756,0.315-1.371,0.945-1.847s1.461-0.713,2.492-0.713
		C465.215,340.421,466.107,340.626,466.904,341.036z"/>
	<path d="M476.547,336.615v12.278h-2.611v-12.278H476.547z"/>
	<path d="M487.234,346.846v1.45c-0.867,0.504-1.682,0.756-2.443,0.756c-0.82,0-1.307-0.311-1.459-0.932
		c-0.908,0.621-1.82,0.932-2.734,0.932c-0.645,0-1.191-0.204-1.643-0.612c-0.451-0.407-0.678-0.881-0.678-1.422
		c0-0.721,0.233-1.304,0.699-1.746c0.466-0.443,1.877-1.015,4.232-1.713c0.059-0.926-0.422-1.389-1.441-1.389
		c-1.107,0-2.127,0.463-3.059,1.389v-2.127c1.09-0.674,2.287-1.011,3.594-1.011c2.344,0,3.516,0.842,3.516,2.525v3.784
		c0,0.388,0.145,0.581,0.432,0.581C486.467,347.312,486.795,347.156,487.234,346.846z M483.209,346.879v-2.011
		c-0.873,0.306-1.473,0.581-1.798,0.825c-0.325,0.243-0.487,0.553-0.487,0.93c0,0.241,0.082,0.448,0.246,0.621
		c0.164,0.174,0.363,0.261,0.598,0.261C482.26,347.505,482.74,347.297,483.209,346.879z"/>
	<path d="M496.867,340.597l-3.271,4.055l3.518,4.242h-3.031l-1.953-2.571l-1.885,2.571h-2.939l3.385-4.235l-3.385-4.062h3.043
		l1.783,2.397l1.695-2.397H496.867z"/>
	<path d="M511.703,340.597v1.749h-1.188c0.275,0.469,0.414,0.929,0.414,1.38c0,0.645-0.24,1.239-0.721,1.784
		s-1.191,0.869-2.133,0.971c-0.939,0.104-1.473,0.199-1.6,0.291c-0.125,0.09-0.188,0.209-0.188,0.355s0.082,0.266,0.246,0.355
		c0.164,0.092,0.809,0.186,1.938,0.281c1.127,0.098,1.912,0.393,2.355,0.889c0.441,0.494,0.664,1.026,0.664,1.595
		c0,0.908-0.377,1.6-1.131,2.074c-0.752,0.475-1.84,0.712-3.264,0.712c-1.453,0-2.555-0.22-3.305-0.659s-1.125-1.022-1.125-1.749
		c0-1.008,0.738-1.711,2.215-2.109c-0.668-0.199-1.002-0.56-1.002-1.081c0-0.609,0.504-1.028,1.512-1.257
		c-0.674-0.117-1.23-0.41-1.67-0.879s-0.66-1.028-0.66-1.679c0-0.797,0.316-1.5,0.949-2.109s1.553-0.914,2.76-0.914H511.703z
		 M507.221,351.486c0.557,0,1.008-0.103,1.354-0.308s0.518-0.451,0.518-0.738c0-0.609-0.676-0.914-2.029-0.914
		c-0.615,0-1.1,0.089-1.451,0.269c-0.352,0.178-0.527,0.417-0.527,0.716C505.084,351.161,505.797,351.486,507.221,351.486z
		 M507.004,342.144c-0.426,0-0.783,0.146-1.072,0.439s-0.434,0.65-0.434,1.072c0,0.404,0.148,0.755,0.447,1.05
		c0.297,0.297,0.65,0.444,1.059,0.444c0.41,0,0.76-0.155,1.053-0.466c0.291-0.311,0.438-0.683,0.438-1.116
		c0-0.393-0.141-0.728-0.424-1.007C507.787,342.283,507.432,342.144,507.004,342.144z"/>
	<path d="M518.725,348.894v-1.187c-0.768,0.896-1.66,1.345-2.68,1.345c-0.902,0-1.635-0.278-2.197-0.835s-0.844-1.327-0.844-2.312
		v-5.309h2.609v5.126c0,1.053,0.438,1.58,1.311,1.58c0.492,0,0.912-0.191,1.26-0.574c0.35-0.384,0.523-0.666,0.523-0.848v-5.284
		h2.629v8.297H518.725z"/>
	<path d="M526.107,340.597v1.178c0.768-0.902,1.668-1.354,2.699-1.354c0.861,0,1.58,0.276,2.156,0.827
		c0.578,0.551,0.867,1.34,0.867,2.367v5.278h-2.611v-5.061c0-1.108-0.43-1.663-1.291-1.663c-0.615,0-1.223,0.457-1.82,1.371v5.353
		h-2.609v-8.297H526.107z"/>
	<path d="M234.874,358.215v12.279h-2.61v-12.279H234.874z"/>
	<path d="M245.561,368.445v1.451c-0.867,0.504-1.682,0.756-2.443,0.756c-0.82,0-1.307-0.311-1.459-0.932
		c-0.908,0.621-1.819,0.932-2.733,0.932c-0.645,0-1.192-0.205-1.644-0.612s-0.677-0.882-0.677-1.422
		c0-0.722,0.233-1.304,0.699-1.747s1.876-1.014,4.232-1.713c0.059-0.926-0.422-1.389-1.441-1.389c-1.107,0-2.127,0.463-3.059,1.389
		v-2.127c1.09-0.674,2.288-1.01,3.595-1.01c2.344,0,3.516,0.842,3.516,2.525v3.784c0,0.388,0.144,0.581,0.431,0.581
		C244.793,368.912,245.122,368.756,245.561,368.445z M241.536,368.479v-2.01c-0.873,0.305-1.472,0.58-1.797,0.824
		s-0.488,0.554-0.488,0.93c0,0.242,0.082,0.449,0.246,0.622c0.164,0.174,0.363,0.261,0.598,0.261
		C240.586,369.105,241.067,368.896,241.536,368.479z"/>
	<path d="M251.973,366.135l-2.098,4.518h-1.212l-3.752-8.455h2.663l1.753,4.57l1.854-4.57h1.582l1.838,4.57l1.746-4.57h2.671
		l-3.738,8.455h-1.243L251.973,366.135z"/>
	<path d="M265.768,362.637v1.854c-0.996-0.609-1.92-0.914-2.77-0.914c-0.627,0-0.939,0.215-0.939,0.643
		c0,0.111,0.065,0.221,0.197,0.329c0.133,0.108,0.639,0.337,1.517,0.688s1.499,0.753,1.862,1.211s0.545,0.959,0.545,1.505
		c0,0.861-0.293,1.527-0.879,1.997s-1.42,0.704-2.504,0.704c-1.113,0-2.104-0.203-2.971-0.607v-1.836
		c1.066,0.469,1.959,0.703,2.68,0.703c0.844,0,1.266-0.205,1.266-0.614c0-0.157-0.078-0.307-0.234-0.446
		c-0.155-0.141-0.678-0.385-1.568-0.733c-0.89-0.349-1.498-0.73-1.826-1.147c-0.328-0.416-0.492-0.879-0.492-1.39
		c0-0.757,0.314-1.372,0.944-1.847c0.63-0.476,1.46-0.713,2.491-0.713C264.076,362.021,264.971,362.227,265.768,362.637z"/>
	<path d="M267.561,373.535v-0.555c0.557-0.533,0.834-1.209,0.834-2.029c0-0.1-0.006-0.199-0.018-0.299
		c-0.615-0.234-0.922-0.672-0.922-1.311c0-0.41,0.141-0.75,0.422-1.02s0.633-0.404,1.055-0.404c0.527,0,0.959,0.192,1.296,0.576
		s0.505,0.877,0.505,1.48c0,0.867-0.297,1.65-0.892,2.348S268.486,373.424,267.561,373.535z"/>
	<path d="M281.781,362.197v1.783h-3.023v3.42c0,0.41,0.112,0.733,0.338,0.971s0.537,0.355,0.936,0.355
		c0.539,0,1.123-0.16,1.75-0.482v1.889c-0.832,0.346-1.639,0.52-2.418,0.52c-1.02,0-1.811-0.264-2.373-0.791
		s-0.844-1.301-0.844-2.32v-3.561h-1.186v-0.51l3.471-3.885h0.326v2.611H281.781z"/>
	<path d="M287.406,362.021c1.301,0,2.403,0.381,3.309,1.144s1.357,1.823,1.357,3.185c0,1.367-0.459,2.426-1.379,3.176
		c-0.92,0.751-2.016,1.127-3.287,1.127c-1.377,0-2.504-0.4-3.38-1.201s-1.313-1.84-1.313-3.119c0-1.303,0.446-2.346,1.34-3.132
		S286.064,362.021,287.406,362.021z M287.406,369.105c1.248,0,1.871-0.942,1.871-2.826c0-1.802-0.623-2.703-1.871-2.703
		c-0.598,0-1.065,0.238-1.402,0.714s-0.506,1.155-0.506,2.042C285.498,368.181,286.135,369.105,287.406,369.105z"/>
	<path d="M301.381,362.197v0.721c0.697-0.598,1.488-0.896,2.373-0.896c1.078,0,1.988,0.407,2.732,1.223
		c0.744,0.814,1.117,1.814,1.117,3c0,1.332-0.374,2.398-1.121,3.202s-1.736,1.206-2.967,1.206c-0.762,0-1.473-0.191-2.135-0.572
		v4.553h-2.611v-12.436H301.381z M301.381,364.543v3.814c0.492,0.363,0.996,0.545,1.512,0.545c0.633,0,1.135-0.227,1.507-0.681
		s0.558-1.067,0.558-1.841c0-0.791-0.171-1.406-0.514-1.846s-0.824-0.66-1.445-0.66
		C302.477,363.875,301.938,364.098,301.381,364.543z"/>
	<path d="M315.039,370.494v-1.188c-0.768,0.896-1.662,1.346-2.682,1.346c-0.902,0-1.635-0.279-2.197-0.836s-0.844-1.326-0.844-2.311
		v-5.309h2.611v5.125c0,1.054,0.436,1.58,1.309,1.58c0.492,0,0.913-0.191,1.262-0.574s0.523-0.666,0.523-0.848v-5.283h2.627v8.297
		H315.039z"/>
	<path d="M322.492,362.197v2.373h0.035c0.756-1.699,1.637-2.549,2.645-2.549c0.48,0,1.059,0.252,1.732,0.756l-0.721,2.311
		c-0.645-0.41-1.16-0.615-1.547-0.615c-0.604,0-1.112,0.375-1.525,1.123s-0.619,1.184-0.619,1.307v3.592h-2.611v-8.297H322.492z"/>
	<path d="M334.682,368.227v1.871c-1.02,0.369-1.953,0.555-2.803,0.555c-1.459,0-2.625-0.393-3.498-1.175
		c-0.873-0.783-1.311-1.819-1.311-3.11c0-1.261,0.441-2.301,1.323-3.119s2.005-1.227,3.37-1.227c0.879,0,1.811,0.182,2.795,0.545
		v1.941c-0.721-0.369-1.43-0.553-2.127-0.553c-0.779,0-1.402,0.217-1.871,0.651s-0.703,1.015-0.703,1.743
		c0,0.734,0.229,1.325,0.686,1.773c0.457,0.449,1.057,0.674,1.801,0.674C332.895,368.797,333.674,368.607,334.682,368.227z"/>
	<path d="M339.076,358.215v5.195h0.035c0.727-0.926,1.604-1.389,2.629-1.389c0.885,0,1.612,0.279,2.184,0.84
		s0.857,1.339,0.857,2.336v5.297h-2.611v-4.744c0-1.209-0.447-1.813-1.344-1.813c-0.592,0-1.176,0.419-1.75,1.258v5.299h-2.609
		v-12.279H339.076z"/>
	<path d="M355.398,368.445v1.451c-0.867,0.504-1.682,0.756-2.443,0.756c-0.82,0-1.307-0.311-1.459-0.932
		c-0.908,0.621-1.82,0.932-2.734,0.932c-0.645,0-1.191-0.205-1.643-0.612s-0.678-0.882-0.678-1.422c0-0.722,0.233-1.304,0.699-1.747
		s1.877-1.014,4.232-1.713c0.059-0.926-0.422-1.389-1.441-1.389c-1.107,0-2.127,0.463-3.059,1.389v-2.127
		c1.09-0.674,2.287-1.01,3.594-1.01c2.344,0,3.516,0.842,3.516,2.525v3.784c0,0.388,0.145,0.581,0.432,0.581
		C354.631,368.912,354.959,368.756,355.398,368.445z M351.373,368.479v-2.01c-0.873,0.305-1.473,0.58-1.798,0.824
		s-0.487,0.554-0.487,0.93c0,0.242,0.082,0.449,0.246,0.622c0.164,0.174,0.363,0.261,0.598,0.261
		C350.424,369.105,350.904,368.896,351.373,368.479z"/>
	<path d="M362.184,362.637v1.854c-0.996-0.609-1.92-0.914-2.77-0.914c-0.627,0-0.939,0.215-0.939,0.643
		c0,0.111,0.065,0.221,0.197,0.329c0.133,0.108,0.639,0.337,1.517,0.688s1.499,0.753,1.862,1.211s0.545,0.959,0.545,1.505
		c0,0.861-0.293,1.527-0.879,1.997s-1.42,0.704-2.504,0.704c-1.113,0-2.104-0.203-2.971-0.607v-1.836
		c1.066,0.469,1.959,0.703,2.68,0.703c0.844,0,1.266-0.205,1.266-0.614c0-0.157-0.078-0.307-0.234-0.446
		c-0.155-0.141-0.678-0.385-1.568-0.733c-0.89-0.349-1.498-0.73-1.826-1.147c-0.328-0.416-0.492-0.879-0.492-1.39
		c0-0.757,0.314-1.372,0.944-1.847c0.63-0.476,1.46-0.713,2.491-0.713C360.492,362.021,361.387,362.227,362.184,362.637z"/>
	<path d="M372.256,367.918v1.645c-0.996,0.727-2.23,1.09-3.701,1.09c-1.459,0-2.625-0.393-3.498-1.175
		c-0.873-0.783-1.309-1.819-1.309-3.11c0-1.268,0.41-2.309,1.23-3.123c0.82-0.815,1.865-1.223,3.137-1.223
		c1.277,0,2.325,0.429,3.143,1.287s1.199,2.008,1.146,3.449h-5.959c0.053,0.754,0.32,1.332,0.801,1.738s1.125,0.609,1.934,0.609
		C370.158,369.105,371.184,368.709,372.256,367.918z M366.498,365.387h3.604c-0.141-1.207-0.74-1.811-1.801-1.811
		C367.229,363.576,366.627,364.18,366.498,365.387z"/>
	<path d="M387.566,368.445v1.451c-0.867,0.504-1.682,0.756-2.443,0.756c-0.82,0-1.307-0.311-1.459-0.932
		c-0.908,0.621-1.82,0.932-2.734,0.932c-0.645,0-1.191-0.205-1.643-0.612s-0.678-0.882-0.678-1.422c0-0.722,0.233-1.304,0.699-1.747
		s1.877-1.014,4.232-1.713c0.059-0.926-0.422-1.389-1.441-1.389c-1.107,0-2.127,0.463-3.059,1.389v-2.127
		c1.09-0.674,2.287-1.01,3.594-1.01c2.344,0,3.516,0.842,3.516,2.525v3.784c0,0.388,0.145,0.581,0.432,0.581
		C386.799,368.912,387.127,368.756,387.566,368.445z M383.541,368.479v-2.01c-0.873,0.305-1.473,0.58-1.798,0.824
		s-0.487,0.554-0.487,0.93c0,0.242,0.082,0.449,0.246,0.622c0.164,0.174,0.363,0.261,0.598,0.261
		C382.592,369.105,383.072,368.896,383.541,368.479z"/>
	<path d="M402.104,362.197v1.748h-1.188c0.275,0.469,0.414,0.93,0.414,1.381c0,0.645-0.24,1.238-0.721,1.783
		s-1.191,0.869-2.132,0.972s-1.474,0.199-1.6,0.29s-0.188,0.209-0.188,0.355s0.082,0.266,0.246,0.356s0.81,0.185,1.938,0.281
		s1.913,0.393,2.355,0.888s0.664,1.027,0.664,1.596c0,0.908-0.377,1.6-1.13,2.074s-1.841,0.711-3.265,0.711
		c-1.453,0-2.555-0.219-3.305-0.658s-1.125-1.023-1.125-1.75c0-1.008,0.738-1.711,2.215-2.109c-0.668-0.199-1.002-0.559-1.002-1.08
		c0-0.609,0.504-1.029,1.512-1.258c-0.674-0.117-1.23-0.41-1.67-0.879s-0.66-1.027-0.66-1.678c0-0.797,0.316-1.5,0.949-2.109
		s1.553-0.914,2.76-0.914H402.104z M397.621,373.086c0.557,0,1.008-0.102,1.354-0.307s0.518-0.451,0.518-0.738
		c0-0.609-0.676-0.914-2.029-0.914c-0.615,0-1.1,0.089-1.451,0.268s-0.527,0.418-0.527,0.717
		C395.484,372.762,396.197,373.086,397.621,373.086z M397.405,363.744c-0.427,0-0.784,0.146-1.073,0.439s-0.434,0.65-0.434,1.072
		c0,0.404,0.148,0.754,0.446,1.05s0.651,0.444,1.061,0.444s0.759-0.156,1.052-0.467c0.292-0.311,0.438-0.682,0.438-1.115
		c0-0.393-0.141-0.729-0.424-1.007C398.187,363.883,397.832,363.744,397.405,363.744z"/>
	<path d="M409.125,370.494v-1.188c-0.768,0.896-1.66,1.346-2.68,1.346c-0.902,0-1.635-0.279-2.197-0.836s-0.844-1.326-0.844-2.311
		v-5.309h2.609v5.125c0,1.054,0.438,1.58,1.311,1.58c0.492,0,0.912-0.191,1.261-0.574s0.522-0.666,0.522-0.848v-5.283h2.629v8.297
		H409.125z"/>
	<path d="M416.508,362.197v1.178c0.768-0.902,1.668-1.354,2.699-1.354c0.861,0,1.58,0.275,2.157,0.826
		c0.577,0.552,0.866,1.341,0.866,2.367v5.279h-2.611v-5.061c0-1.109-0.43-1.664-1.291-1.664c-0.615,0-1.223,0.457-1.82,1.371v5.354
		h-2.609v-8.297H416.508z"/>
	<path d="M424.172,369.088c0-0.428,0.154-0.796,0.462-1.104s0.675-0.461,1.103-0.461c0.434,0,0.805,0.153,1.112,0.461
		s0.462,0.676,0.462,1.104c0,0.434-0.154,0.803-0.462,1.107s-0.679,0.457-1.112,0.457c-0.428,0-0.795-0.152-1.103-0.457
		S424.172,369.521,424.172,369.088z"/>
</g>
</svg>
