<?xml version="1.0" encoding="utf-8"?>
<!-- Generator: Adobe Illustrator 16.0.0, SVG Export Plug-In . SVG Version: 6.00 Build 0)  -->
<!DOCTYPE svg PUBLIC "-//W3C//DTD SVG 1.1//EN" "http://www.w3.org/Graphics/SVG/1.1/DTD/svg11.dtd">
<svg version="1.1" id="Layer_1" xmlns="http://www.w3.org/2000/svg" xmlns:xlink="http://www.w3.org/1999/xlink" x="0px" y="0px"
	 width="342.405px" height="472.152px" viewBox="0 0 342.405 472.152" enable-background="new 0 0 342.405 472.152"
	 xml:space="preserve">
<path fill="#00FF00" stroke="#00FF00" stroke-miterlimit="10" d="M69.796,73.813c-8.67-34.272-2.876-49.698,1.775-52.498
	c4.651-2.801,19.021-7.549,19.021-7.549l6.492,25.35l-15.522,3.88l15.085,58.901l15.102-3.868l6.805,24.915
	c0,0-15.262,2.886-22.199,3.052C89.418,126.165,78.911,109.847,69.796,73.813z"/>
<g>
	<line fill="none" stroke="#000000" stroke-width="3" stroke-miterlimit="10" x1="149.62" y1="295.23" x2="318.62" y2="295.23"/>
	<line fill="#F2F2F2" stroke="#000000" stroke-width="3" stroke-miterlimit="10" x1="149.12" y1="295.73" x2="149.12" y2="153.73"/>
	<line fill="none" stroke="#FFFFFF" stroke-width="8" stroke-miterlimit="10" x1="175.62" y1="295.73" x2="175.62" y2="262.73"/>
	<line fill="none" stroke="#FFFFFF" stroke-width="8" stroke-miterlimit="10" x1="203.62" y1="295.73" x2="203.62" y2="245.73"/>
	<line fill="none" stroke="#FFFFFF" stroke-width="9" stroke-miterlimit="10" x1="234.12" y1="295.73" x2="234.12" y2="238.73"/>
	<line fill="none" stroke="#FFFFFF" stroke-width="9" stroke-miterlimit="10" x1="266.12" y1="295.73" x2="266.12" y2="238.73"/>
	<line fill="none" stroke="#FF0000" stroke-width="9" stroke-miterlimit="10" x1="295.12" y1="295.73" x2="295.12" y2="158.73"/>
</g>
<g>
	<path fill="#FFFFFF" d="M136.449,57.409v1.936c-1.109,0.588-2.271,0.882-3.485,0.882c-1.574,0-2.828-0.435-3.761-1.305
		c-0.933-0.869-1.399-1.941-1.399-3.215s0.492-2.355,1.476-3.244c0.984-0.889,2.27-1.333,3.856-1.333
		c1.265,0,2.336,0.26,3.212,0.781v1.974c-1.075-0.605-2.093-0.908-3.053-0.908c-0.944,0-1.715,0.253-2.314,0.759
		c-0.599,0.505-0.898,1.15-0.898,1.933c0,0.787,0.295,1.437,0.885,1.949c0.591,0.512,1.347,0.768,2.27,0.768
		c0.457,0,0.897-0.061,1.32-0.181C134.981,58.084,135.611,57.819,136.449,57.409z"/>
	<path fill="#FFFFFF" d="M141.089,53.994c0.939,0,1.736,0.275,2.39,0.826c0.654,0.551,0.981,1.317,0.981,2.3
		c0,0.987-0.332,1.752-0.997,2.294c-0.665,0.542-1.456,0.813-2.374,0.813c-0.995,0-1.808-0.289-2.44-0.867
		c-0.633-0.579-0.949-1.329-0.949-2.253c0-0.94,0.323-1.694,0.968-2.262C139.313,54.277,140.12,53.994,141.089,53.994z
		 M141.089,59.11c0.901,0,1.352-0.68,1.352-2.041c0-1.301-0.451-1.952-1.352-1.952c-0.432,0-0.769,0.172-1.013,0.515
		c-0.243,0.343-0.365,0.835-0.365,1.475C139.712,58.442,140.171,59.11,141.089,59.11z"/>
	<path fill="#FFFFFF" d="M147.608,54.121v0.851c0.555-0.652,1.204-0.978,1.949-0.978c0.621,0,1.141,0.199,1.558,0.597
		c0.417,0.398,0.626,0.968,0.626,1.709v3.813h-1.886v-3.655c0-0.801-0.312-1.201-0.933-1.201c-0.445,0-0.883,0.33-1.314,0.99v3.866
		h-1.885v-5.992H147.608z"/>
	<path fill="#FFFFFF" d="M157.606,54.121v1.289h-2.184v2.469c0,0.296,0.081,0.53,0.244,0.701c0.162,0.172,0.389,0.257,0.676,0.257
		c0.389,0,0.811-0.116,1.264-0.349v1.365c-0.602,0.25-1.184,0.375-1.746,0.375c-0.736,0-1.308-0.19-1.714-0.571
		s-0.609-0.939-0.609-1.676v-2.571h-0.856v-0.368l2.507-2.806h0.235v1.885H157.606z"/>
	<path fill="#FFFFFF" d="M164.696,58.634v1.047c-0.627,0.364-1.215,0.546-1.765,0.546c-0.593,0-0.944-0.224-1.054-0.673
		c-0.656,0.449-1.314,0.673-1.975,0.673c-0.465,0-0.861-0.147-1.187-0.442s-0.489-0.637-0.489-1.027
		c0-0.521,0.168-0.942,0.506-1.262c0.336-0.32,1.354-0.732,3.056-1.237c0.042-0.668-0.305-1.003-1.041-1.003
		c-0.8,0-1.536,0.334-2.209,1.003v-1.536c0.787-0.487,1.652-0.73,2.597-0.73c1.692,0,2.539,0.608,2.539,1.824v2.733
		c0,0.28,0.104,0.419,0.311,0.419C164.142,58.97,164.379,58.858,164.696,58.634z M161.789,58.658v-1.452
		c-0.63,0.221-1.063,0.419-1.298,0.596s-0.353,0.4-0.353,0.672c0,0.174,0.06,0.324,0.178,0.449c0.118,0.125,0.263,0.188,0.432,0.188
		C161.104,59.11,161.45,58.959,161.789,58.658z"/>
	<path fill="#FFFFFF" d="M170.714,58.475v1.352c-0.736,0.267-1.411,0.4-2.025,0.4c-1.053,0-1.896-0.283-2.525-0.848
		c-0.631-0.565-0.946-1.314-0.946-2.247c0-0.911,0.318-1.661,0.955-2.252c0.638-0.591,1.448-0.886,2.435-0.886
		c0.635,0,1.308,0.131,2.019,0.394v1.403c-0.521-0.267-1.032-0.4-1.536-0.4c-0.563,0-1.014,0.157-1.352,0.471
		c-0.339,0.313-0.508,0.733-0.508,1.259c0,0.53,0.164,0.957,0.494,1.282c0.33,0.324,0.764,0.486,1.302,0.486
		C169.423,58.888,169.985,58.75,170.714,58.475z"/>
	<path fill="#FFFFFF" d="M176.28,54.121v1.289h-2.184v2.469c0,0.296,0.082,0.53,0.245,0.701c0.163,0.172,0.388,0.257,0.676,0.257
		c0.39,0,0.811-0.116,1.263-0.349v1.365c-0.601,0.25-1.182,0.375-1.745,0.375c-0.736,0-1.308-0.19-1.714-0.571
		s-0.609-0.939-0.609-1.676v-2.571h-0.857v-0.368l2.508-2.806h0.234v1.885H176.28z"/>
	<path fill="#FFFFFF" d="M186.704,54.121l-4.016,8.868h-2.009l1.76-3.855l-2.344-5.013h2.011l1.268,3.087l1.354-3.087H186.704z"/>
	<path fill="#FFFFFF" d="M190.259,53.994c0.939,0,1.736,0.275,2.389,0.826c0.654,0.551,0.981,1.317,0.981,2.3
		c0,0.987-0.332,1.752-0.997,2.294c-0.664,0.542-1.455,0.813-2.373,0.813c-0.995,0-1.809-0.289-2.441-0.867
		c-0.633-0.579-0.949-1.329-0.949-2.253c0-0.94,0.323-1.694,0.969-2.262C188.481,54.277,189.289,53.994,190.259,53.994z
		 M190.259,59.11c0.9,0,1.352-0.68,1.352-2.041c0-1.301-0.451-1.952-1.352-1.952c-0.432,0-0.77,0.172-1.014,0.515
		c-0.242,0.343-0.364,0.835-0.364,1.475C188.881,58.442,189.34,59.11,190.259,59.11z"/>
	<path fill="#FFFFFF" d="M199.024,60.113v-0.857c-0.555,0.647-1.199,0.971-1.936,0.971c-0.652,0-1.182-0.201-1.588-0.603
		s-0.609-0.958-0.609-1.669v-3.834h1.886v3.702c0,0.761,0.315,1.141,0.946,1.141c0.355,0,0.658-0.138,0.91-0.415
		s0.378-0.481,0.378-0.612v-3.816h1.897v5.992H199.024z"/>
	<path fill="#FFFFFF" d="M204.407,54.121v1.714h0.025c0.546-1.227,1.183-1.841,1.91-1.841c0.348,0,0.764,0.182,1.251,0.546
		l-0.521,1.669c-0.465-0.296-0.838-0.444-1.117-0.444c-0.436,0-0.803,0.27-1.102,0.811c-0.298,0.541-0.447,0.855-0.447,0.944v2.594
		h-1.885v-5.992H204.407z"/>
	<path fill="#FFFFFF" d="M213.846,54.121v1.714h0.025c0.546-1.227,1.183-1.841,1.91-1.841c0.348,0,0.765,0.182,1.251,0.546
		l-0.521,1.669c-0.466-0.296-0.838-0.444-1.117-0.444c-0.436,0-0.803,0.27-1.102,0.811c-0.298,0.541-0.447,0.855-0.447,0.944v2.594
		h-1.885v-5.992H213.846z"/>
	<path fill="#FFFFFF" d="M223.323,58.253v1.187c-0.72,0.525-1.61,0.787-2.672,0.787c-1.055,0-1.896-0.283-2.527-0.848
		c-0.63-0.565-0.945-1.314-0.945-2.247c0-0.915,0.296-1.667,0.889-2.255s1.348-0.883,2.266-0.883c0.923,0,1.68,0.31,2.27,0.93
		c0.591,0.62,0.867,1.451,0.828,2.492h-4.303c0.037,0.544,0.23,0.962,0.577,1.255s0.813,0.439,1.396,0.439
		C221.809,59.11,222.549,58.824,223.323,58.253z M219.165,56.425h2.604c-0.102-0.872-0.536-1.308-1.302-1.308
		C219.692,55.117,219.259,55.553,219.165,56.425z"/>
	<path fill="#FFFFFF" d="M226.497,54.121v0.521c0.504-0.432,1.075-0.647,1.714-0.647c0.778,0,1.437,0.294,1.975,0.883
		c0.537,0.589,0.806,1.311,0.806,2.167c0,0.962-0.27,1.733-0.81,2.313c-0.539,0.581-1.254,0.871-2.143,0.871
		c-0.55,0-1.063-0.138-1.542-0.413v3.288h-1.886v-8.982H226.497z M226.497,55.815v2.755c0.355,0.262,0.72,0.394,1.092,0.394
		c0.457,0,0.82-0.164,1.089-0.492c0.269-0.328,0.402-0.771,0.402-1.33c0-0.571-0.123-1.016-0.371-1.333
		c-0.247-0.317-0.596-0.476-1.044-0.476C227.288,55.333,226.899,55.494,226.497,55.815z"/>
	<path fill="#FFFFFF" d="M234.165,54.121v1.714h0.025c0.546-1.227,1.183-1.841,1.91-1.841c0.348,0,0.765,0.182,1.251,0.546
		l-0.521,1.669c-0.466-0.296-0.838-0.444-1.117-0.444c-0.436,0-0.803,0.27-1.102,0.811c-0.298,0.541-0.447,0.855-0.447,0.944v2.594
		h-1.885v-5.992H234.165z"/>
	<path fill="#FFFFFF" d="M243.643,58.253v1.187c-0.72,0.525-1.61,0.787-2.672,0.787c-1.055,0-1.896-0.283-2.527-0.848
		c-0.63-0.565-0.945-1.314-0.945-2.247c0-0.915,0.296-1.667,0.889-2.255s1.348-0.883,2.266-0.883c0.923,0,1.68,0.31,2.27,0.93
		c0.591,0.62,0.867,1.451,0.828,2.492h-4.303c0.037,0.544,0.23,0.962,0.577,1.255s0.813,0.439,1.396,0.439
		C242.128,59.11,242.868,58.824,243.643,58.253z M239.484,56.425h2.604c-0.102-0.872-0.536-1.308-1.302-1.308
		C240.012,55.117,239.578,55.553,239.484,56.425z"/>
	<path fill="#FFFFFF" d="M249.088,54.438v1.339c-0.72-0.44-1.386-0.66-2-0.66c-0.452,0-0.679,0.154-0.679,0.463
		c0,0.081,0.048,0.16,0.144,0.238c0.095,0.079,0.46,0.244,1.095,0.497c0.635,0.253,1.083,0.544,1.345,0.875
		c0.263,0.331,0.395,0.692,0.395,1.086c0,0.623-0.212,1.104-0.635,1.442c-0.424,0.339-1.026,0.508-1.81,0.508
		c-0.804,0-1.52-0.146-2.146-0.438v-1.327c0.771,0.338,1.416,0.508,1.936,0.508c0.609,0,0.914-0.147,0.914-0.443
		c0-0.114-0.056-0.221-0.169-0.323c-0.112-0.101-0.49-0.277-1.133-0.529c-0.643-0.251-1.082-0.527-1.319-0.828
		s-0.355-0.635-0.355-1.004c0-0.546,0.228-0.991,0.683-1.334s1.055-0.515,1.8-0.515C247.867,53.994,248.513,54.142,249.088,54.438z"
		/>
	<path fill="#FFFFFF" d="M256.363,58.253v1.187c-0.72,0.525-1.61,0.787-2.672,0.787c-1.055,0-1.896-0.283-2.527-0.848
		c-0.63-0.565-0.945-1.314-0.945-2.247c0-0.915,0.296-1.667,0.889-2.255s1.348-0.883,2.266-0.883c0.923,0,1.68,0.31,2.27,0.93
		c0.591,0.62,0.867,1.451,0.828,2.492h-4.303c0.037,0.544,0.23,0.962,0.577,1.255s0.813,0.439,1.396,0.439
		C254.849,59.11,255.589,58.824,256.363,58.253z M252.205,56.425h2.604c-0.102-0.872-0.536-1.308-1.302-1.308
		C252.732,55.117,252.299,55.553,252.205,56.425z"/>
	<path fill="#FFFFFF" d="M259.574,54.121v0.851c0.555-0.652,1.204-0.978,1.949-0.978c0.621,0,1.141,0.199,1.558,0.597
		c0.417,0.398,0.626,0.968,0.626,1.709v3.813h-1.886v-3.655c0-0.801-0.312-1.201-0.933-1.201c-0.445,0-0.883,0.33-1.314,0.99v3.866
		h-1.885v-5.992H259.574z"/>
	<path fill="#FFFFFF" d="M269.572,54.121v1.289h-2.184v2.469c0,0.296,0.082,0.53,0.245,0.701c0.163,0.172,0.388,0.257,0.676,0.257
		c0.39,0,0.811-0.116,1.263-0.349v1.365c-0.601,0.25-1.183,0.375-1.745,0.375c-0.736,0-1.308-0.19-1.714-0.571
		s-0.609-0.939-0.609-1.676v-2.571h-0.857v-0.368l2.508-2.806h0.234v1.885H269.572z"/>
	<path fill="#FFFFFF" d="M276.664,58.634v1.047c-0.627,0.364-1.215,0.546-1.766,0.546c-0.592,0-0.943-0.224-1.053-0.673
		c-0.656,0.449-1.314,0.673-1.975,0.673c-0.466,0-0.861-0.147-1.188-0.442c-0.325-0.294-0.488-0.637-0.488-1.027
		c0-0.521,0.168-0.942,0.505-1.262c0.336-0.32,1.354-0.732,3.056-1.237c0.043-0.668-0.305-1.003-1.041-1.003
		c-0.799,0-1.535,0.334-2.209,1.003v-1.536c0.787-0.487,1.653-0.73,2.597-0.73c1.692,0,2.539,0.608,2.539,1.824v2.733
		c0,0.28,0.104,0.419,0.312,0.419C276.109,58.97,276.346,58.858,276.664,58.634z M273.756,58.658v-1.452
		c-0.63,0.221-1.063,0.419-1.298,0.596c-0.234,0.176-0.353,0.4-0.353,0.672c0,0.174,0.06,0.324,0.178,0.449
		c0.119,0.125,0.263,0.188,0.432,0.188C273.07,59.11,273.418,58.959,273.756,58.658z"/>
	<path fill="#FFFFFF" d="M281.748,54.121v1.289h-2.184v2.469c0,0.296,0.082,0.53,0.245,0.701c0.163,0.172,0.388,0.257,0.676,0.257
		c0.39,0,0.811-0.116,1.263-0.349v1.365c-0.601,0.25-1.183,0.375-1.745,0.375c-0.736,0-1.308-0.19-1.714-0.571
		s-0.609-0.939-0.609-1.676v-2.571h-0.857v-0.368l2.508-2.806h0.234v1.885H281.748z"/>
	<path fill="#FFFFFF" d="M282.656,52.172c0-0.288,0.102-0.533,0.305-0.736s0.447-0.305,0.73-0.305c0.288,0,0.533,0.102,0.736,0.305
		s0.305,0.449,0.305,0.736c0,0.284-0.102,0.528-0.305,0.733c-0.203,0.206-0.448,0.308-0.736,0.308c-0.283,0-0.527-0.103-0.73-0.308
		C282.758,52.7,282.656,52.456,282.656,52.172z M284.644,54.121v5.992h-1.886v-5.992H284.644z"/>
	<path fill="#FFFFFF" d="M288.26,60.227l-2.771-6.106h2.021l1.27,3.301l1.293-3.301h1.998l-2.759,6.106H288.26z"/>
	<path fill="#FFFFFF" d="M298.456,58.253v1.187c-0.72,0.525-1.61,0.787-2.672,0.787c-1.055,0-1.896-0.283-2.527-0.848
		c-0.63-0.565-0.945-1.314-0.945-2.247c0-0.915,0.296-1.667,0.889-2.255s1.348-0.883,2.266-0.883c0.923,0,1.68,0.31,2.27,0.93
		c0.591,0.62,0.867,1.451,0.828,2.492h-4.303c0.037,0.544,0.23,0.962,0.577,1.255s0.813,0.439,1.396,0.439
		C296.941,59.11,297.682,58.824,298.456,58.253z M294.298,56.425h2.604c-0.102-0.872-0.536-1.308-1.302-1.308
		C294.825,55.117,294.392,55.553,294.298,56.425z"/>
	<path fill="#FFFFFF" d="M303.902,54.438v1.339c-0.72-0.44-1.386-0.66-2-0.66c-0.452,0-0.679,0.154-0.679,0.463
		c0,0.081,0.048,0.16,0.144,0.238c0.095,0.079,0.46,0.244,1.095,0.497c0.635,0.253,1.083,0.544,1.345,0.875
		c0.263,0.331,0.395,0.692,0.395,1.086c0,0.623-0.212,1.104-0.635,1.442c-0.424,0.339-1.026,0.508-1.81,0.508
		c-0.804,0-1.52-0.146-2.146-0.438v-1.327c0.771,0.338,1.416,0.508,1.936,0.508c0.609,0,0.914-0.147,0.914-0.443
		c0-0.114-0.056-0.221-0.169-0.323c-0.112-0.101-0.49-0.277-1.133-0.529c-0.643-0.251-1.082-0.527-1.319-0.828
		s-0.355-0.635-0.355-1.004c0-0.546,0.228-0.991,0.683-1.334s1.055-0.515,1.8-0.515C302.682,53.994,303.327,54.142,303.902,54.438z"
		/>
	<path fill="#FFFFFF" d="M305.172,59.097c0-0.309,0.111-0.574,0.333-0.797c0.223-0.222,0.488-0.333,0.797-0.333
		c0.313,0,0.581,0.111,0.803,0.333c0.223,0.223,0.334,0.488,0.334,0.797c0,0.313-0.111,0.58-0.334,0.8
		c-0.222,0.22-0.489,0.33-0.803,0.33c-0.309,0-0.574-0.11-0.797-0.33C305.283,59.677,305.172,59.41,305.172,59.097z"/>
	<path fill="#FFFFFF" d="M153.242,70.133l2.85-3.288h1.921v8.868h-2.209v-5.535l-2.396,2.78h-0.332l-2.395-2.78v5.535h-2.209v-8.868
		h1.918L153.242,70.133z"/>
	<path fill="#FFFFFF" d="M165.884,74.234v1.047c-0.627,0.364-1.215,0.546-1.766,0.546c-0.592,0-0.943-0.224-1.053-0.673
		c-0.656,0.449-1.314,0.673-1.975,0.673c-0.465,0-0.861-0.147-1.188-0.442c-0.325-0.294-0.488-0.637-0.488-1.027
		c0-0.521,0.168-0.942,0.505-1.262c0.336-0.32,1.354-0.732,3.056-1.237c0.043-0.668-0.305-1.003-1.041-1.003
		c-0.799,0-1.535,0.334-2.209,1.003v-1.536c0.787-0.487,1.652-0.73,2.597-0.73c1.692,0,2.539,0.608,2.539,1.824v2.733
		c0,0.28,0.104,0.419,0.312,0.419C165.329,74.57,165.565,74.458,165.884,74.234z M162.976,74.258v-1.452
		c-0.63,0.221-1.063,0.419-1.298,0.596c-0.234,0.176-0.353,0.4-0.353,0.672c0,0.174,0.06,0.324,0.178,0.449
		c0.119,0.125,0.263,0.188,0.432,0.188C162.29,74.71,162.638,74.559,162.976,74.258z"/>
	<path fill="#FFFFFF" d="M168.587,66.845v5.84h0.025l2.326-2.964h2.213l-2.343,2.964l2.444,3.028h-2.307l-2.334-2.952h-0.025v2.952
		h-1.885v-8.868H168.587z"/>
	<path fill="#FFFFFF" d="M179.296,73.853v1.187c-0.719,0.525-1.61,0.787-2.672,0.787c-1.055,0-1.896-0.283-2.527-0.848
		c-0.63-0.565-0.945-1.314-0.945-2.247c0-0.915,0.297-1.667,0.889-2.255s1.348-0.883,2.266-0.883c0.923,0,1.68,0.31,2.27,0.93
		c0.591,0.62,0.867,1.451,0.828,2.492h-4.303c0.037,0.544,0.23,0.962,0.577,1.255s0.813,0.439,1.396,0.439
		C177.78,74.71,178.521,74.424,179.296,73.853z M175.138,72.025h2.604c-0.102-0.872-0.535-1.308-1.302-1.308
		C175.665,70.717,175.231,71.153,175.138,72.025z"/>
	<path fill="#FFFFFF" d="M190.075,69.721l-4.016,8.868h-2.01l1.76-3.855l-2.344-5.013h2.012l1.268,3.087l1.354-3.087H190.075z"/>
	<path fill="#FFFFFF" d="M193.629,69.594c0.939,0,1.736,0.275,2.39,0.826c0.654,0.551,0.98,1.317,0.98,2.3
		c0,0.987-0.332,1.752-0.996,2.294c-0.664,0.542-1.455,0.813-2.374,0.813c-0.995,0-1.808-0.289-2.44-0.867
		c-0.633-0.579-0.949-1.329-0.949-2.253c0-0.94,0.322-1.694,0.968-2.262C191.853,69.877,192.659,69.594,193.629,69.594z
		 M193.629,74.71c0.901,0,1.353-0.68,1.353-2.041c0-1.301-0.451-1.952-1.353-1.952c-0.432,0-0.769,0.172-1.013,0.515
		c-0.243,0.343-0.365,0.835-0.365,1.475C192.251,74.042,192.71,74.71,193.629,74.71z"/>
	<path fill="#FFFFFF" d="M202.396,75.713v-0.857c-0.555,0.647-1.2,0.971-1.937,0.971c-0.651,0-1.181-0.201-1.587-0.603
		s-0.609-0.958-0.609-1.669v-3.834h1.885v3.702c0,0.761,0.316,1.141,0.946,1.141c0.355,0,0.659-0.138,0.911-0.415
		s0.377-0.481,0.377-0.612v-3.816h1.898v5.992H202.396z"/>
	<path fill="#FFFFFF" d="M207.778,69.721v1.714h0.025c0.545-1.227,1.182-1.841,1.91-1.841c0.347,0,0.765,0.182,1.251,0.546
		l-0.521,1.669c-0.465-0.296-0.837-0.444-1.116-0.444c-0.437,0-0.803,0.27-1.102,0.811s-0.447,0.855-0.447,0.944v2.594h-1.886
		v-5.992H207.778z"/>
	<path fill="#FFFFFF" d="M217.297,75.827l-2.771-6.106h2.021l1.27,3.301l1.293-3.301h1.998l-2.759,6.106H217.297z"/>
	<path fill="#FFFFFF" d="M224.739,69.594c0.939,0,1.736,0.275,2.39,0.826c0.654,0.551,0.98,1.317,0.98,2.3
		c0,0.987-0.332,1.752-0.996,2.294c-0.664,0.542-1.456,0.813-2.374,0.813c-0.994,0-1.808-0.289-2.44-0.867
		c-0.633-0.579-0.949-1.329-0.949-2.253c0-0.94,0.322-1.694,0.968-2.262C222.963,69.877,223.771,69.594,224.739,69.594z
		 M224.739,74.71c0.901,0,1.353-0.68,1.353-2.041c0-1.301-0.451-1.952-1.353-1.952c-0.432,0-0.77,0.172-1.013,0.515
		s-0.365,0.835-0.365,1.475C223.361,74.042,223.821,74.71,224.739,74.71z"/>
	<path fill="#FFFFFF" d="M229.309,67.772c0-0.288,0.102-0.533,0.305-0.736s0.447-0.305,0.73-0.305c0.288,0,0.533,0.102,0.736,0.305
		s0.305,0.449,0.305,0.736c0,0.284-0.102,0.528-0.305,0.733c-0.203,0.206-0.448,0.308-0.736,0.308c-0.283,0-0.527-0.103-0.73-0.308
		C229.41,68.3,229.309,68.056,229.309,67.772z M231.296,69.721v5.992h-1.886v-5.992H231.296z"/>
	<path fill="#FFFFFF" d="M238.133,74.075v1.352c-0.736,0.267-1.411,0.4-2.025,0.4c-1.053,0-1.896-0.283-2.525-0.848
		c-0.631-0.565-0.946-1.314-0.946-2.247c0-0.911,0.318-1.661,0.955-2.252c0.637-0.591,1.448-0.886,2.435-0.886
		c0.635,0,1.308,0.131,2.019,0.394v1.403c-0.521-0.267-1.032-0.4-1.536-0.4c-0.563,0-1.014,0.157-1.352,0.471
		c-0.339,0.313-0.508,0.733-0.508,1.259c0,0.53,0.164,0.957,0.494,1.282c0.33,0.324,0.765,0.486,1.302,0.486
		C236.842,74.488,237.405,74.35,238.133,74.075z"/>
	<path fill="#FFFFFF" d="M245.242,73.853v1.187c-0.72,0.525-1.61,0.787-2.672,0.787c-1.055,0-1.896-0.283-2.527-0.848
		c-0.63-0.565-0.945-1.314-0.945-2.247c0-0.915,0.296-1.667,0.889-2.255s1.348-0.883,2.266-0.883c0.923,0,1.68,0.31,2.27,0.93
		c0.591,0.62,0.867,1.451,0.828,2.492h-4.303c0.037,0.544,0.23,0.962,0.577,1.255s0.813,0.439,1.396,0.439
		C243.728,74.71,244.468,74.424,245.242,73.853z M241.084,72.025h2.604c-0.102-0.872-0.536-1.308-1.302-1.308
		C241.611,70.717,241.178,71.153,241.084,72.025z"/>
	<path fill="#FFFFFF" d="M252.092,66.845v3.751h0.025c0.524-0.668,1.157-1.003,1.898-1.003c0.639,0,1.164,0.202,1.577,0.607
		c0.412,0.404,0.618,0.967,0.618,1.687v3.825h-1.885v-3.426c0-0.873-0.324-1.31-0.971-1.31c-0.428,0-0.849,0.303-1.264,0.909v3.827
		h-1.885v-8.868H252.092z"/>
	<path fill="#FFFFFF" d="M263.605,73.853v1.187c-0.72,0.525-1.61,0.787-2.672,0.787c-1.055,0-1.896-0.283-2.527-0.848
		c-0.63-0.565-0.945-1.314-0.945-2.247c0-0.915,0.296-1.667,0.889-2.255s1.348-0.883,2.266-0.883c0.923,0,1.68,0.31,2.27,0.93
		c0.591,0.62,0.867,1.451,0.828,2.492h-4.303c0.037,0.544,0.23,0.962,0.577,1.255s0.813,0.439,1.396,0.439
		C262.091,74.71,262.831,74.424,263.605,73.853z M259.447,72.025h2.604c-0.102-0.872-0.536-1.308-1.302-1.308
		C259.975,70.717,259.541,71.153,259.447,72.025z"/>
	<path fill="#FFFFFF" d="M271.053,74.234v1.047c-0.627,0.364-1.215,0.546-1.766,0.546c-0.592,0-0.943-0.224-1.053-0.673
		c-0.656,0.449-1.314,0.673-1.975,0.673c-0.466,0-0.861-0.147-1.188-0.442c-0.325-0.294-0.488-0.637-0.488-1.027
		c0-0.521,0.168-0.942,0.505-1.262c0.336-0.32,1.354-0.732,3.056-1.237c0.043-0.668-0.305-1.003-1.041-1.003
		c-0.799,0-1.535,0.334-2.209,1.003v-1.536c0.787-0.487,1.653-0.73,2.597-0.73c1.692,0,2.539,0.608,2.539,1.824v2.733
		c0,0.28,0.104,0.419,0.312,0.419C270.498,74.57,270.734,74.458,271.053,74.234z M268.145,74.258v-1.452
		c-0.63,0.221-1.063,0.419-1.298,0.596c-0.234,0.176-0.353,0.4-0.353,0.672c0,0.174,0.06,0.324,0.178,0.449
		c0.119,0.125,0.263,0.188,0.432,0.188C267.459,74.71,267.807,74.559,268.145,74.258z"/>
	<path fill="#FFFFFF" d="M273.77,69.721v1.714h0.025c0.546-1.227,1.183-1.841,1.91-1.841c0.348,0,0.765,0.182,1.251,0.546
		l-0.521,1.669c-0.466-0.296-0.838-0.444-1.117-0.444c-0.436,0-0.803,0.27-1.102,0.811c-0.298,0.541-0.447,0.855-0.447,0.944v2.594
		h-1.885v-5.992H273.77z"/>
	<path fill="#FFFFFF" d="M283.493,66.845v8.868h-1.885V75.23c-0.482,0.398-1.037,0.597-1.663,0.597c-0.8,0-1.468-0.296-2.003-0.89
		c-0.535-0.593-0.803-1.336-0.803-2.23c0-0.915,0.271-1.662,0.815-2.243s1.241-0.871,2.092-0.871c0.529,0,1.05,0.127,1.562,0.381
		v-3.129H283.493z M281.608,74.069v-2.863c-0.343-0.233-0.694-0.349-1.054-0.349c-0.474,0-0.843,0.165-1.107,0.495
		s-0.397,0.793-0.397,1.39c0,0.55,0.132,0.991,0.395,1.323c0.262,0.333,0.611,0.499,1.047,0.499
		C280.876,74.564,281.249,74.399,281.608,74.069z"/>
	<path fill="#FFFFFF" d="M284.884,74.697c0-0.309,0.111-0.574,0.333-0.797c0.223-0.222,0.488-0.333,0.797-0.333
		c0.313,0,0.581,0.111,0.803,0.333c0.223,0.223,0.334,0.488,0.334,0.797c0,0.313-0.111,0.58-0.334,0.8
		c-0.222,0.22-0.489,0.33-0.803,0.33c-0.309,0-0.574-0.11-0.797-0.33C284.995,75.277,284.884,75.01,284.884,74.697z"/>
</g>
<g>
	<path fill="#FFFFFF" d="M37.487,200.221v1.733c-1.176-0.529-2.114-0.793-2.812-0.793c-0.398,0-0.714,0.067-0.949,0.2
		c-0.235,0.134-0.353,0.31-0.353,0.53c0,0.169,0.084,0.33,0.254,0.482s0.582,0.349,1.238,0.59s1.181,0.465,1.574,0.673
		s0.733,0.5,1.019,0.876c0.285,0.376,0.428,0.853,0.428,1.428c0,0.821-0.312,1.475-0.936,1.961c-0.625,0.487-1.446,0.73-2.466,0.73
		c-1.1,0-2.167-0.286-3.199-0.857v-1.911c0.592,0.398,1.117,0.688,1.574,0.87s0.941,0.273,1.454,0.273
		c0.868,0,1.301-0.273,1.301-0.818c0-0.186-0.087-0.362-0.26-0.526c-0.174-0.165-0.592-0.366-1.254-0.603
		c-0.663-0.237-1.188-0.457-1.574-0.66c-0.387-0.203-0.722-0.493-1.003-0.87c-0.281-0.376-0.422-0.859-0.422-1.448
		c0-0.762,0.307-1.376,0.92-1.844s1.435-0.702,2.463-0.702C35.432,199.535,36.433,199.764,37.487,200.221z"/>
	<path fill="#FFFFFF" d="M40.959,202.525v0.521c0.503-0.432,1.075-0.647,1.714-0.647c0.779,0,1.437,0.294,1.974,0.883
		s0.806,1.311,0.806,2.167c0,0.962-0.27,1.733-0.81,2.313c-0.539,0.581-1.253,0.871-2.142,0.871c-0.55,0-1.064-0.138-1.542-0.413
		v3.288h-1.885v-8.982H40.959z M40.959,204.22v2.755c0.355,0.262,0.719,0.394,1.092,0.394c0.457,0,0.82-0.164,1.089-0.492
		c0.269-0.328,0.403-0.771,0.403-1.33c0-0.571-0.124-1.016-0.372-1.333c-0.247-0.317-0.595-0.476-1.044-0.476
		C41.75,203.737,41.361,203.898,40.959,204.22z"/>
	<path fill="#FFFFFF" d="M48.627,202.525v1.714h0.025c0.546-1.227,1.183-1.841,1.911-1.841c0.347,0,0.764,0.182,1.25,0.546
		l-0.521,1.669c-0.465-0.296-0.838-0.444-1.117-0.444c-0.436,0-0.803,0.27-1.102,0.811c-0.298,0.541-0.447,0.855-0.447,0.944v2.594
		h-1.885v-5.992H48.627z"/>
	<path fill="#FFFFFF" d="M58.104,206.657v1.187c-0.72,0.525-1.611,0.787-2.673,0.787c-1.054,0-1.896-0.283-2.526-0.848
		s-0.946-1.314-0.946-2.247c0-0.915,0.296-1.667,0.889-2.255s1.348-0.883,2.266-0.883c0.922,0,1.679,0.31,2.269,0.93
		c0.59,0.62,0.867,1.451,0.829,2.492h-4.304c0.038,0.544,0.23,0.962,0.578,1.255s0.813,0.439,1.396,0.439
		C56.589,207.514,57.33,207.229,58.104,206.657z M53.946,204.829h2.603c-0.102-0.872-0.535-1.308-1.301-1.308
		C54.473,203.521,54.04,203.958,53.946,204.829z"/>
	<path fill="#FFFFFF" d="M65.55,207.038v1.047c-0.627,0.364-1.215,0.546-1.766,0.546c-0.592,0-0.943-0.224-1.053-0.673
		c-0.656,0.449-1.314,0.673-1.975,0.673c-0.466,0-0.861-0.147-1.188-0.442c-0.325-0.294-0.488-0.637-0.488-1.027
		c0-0.521,0.168-0.942,0.505-1.262c0.336-0.32,1.354-0.732,3.056-1.237c0.043-0.668-0.305-1.003-1.041-1.003
		c-0.799,0-1.535,0.334-2.209,1.003v-1.536c0.787-0.487,1.653-0.73,2.597-0.73c1.692,0,2.539,0.608,2.539,1.824v2.733
		c0,0.28,0.104,0.419,0.312,0.419C64.995,207.375,65.231,207.262,65.55,207.038z M62.642,207.062v-1.452
		c-0.63,0.221-1.063,0.419-1.298,0.596c-0.234,0.176-0.353,0.4-0.353,0.672c0,0.174,0.06,0.324,0.178,0.449
		c0.119,0.125,0.263,0.188,0.432,0.188C61.956,207.514,62.304,207.363,62.642,207.062z"/>
	<path fill="#FFFFFF" d="M72.36,199.649v8.868h-1.885v-0.482c-0.482,0.398-1.037,0.597-1.663,0.597c-0.8,0-1.468-0.296-2.003-0.89
		c-0.535-0.593-0.803-1.336-0.803-2.23c0-0.915,0.271-1.662,0.815-2.243s1.241-0.871,2.092-0.871c0.529,0,1.05,0.127,1.562,0.381
		v-3.129H72.36z M70.476,206.873v-2.863c-0.343-0.233-0.694-0.349-1.054-0.349c-0.474,0-0.843,0.165-1.107,0.495
		s-0.397,0.793-0.397,1.39c0,0.55,0.132,0.991,0.395,1.323c0.262,0.333,0.611,0.499,1.047,0.499
		C69.743,207.368,70.116,207.203,70.476,206.873z"/>
	<path fill="#FFFFFF" d="M81.825,202.525v1.289h-2.184v2.469c0,0.296,0.082,0.53,0.245,0.701c0.163,0.172,0.388,0.257,0.676,0.257
		c0.39,0,0.811-0.116,1.263-0.349v1.365c-0.601,0.25-1.183,0.375-1.745,0.375c-0.736,0-1.308-0.19-1.714-0.571
		s-0.609-0.939-0.609-1.676v-2.571h-0.857v-0.368l2.508-2.806h0.234v1.885H81.825z"/>
	<path fill="#FFFFFF" d="M84.708,199.649v3.751h0.025c0.524-0.668,1.157-1.003,1.898-1.003c0.639,0,1.164,0.202,1.577,0.607
		c0.412,0.404,0.618,0.967,0.618,1.687v3.825h-1.885v-3.426c0-0.873-0.324-1.31-0.971-1.31c-0.428,0-0.849,0.303-1.264,0.909v3.827
		h-1.885v-8.868H84.708z"/>
	<path fill="#FFFFFF" d="M96.222,206.657v1.187c-0.72,0.525-1.61,0.787-2.672,0.787c-1.055,0-1.896-0.283-2.527-0.848
		c-0.63-0.565-0.945-1.314-0.945-2.247c0-0.915,0.296-1.667,0.889-2.255s1.348-0.883,2.266-0.883c0.923,0,1.68,0.31,2.27,0.93
		c0.591,0.62,0.867,1.451,0.828,2.492h-4.303c0.037,0.544,0.23,0.962,0.577,1.255s0.813,0.439,1.396,0.439
		C94.707,207.514,95.447,207.229,96.222,206.657z M92.063,204.829h2.604c-0.102-0.872-0.536-1.308-1.302-1.308
		C92.591,203.521,92.157,203.958,92.063,204.829z"/>
	<path fill="#FFFFFF" d="M103.319,202.525h0.856v1.289h-0.856v4.704h-1.886v-4.704h-0.856v-1.289h0.856v-0.298
		c0-0.842,0.237-1.501,0.711-1.977c0.474-0.477,1.113-0.714,1.917-0.714c0.194,0,0.575,0.038,1.143,0.114v1.523
		c-0.394-0.051-0.675-0.076-0.844-0.076c-0.694,0-1.041,0.349-1.041,1.047V202.525z"/>
	<path fill="#FFFFFF" d="M111.202,207.038v1.047c-0.627,0.364-1.215,0.546-1.766,0.546c-0.592,0-0.943-0.224-1.053-0.673
		c-0.656,0.449-1.314,0.673-1.975,0.673c-0.466,0-0.861-0.147-1.188-0.442c-0.325-0.294-0.488-0.637-0.488-1.027
		c0-0.521,0.168-0.942,0.505-1.262c0.336-0.32,1.354-0.732,3.056-1.237c0.043-0.668-0.305-1.003-1.041-1.003
		c-0.799,0-1.535,0.334-2.209,1.003v-1.536c0.787-0.487,1.653-0.73,2.597-0.73c1.692,0,2.539,0.608,2.539,1.824v2.733
		c0,0.28,0.104,0.419,0.312,0.419C110.647,207.375,110.884,207.262,111.202,207.038z M108.294,207.062v-1.452
		c-0.63,0.221-1.063,0.419-1.298,0.596c-0.234,0.176-0.353,0.4-0.353,0.672c0,0.174,0.06,0.324,0.178,0.449
		c0.119,0.125,0.263,0.188,0.432,0.188C107.608,207.514,107.956,207.363,108.294,207.062z"/>
	<path fill="#FFFFFF" d="M117.22,206.879v1.352c-0.736,0.267-1.411,0.4-2.025,0.4c-1.053,0-1.896-0.283-2.525-0.848
		c-0.631-0.565-0.946-1.314-0.946-2.247c0-0.911,0.318-1.661,0.955-2.252c0.637-0.591,1.448-0.886,2.435-0.886
		c0.635,0,1.308,0.131,2.019,0.394v1.403c-0.521-0.267-1.032-0.4-1.536-0.4c-0.563,0-1.014,0.157-1.352,0.471
		c-0.339,0.313-0.508,0.733-0.508,1.259c0,0.53,0.164,0.957,0.494,1.282c0.33,0.324,0.765,0.486,1.302,0.486
		C115.929,207.292,116.492,207.154,117.22,206.879z"/>
	<path fill="#FFFFFF" d="M122.786,202.525v1.289h-2.184v2.469c0,0.296,0.082,0.53,0.245,0.701c0.163,0.172,0.388,0.257,0.676,0.257
		c0.39,0,0.811-0.116,1.263-0.349v1.365c-0.601,0.25-1.183,0.375-1.745,0.375c-0.736,0-1.308-0.19-1.714-0.571
		s-0.609-0.939-0.609-1.676v-2.571h-0.857v-0.368l2.508-2.806h0.234v1.885H122.786z"/>
	<path fill="#FFFFFF" d="M127.878,202.842v1.339c-0.72-0.44-1.386-0.66-2-0.66c-0.452,0-0.679,0.154-0.679,0.463
		c0,0.081,0.048,0.16,0.144,0.238c0.095,0.079,0.46,0.244,1.095,0.497c0.635,0.253,1.083,0.544,1.345,0.875
		c0.263,0.331,0.395,0.692,0.395,1.086c0,0.623-0.212,1.104-0.635,1.442c-0.424,0.339-1.026,0.508-1.81,0.508
		c-0.804,0-1.52-0.146-2.146-0.438v-1.327c0.771,0.338,1.416,0.508,1.936,0.508c0.609,0,0.914-0.147,0.914-0.443
		c0-0.114-0.056-0.221-0.169-0.323c-0.112-0.101-0.49-0.277-1.133-0.529c-0.643-0.251-1.082-0.527-1.319-0.828
		s-0.355-0.635-0.355-1.004c0-0.546,0.228-0.991,0.683-1.334s1.055-0.515,1.8-0.515
		C126.657,202.398,127.303,202.546,127.878,202.842z"/>
	<path fill="#FFFFFF" d="M129.146,207.501c0-0.309,0.111-0.574,0.333-0.797c0.223-0.222,0.488-0.333,0.797-0.333
		c0.313,0,0.581,0.111,0.803,0.333c0.223,0.223,0.334,0.488,0.334,0.797c0,0.313-0.111,0.58-0.334,0.8
		c-0.222,0.22-0.489,0.33-0.803,0.33c-0.309,0-0.574-0.11-0.797-0.33C129.258,208.081,129.146,207.814,129.146,207.501z"/>
	<path fill="#FFFFFF" d="M37.643,215.821v1.733c-1.176-0.529-2.114-0.793-2.812-0.793c-0.398,0-0.714,0.067-0.949,0.2
		c-0.235,0.134-0.353,0.31-0.353,0.53c0,0.169,0.084,0.33,0.254,0.482s0.582,0.349,1.238,0.59s1.181,0.465,1.574,0.673
		s0.733,0.5,1.019,0.876c0.285,0.376,0.428,0.853,0.428,1.428c0,0.821-0.312,1.475-0.936,1.961c-0.625,0.487-1.446,0.73-2.466,0.73
		c-1.1,0-2.167-0.286-3.199-0.857v-1.911c0.592,0.398,1.117,0.688,1.574,0.87s0.941,0.273,1.454,0.273
		c0.868,0,1.301-0.273,1.301-0.818c0-0.186-0.087-0.362-0.26-0.526c-0.174-0.165-0.592-0.366-1.254-0.603
		c-0.663-0.237-1.188-0.457-1.574-0.66c-0.387-0.203-0.722-0.493-1.003-0.87c-0.281-0.376-0.422-0.859-0.422-1.448
		c0-0.762,0.307-1.376,0.92-1.844s1.435-0.702,2.463-0.702C35.588,215.135,36.589,215.364,37.643,215.821z"/>
	<path fill="#FFFFFF" d="M43.571,218.125v1.289h-2.184v2.469c0,0.296,0.082,0.53,0.245,0.701c0.163,0.172,0.388,0.257,0.676,0.257
		c0.389,0,0.811-0.116,1.263-0.349v1.365c-0.601,0.25-1.183,0.375-1.746,0.375c-0.736,0-1.308-0.19-1.714-0.571
		s-0.609-0.939-0.609-1.676v-2.571h-0.857v-0.368l2.507-2.806h0.235v1.885H43.571z"/>
	<path fill="#FFFFFF" d="M47.634,217.998c0.939,0,1.736,0.275,2.39,0.826c0.654,0.551,0.981,1.317,0.981,2.3
		c0,0.987-0.332,1.752-0.997,2.294c-0.665,0.542-1.456,0.813-2.374,0.813c-0.995,0-1.808-0.289-2.44-0.867
		c-0.633-0.579-0.949-1.329-0.949-2.253c0-0.94,0.323-1.694,0.968-2.262C45.857,218.282,46.665,217.998,47.634,217.998z
		 M47.634,223.114c0.901,0,1.352-0.68,1.352-2.041c0-1.301-0.451-1.952-1.352-1.952c-0.432,0-0.769,0.172-1.013,0.515
		c-0.243,0.343-0.365,0.835-0.365,1.475C46.256,222.447,46.715,223.114,47.634,223.114z"/>
	<path fill="#FFFFFF" d="M54.115,218.125v0.521c0.503-0.432,1.075-0.647,1.714-0.647c0.779,0,1.437,0.294,1.974,0.883
		c0.538,0.589,0.806,1.311,0.806,2.167c0,0.962-0.27,1.733-0.809,2.313c-0.539,0.581-1.253,0.871-2.142,0.871
		c-0.55,0-1.064-0.138-1.542-0.413v3.288h-1.885v-8.982H54.115z M54.115,219.82v2.755c0.355,0.262,0.719,0.394,1.092,0.394
		c0.457,0,0.82-0.164,1.089-0.492c0.269-0.328,0.403-0.771,0.403-1.33c0-0.571-0.124-1.016-0.372-1.333
		c-0.247-0.317-0.595-0.476-1.044-0.476C54.906,219.337,54.517,219.498,54.115,219.82z"/>
	<path fill="#FFFFFF" d="M69.577,222.638v1.047c-0.627,0.364-1.215,0.546-1.766,0.546c-0.592,0-0.943-0.224-1.053-0.673
		c-0.656,0.449-1.314,0.673-1.975,0.673c-0.466,0-0.861-0.147-1.188-0.442c-0.325-0.294-0.488-0.637-0.488-1.027
		c0-0.521,0.168-0.942,0.505-1.262c0.336-0.32,1.354-0.732,3.056-1.237c0.043-0.668-0.305-1.003-1.041-1.003
		c-0.799,0-1.535,0.334-2.209,1.003v-1.536c0.787-0.487,1.653-0.73,2.597-0.73c1.692,0,2.539,0.608,2.539,1.824v2.733
		c0,0.28,0.104,0.419,0.312,0.419C69.022,222.975,69.259,222.862,69.577,222.638z M66.669,222.662v-1.452
		c-0.63,0.221-1.063,0.419-1.298,0.596c-0.234,0.176-0.353,0.4-0.353,0.672c0,0.174,0.06,0.324,0.178,0.449
		c0.119,0.125,0.263,0.188,0.432,0.188C65.983,223.114,66.331,222.963,66.669,222.662z"/>
	<path fill="#FFFFFF" d="M72.243,218.125v0.851c0.555-0.652,1.204-0.978,1.949-0.978c0.621,0,1.141,0.199,1.558,0.597
		c0.417,0.398,0.626,0.968,0.626,1.709v3.813H74.49v-3.655c0-0.801-0.312-1.201-0.933-1.201c-0.445,0-0.883,0.33-1.314,0.99v3.866
		h-1.885v-5.992H72.243z"/>
	<path fill="#FFFFFF" d="M83.967,215.25v8.868h-1.885v-0.482c-0.482,0.398-1.037,0.597-1.663,0.597c-0.8,0-1.468-0.296-2.003-0.89
		c-0.535-0.593-0.803-1.336-0.803-2.23c0-0.915,0.271-1.662,0.815-2.243s1.241-0.871,2.092-0.871c0.529,0,1.05,0.127,1.562,0.381
		v-3.129H83.967z M82.082,222.473v-2.863c-0.343-0.233-0.694-0.349-1.054-0.349c-0.474,0-0.843,0.165-1.107,0.495
		s-0.397,0.793-0.397,1.39c0,0.55,0.132,0.991,0.395,1.323c0.262,0.333,0.611,0.499,1.047,0.499
		C81.35,222.968,81.723,222.803,82.082,222.473z"/>
	<path fill="#FFFFFF" d="M94.974,222.257v1.187c-0.72,0.525-1.61,0.787-2.672,0.787c-1.055,0-1.896-0.283-2.527-0.848
		c-0.63-0.565-0.945-1.314-0.945-2.247c0-0.915,0.296-1.667,0.889-2.255s1.348-0.883,2.266-0.883c0.923,0,1.68,0.31,2.27,0.93
		c0.591,0.62,0.867,1.451,0.828,2.492h-4.303c0.037,0.544,0.23,0.962,0.577,1.255s0.813,0.439,1.396,0.439
		C93.459,223.114,94.199,222.829,94.974,222.257z M90.815,220.429h2.604c-0.102-0.872-0.536-1.308-1.302-1.308
		C91.343,219.122,90.909,219.558,90.815,220.429z"/>
	<path fill="#FFFFFF" d="M102.35,218.125l-2.361,2.928l2.539,3.064h-2.189l-1.41-1.857l-1.361,1.857h-2.123l2.445-3.059
		l-2.445-2.933h2.197l1.289,1.731l1.224-1.731H102.35z"/>
	<path fill="#FFFFFF" d="M105.193,218.125v0.521c0.504-0.432,1.075-0.647,1.714-0.647c0.778,0,1.437,0.294,1.975,0.883
		c0.537,0.589,0.806,1.311,0.806,2.167c0,0.962-0.27,1.733-0.81,2.313c-0.539,0.581-1.254,0.871-2.143,0.871
		c-0.55,0-1.063-0.138-1.542-0.413v3.288h-1.886v-8.982H105.193z M105.193,219.82v2.755c0.355,0.262,0.72,0.394,1.092,0.394
		c0.457,0,0.82-0.164,1.089-0.492c0.269-0.328,0.402-0.771,0.402-1.33c0-0.571-0.123-1.016-0.371-1.333
		c-0.247-0.317-0.596-0.476-1.044-0.476C105.984,219.337,105.596,219.498,105.193,219.82z"/>
	<path fill="#FFFFFF" d="M114.017,217.998c0.939,0,1.736,0.275,2.39,0.826c0.654,0.551,0.98,1.317,0.98,2.3
		c0,0.987-0.332,1.752-0.996,2.294c-0.664,0.542-1.456,0.813-2.374,0.813c-0.994,0-1.808-0.289-2.44-0.867
		c-0.633-0.579-0.949-1.329-0.949-2.253c0-0.94,0.322-1.694,0.968-2.262C112.24,218.282,113.048,217.998,114.017,217.998z
		 M114.017,223.114c0.901,0,1.353-0.68,1.353-2.041c0-1.301-0.451-1.952-1.353-1.952c-0.432,0-0.77,0.172-1.013,0.515
		s-0.365,0.835-0.365,1.475C112.639,222.447,113.099,223.114,114.017,223.114z"/>
	<path fill="#FFFFFF" d="M122.771,218.442v1.339c-0.72-0.44-1.386-0.66-2-0.66c-0.452,0-0.679,0.154-0.679,0.463
		c0,0.081,0.048,0.16,0.144,0.238c0.095,0.079,0.46,0.244,1.095,0.497c0.635,0.253,1.083,0.544,1.345,0.875
		c0.263,0.331,0.395,0.692,0.395,1.086c0,0.623-0.212,1.104-0.635,1.442c-0.424,0.339-1.026,0.508-1.81,0.508
		c-0.804,0-1.52-0.146-2.146-0.438v-1.327c0.771,0.338,1.416,0.508,1.936,0.508c0.609,0,0.914-0.147,0.914-0.443
		c0-0.114-0.056-0.221-0.169-0.323c-0.112-0.101-0.49-0.277-1.133-0.529c-0.643-0.251-1.082-0.527-1.319-0.828
		s-0.355-0.635-0.355-1.004c0-0.546,0.228-0.991,0.683-1.334s1.055-0.515,1.8-0.515C121.55,217.998,122.195,218.146,122.771,218.442
		z"/>
	<path fill="#FFFFFF" d="M130.045,222.257v1.187c-0.72,0.525-1.61,0.787-2.672,0.787c-1.055,0-1.896-0.283-2.527-0.848
		c-0.63-0.565-0.945-1.314-0.945-2.247c0-0.915,0.296-1.667,0.889-2.255s1.348-0.883,2.266-0.883c0.923,0,1.68,0.31,2.27,0.93
		c0.591,0.62,0.867,1.451,0.828,2.492h-4.303c0.037,0.544,0.23,0.962,0.577,1.255s0.813,0.439,1.396,0.439
		C128.53,223.114,129.271,222.829,130.045,222.257z M125.887,220.429h2.604c-0.102-0.872-0.536-1.308-1.302-1.308
		C126.414,219.122,125.98,219.558,125.887,220.429z"/>
	<path fill="#FFFFFF" d="M35.49,233.725v0.768c0.64-0.597,1.334-0.895,2.083-0.895c1.029,0,1.749,0.425,2.16,1.276
		c0.724-0.851,1.512-1.276,2.363-1.276c0.69,0,1.253,0.21,1.689,0.629c0.436,0.419,0.654,0.966,0.654,1.64v3.851h-1.885v-3.515
		c0-0.424-0.098-0.753-0.292-0.988c-0.195-0.235-0.467-0.353-0.814-0.353c-0.552,0-1.048,0.339-1.489,1.017v3.839H38.08v-3.553
		c0-0.419-0.104-0.741-0.314-0.966c-0.209-0.225-0.487-0.337-0.834-0.337c-0.495,0-0.976,0.278-1.441,0.833v4.023h-1.885v-5.992
		H35.49z"/>
	<path fill="#FFFFFF" d="M45.958,231.776c0-0.288,0.102-0.533,0.305-0.736s0.446-0.305,0.73-0.305c0.288,0,0.533,0.102,0.736,0.305
		s0.305,0.449,0.305,0.736c0,0.284-0.102,0.528-0.305,0.733c-0.203,0.206-0.449,0.308-0.736,0.308c-0.284,0-0.527-0.103-0.73-0.308
		C46.059,232.304,45.958,232.06,45.958,231.776z M47.944,233.725v5.992h-1.885v-5.992H47.944z"/>
	<path fill="#FFFFFF" d="M53.664,234.042v1.339c-0.719-0.44-1.386-0.66-2-0.66c-0.453,0-0.679,0.154-0.679,0.463
		c0,0.081,0.048,0.16,0.143,0.238c0.096,0.079,0.46,0.244,1.095,0.497c0.634,0.253,1.083,0.544,1.345,0.875s0.394,0.692,0.394,1.086
		c0,0.623-0.211,1.104-0.635,1.442s-1.026,0.508-1.809,0.508c-0.804,0-1.519-0.146-2.146-0.438v-1.327
		c0.77,0.338,1.416,0.508,1.936,0.508c0.609,0,0.914-0.147,0.914-0.443c0-0.114-0.057-0.221-0.169-0.323
		c-0.113-0.101-0.491-0.277-1.133-0.529c-0.643-0.251-1.083-0.527-1.319-0.828s-0.355-0.635-0.355-1.004
		c0-0.546,0.228-0.991,0.683-1.334c0.455-0.343,1.055-0.515,1.799-0.515C52.443,233.598,53.088,233.746,53.664,234.042z"/>
	<path fill="#FFFFFF" d="M55.028,231.776c0-0.288,0.102-0.533,0.305-0.736s0.446-0.305,0.73-0.305c0.288,0,0.533,0.102,0.736,0.305
		s0.305,0.449,0.305,0.736c0,0.284-0.102,0.528-0.305,0.733c-0.203,0.206-0.449,0.308-0.736,0.308c-0.284,0-0.527-0.103-0.73-0.308
		C55.13,232.304,55.028,232.06,55.028,231.776z M57.015,233.725v5.992H55.13v-5.992H57.015z"/>
	<path fill="#FFFFFF" d="M60.5,233.725v0.851c0.555-0.652,1.204-0.978,1.949-0.978c0.621,0,1.141,0.199,1.558,0.597
		c0.417,0.398,0.626,0.968,0.626,1.709v3.813h-1.886v-3.655c0-0.801-0.312-1.201-0.933-1.201c-0.445,0-0.883,0.33-1.314,0.99v3.866
		h-1.886v-5.992H60.5z"/>
	<path fill="#FFFFFF" d="M68.353,233.725h0.856v1.289h-0.856v4.704h-1.886v-4.704H65.61v-1.289h0.856v-0.298
		c0-0.842,0.237-1.501,0.711-1.977c0.474-0.477,1.113-0.714,1.917-0.714c0.194,0,0.575,0.038,1.143,0.114v1.523
		c-0.394-0.051-0.675-0.076-0.844-0.076c-0.694,0-1.041,0.349-1.041,1.047V233.725z"/>
	<path fill="#FFFFFF" d="M73.081,233.598c0.939,0,1.736,0.275,2.39,0.826c0.654,0.551,0.98,1.317,0.98,2.3
		c0,0.987-0.332,1.752-0.996,2.294c-0.664,0.542-1.456,0.813-2.374,0.813c-0.994,0-1.808-0.289-2.44-0.867
		c-0.633-0.579-0.949-1.329-0.949-2.253c0-0.94,0.322-1.694,0.968-2.262C71.305,233.882,72.112,233.598,73.081,233.598z
		 M73.081,238.714c0.901,0,1.353-0.68,1.353-2.041c0-1.301-0.451-1.952-1.353-1.952c-0.432,0-0.77,0.172-1.013,0.515
		s-0.365,0.835-0.365,1.475C71.703,238.047,72.163,238.714,73.081,238.714z"/>
	<path fill="#FFFFFF" d="M79.651,233.725v1.714h0.025c0.546-1.227,1.183-1.841,1.91-1.841c0.348,0,0.765,0.182,1.251,0.546
		l-0.521,1.669c-0.466-0.296-0.838-0.444-1.117-0.444c-0.436,0-0.803,0.27-1.102,0.811c-0.298,0.541-0.447,0.855-0.447,0.944v2.594
		h-1.885v-5.992H79.651z"/>
	<path fill="#FFFFFF" d="M85.466,233.725v0.768c0.64-0.597,1.334-0.895,2.084-0.895c1.028,0,1.748,0.425,2.159,1.276
		c0.725-0.851,1.512-1.276,2.363-1.276c0.69,0,1.253,0.21,1.689,0.629c0.437,0.419,0.654,0.966,0.654,1.64v3.851h-1.885v-3.515
		c0-0.424-0.098-0.753-0.293-0.988c-0.195-0.235-0.467-0.353-0.814-0.353c-0.552,0-1.048,0.339-1.489,1.017v3.839h-1.879v-3.553
		c0-0.419-0.104-0.741-0.314-0.966c-0.209-0.225-0.487-0.337-0.835-0.337c-0.494,0-0.975,0.278-1.44,0.833v4.023H83.58v-5.992
		H85.466z"/>
	<path fill="#FFFFFF" d="M102.116,238.238v1.047c-0.627,0.364-1.215,0.546-1.766,0.546c-0.592,0-0.943-0.224-1.053-0.673
		c-0.656,0.449-1.314,0.673-1.975,0.673c-0.466,0-0.861-0.147-1.188-0.442c-0.325-0.294-0.488-0.637-0.488-1.027
		c0-0.521,0.168-0.942,0.505-1.262c0.336-0.32,1.354-0.732,3.056-1.237c0.043-0.668-0.305-1.003-1.041-1.003
		c-0.799,0-1.535,0.334-2.209,1.003v-1.536c0.787-0.487,1.653-0.73,2.597-0.73c1.692,0,2.539,0.608,2.539,1.824v2.733
		c0,0.28,0.104,0.419,0.312,0.419C101.562,238.575,101.798,238.462,102.116,238.238z M99.208,238.262v-1.452
		c-0.63,0.221-1.063,0.419-1.298,0.596c-0.234,0.176-0.353,0.4-0.353,0.672c0,0.174,0.06,0.324,0.178,0.449
		c0.119,0.125,0.263,0.188,0.432,0.188C98.522,238.714,98.87,238.563,99.208,238.262z"/>
	<path fill="#FFFFFF" d="M107.2,233.725v1.289h-2.184v2.469c0,0.296,0.082,0.53,0.245,0.701c0.163,0.172,0.388,0.257,0.676,0.257
		c0.39,0,0.811-0.116,1.263-0.349v1.365c-0.601,0.25-1.183,0.375-1.745,0.375c-0.736,0-1.308-0.19-1.714-0.571
		s-0.609-0.939-0.609-1.676v-2.571h-0.857v-0.368l2.508-2.806h0.234v1.885H107.2z"/>
	<path fill="#FFFFFF" d="M108.108,231.776c0-0.288,0.102-0.533,0.305-0.736s0.447-0.305,0.73-0.305c0.288,0,0.533,0.102,0.736,0.305
		s0.305,0.449,0.305,0.736c0,0.284-0.102,0.528-0.305,0.733c-0.203,0.206-0.448,0.308-0.736,0.308c-0.283,0-0.527-0.103-0.73-0.308
		C108.21,232.304,108.108,232.06,108.108,231.776z M110.096,233.725v5.992h-1.886v-5.992H110.096z"/>
	<path fill="#FFFFFF" d="M114.787,233.598c0.939,0,1.736,0.275,2.39,0.826c0.654,0.551,0.98,1.317,0.98,2.3
		c0,0.987-0.332,1.752-0.996,2.294c-0.664,0.542-1.456,0.813-2.374,0.813c-0.994,0-1.808-0.289-2.44-0.867
		c-0.633-0.579-0.949-1.329-0.949-2.253c0-0.94,0.322-1.694,0.968-2.262C113.011,233.882,113.818,233.598,114.787,233.598z
		 M114.787,238.714c0.901,0,1.353-0.68,1.353-2.041c0-1.301-0.451-1.952-1.353-1.952c-0.432,0-0.77,0.172-1.013,0.515
		s-0.365,0.835-0.365,1.475C113.409,238.047,113.869,238.714,114.787,238.714z"/>
	<path fill="#FFFFFF" d="M121.306,233.725v0.851c0.555-0.652,1.204-0.978,1.949-0.978c0.621,0,1.141,0.199,1.558,0.597
		c0.417,0.398,0.626,0.968,0.626,1.709v3.813h-1.886v-3.655c0-0.801-0.312-1.201-0.933-1.201c-0.445,0-0.883,0.33-1.314,0.99v3.866
		h-1.885v-5.992H121.306z"/>
	<path fill="#FFFFFF" d="M126.841,238.702c0-0.309,0.111-0.574,0.333-0.797c0.223-0.222,0.488-0.333,0.797-0.333
		c0.313,0,0.581,0.111,0.803,0.333c0.223,0.223,0.334,0.488,0.334,0.797c0,0.313-0.111,0.58-0.334,0.8
		c-0.222,0.22-0.489,0.33-0.803,0.33c-0.309,0-0.574-0.11-0.797-0.33C126.952,239.281,126.841,239.015,126.841,238.702z"/>
</g>
<g>
	<path fill="#FFFFFF" d="M97.757,336.071l3.938,8.868H99.32l-0.731-1.752h-3.971l-0.662,1.752h-2.341l3.582-8.868H97.757z
		 M97.943,341.639l-1.438-3.447l-1.303,3.447H97.943z"/>
	<path fill="#FFFFFF" d="M104.394,338.947v0.85c0.555-0.651,1.204-0.977,1.949-0.977c0.621,0,1.141,0.199,1.558,0.597
		c0.417,0.398,0.626,0.968,0.626,1.71v3.813h-1.886v-3.655c0-0.801-0.312-1.201-0.933-1.201c-0.445,0-0.883,0.33-1.314,0.99v3.866
		h-1.885v-5.992H104.394z"/>
	<path fill="#FFFFFF" d="M116.117,336.071v8.868h-1.885v-0.482c-0.482,0.397-1.037,0.596-1.663,0.596
		c-0.8,0-1.468-0.296-2.003-0.889c-0.535-0.594-0.803-1.337-0.803-2.23c0-0.915,0.271-1.662,0.815-2.243s1.241-0.87,2.092-0.87
		c0.529,0,1.05,0.127,1.562,0.381v-3.13H116.117z M114.232,343.295v-2.863c-0.343-0.232-0.694-0.349-1.054-0.349
		c-0.474,0-0.843,0.165-1.107,0.495s-0.397,0.793-0.397,1.391c0,0.55,0.132,0.99,0.395,1.322c0.262,0.333,0.611,0.499,1.047,0.499
		C113.5,343.79,113.873,343.625,114.232,343.295z"/>
	<path fill="#FFFFFF" d="M125.585,341.791l-1.516,3.262h-0.875l-2.71-6.105h1.923l1.267,3.301l1.339-3.301h1.143l1.327,3.301
		l1.261-3.301h1.93l-2.7,6.105h-0.897L125.585,341.791z"/>
	<path fill="#FFFFFF" d="M133.339,336.071v3.751h0.025c0.524-0.668,1.157-1.002,1.898-1.002c0.639,0,1.164,0.201,1.577,0.606
		c0.412,0.404,0.618,0.967,0.618,1.687v3.826h-1.885v-3.426c0-0.873-0.324-1.311-0.971-1.311c-0.428,0-0.849,0.304-1.264,0.909
		v3.827h-1.885v-8.868H133.339z"/>
	<path fill="#FFFFFF" d="M144.854,343.079v1.187c-0.72,0.525-1.61,0.787-2.672,0.787c-1.055,0-1.896-0.282-2.527-0.848
		c-0.63-0.565-0.945-1.314-0.945-2.246c0-0.915,0.296-1.667,0.889-2.256s1.348-0.883,2.266-0.883c0.923,0,1.68,0.31,2.27,0.93
		c0.591,0.619,0.867,1.45,0.828,2.491h-4.303c0.037,0.544,0.23,0.962,0.577,1.255s0.813,0.439,1.396,0.439
		C143.339,343.936,144.079,343.65,144.854,343.079z M140.695,341.251h2.604c-0.102-0.872-0.536-1.308-1.302-1.308
		C141.223,339.943,140.789,340.379,140.695,341.251z"/>
	<path fill="#FFFFFF" d="M148.065,338.947v0.85c0.555-0.651,1.204-0.977,1.949-0.977c0.621,0,1.141,0.199,1.558,0.597
		c0.417,0.398,0.626,0.968,0.626,1.71v3.813h-1.886v-3.655c0-0.801-0.312-1.201-0.933-1.201c-0.445,0-0.883,0.33-1.314,0.99v3.866
		h-1.885v-5.992H148.065z"/>
	<path fill="#FFFFFF" d="M161.675,338.947v1.288h-2.184v2.47c0,0.296,0.082,0.529,0.245,0.701s0.388,0.257,0.676,0.257
		c0.39,0,0.811-0.116,1.263-0.349v1.364c-0.601,0.249-1.183,0.374-1.745,0.374c-0.736,0-1.308-0.189-1.714-0.57
		s-0.609-0.939-0.609-1.676v-2.571h-0.857v-0.368l2.508-2.806h0.234v1.886H161.675z"/>
	<path fill="#FFFFFF" d="M164.558,336.071v3.751h0.025c0.524-0.668,1.157-1.002,1.898-1.002c0.639,0,1.164,0.201,1.577,0.606
		c0.412,0.404,0.618,0.967,0.618,1.687v3.826h-1.885v-3.426c0-0.873-0.324-1.311-0.971-1.311c-0.428,0-0.849,0.304-1.264,0.909
		v3.827h-1.885v-8.868H164.558z"/>
	<path fill="#FFFFFF" d="M176.072,343.079v1.187c-0.72,0.525-1.61,0.787-2.672,0.787c-1.055,0-1.896-0.282-2.527-0.848
		c-0.63-0.565-0.945-1.314-0.945-2.246c0-0.915,0.296-1.667,0.889-2.256s1.348-0.883,2.266-0.883c0.923,0,1.68,0.31,2.27,0.93
		c0.591,0.619,0.867,1.45,0.828,2.491h-4.303c0.037,0.544,0.23,0.962,0.577,1.255s0.813,0.439,1.396,0.439
		C174.558,343.936,175.298,343.65,176.072,343.079z M171.914,341.251h2.604c-0.102-0.872-0.536-1.308-1.302-1.308
		C172.441,339.943,172.008,340.379,171.914,341.251z"/>
	<path fill="#FFFFFF" d="M185.313,338.947v1.288h-2.184v2.47c0,0.296,0.082,0.529,0.245,0.701s0.388,0.257,0.676,0.257
		c0.39,0,0.811-0.116,1.263-0.349v1.364c-0.601,0.249-1.183,0.374-1.745,0.374c-0.736,0-1.308-0.189-1.714-0.57
		s-0.609-0.939-0.609-1.676v-2.571h-0.857v-0.368l2.508-2.806h0.234v1.886H185.313z"/>
	<path fill="#FFFFFF" d="M186.222,336.998c0-0.287,0.102-0.533,0.305-0.736s0.447-0.305,0.73-0.305c0.288,0,0.533,0.102,0.736,0.305
		s0.305,0.449,0.305,0.736c0,0.283-0.102,0.527-0.305,0.732c-0.203,0.206-0.448,0.309-0.736,0.309c-0.283,0-0.527-0.103-0.73-0.309
		C186.323,337.525,186.222,337.281,186.222,336.998z M188.209,338.947v5.992h-1.886v-5.992H188.209z"/>
	<path fill="#FFFFFF" d="M191.732,338.947v0.768c0.64-0.597,1.334-0.895,2.084-0.895c1.028,0,1.748,0.425,2.159,1.275
		c0.725-0.851,1.512-1.275,2.363-1.275c0.69,0,1.253,0.209,1.689,0.629c0.437,0.419,0.654,0.965,0.654,1.639v3.852h-1.885v-3.516
		c0-0.424-0.098-0.753-0.293-0.988c-0.195-0.234-0.467-0.353-0.814-0.353c-0.552,0-1.048,0.339-1.489,1.017v3.84h-1.879v-3.554
		c0-0.419-0.104-0.741-0.314-0.966c-0.209-0.225-0.487-0.337-0.835-0.337c-0.494,0-0.975,0.278-1.44,0.833v4.023h-1.886v-5.992
		H191.732z"/>
	<path fill="#FFFFFF" d="M208.109,343.079v1.187c-0.72,0.525-1.61,0.787-2.672,0.787c-1.055,0-1.896-0.282-2.527-0.848
		c-0.63-0.565-0.945-1.314-0.945-2.246c0-0.915,0.296-1.667,0.889-2.256s1.348-0.883,2.266-0.883c0.923,0,1.68,0.31,2.27,0.93
		c0.591,0.619,0.867,1.45,0.828,2.491h-4.303c0.037,0.544,0.23,0.962,0.577,1.255s0.813,0.439,1.396,0.439
		C206.595,343.936,207.335,343.65,208.109,343.079z M203.951,341.251h2.604c-0.102-0.872-0.536-1.308-1.302-1.308
		C204.479,339.943,204.045,340.379,203.951,341.251z"/>
	<path fill="#FFFFFF" d="M218.284,343.301v1.353c-0.736,0.267-1.411,0.399-2.025,0.399c-1.053,0-1.896-0.282-2.525-0.848
		c-0.631-0.565-0.946-1.314-0.946-2.246c0-0.911,0.318-1.662,0.955-2.253s1.448-0.886,2.435-0.886c0.635,0,1.308,0.131,2.019,0.393
		v1.403c-0.521-0.267-1.032-0.399-1.536-0.399c-0.563,0-1.014,0.156-1.352,0.471c-0.339,0.313-0.508,0.732-0.508,1.258
		c0,0.531,0.164,0.957,0.494,1.282c0.33,0.324,0.765,0.486,1.302,0.486C216.993,343.714,217.557,343.576,218.284,343.301z"/>
	<path fill="#FFFFFF" d="M222.639,338.82c0.939,0,1.736,0.275,2.39,0.826c0.654,0.551,0.98,1.316,0.98,2.299
		c0,0.988-0.332,1.752-0.996,2.295c-0.664,0.542-1.456,0.813-2.374,0.813c-0.994,0-1.808-0.289-2.44-0.867s-0.949-1.328-0.949-2.252
		c0-0.941,0.322-1.695,0.968-2.262C220.862,339.104,221.67,338.82,222.639,338.82z M222.639,343.936c0.901,0,1.353-0.68,1.353-2.041
		c0-1.301-0.451-1.951-1.353-1.951c-0.432,0-0.77,0.172-1.013,0.516c-0.243,0.343-0.365,0.834-0.365,1.475
		C221.261,343.269,221.721,343.936,222.639,343.936z"/>
	<path fill="#FFFFFF" d="M229.195,338.947v0.768c0.64-0.597,1.334-0.895,2.084-0.895c1.028,0,1.748,0.425,2.159,1.275
		c0.725-0.851,1.512-1.275,2.363-1.275c0.69,0,1.253,0.209,1.689,0.629c0.437,0.419,0.654,0.965,0.654,1.639v3.852h-1.885v-3.516
		c0-0.424-0.098-0.753-0.293-0.988c-0.195-0.234-0.467-0.353-0.814-0.353c-0.552,0-1.048,0.339-1.489,1.017v3.84h-1.879v-3.554
		c0-0.419-0.104-0.741-0.314-0.966c-0.209-0.225-0.487-0.337-0.835-0.337c-0.494,0-0.975,0.278-1.44,0.833v4.023h-1.886v-5.992
		H229.195z"/>
	<path fill="#FFFFFF" d="M245.572,343.079v1.187c-0.72,0.525-1.61,0.787-2.672,0.787c-1.055,0-1.896-0.282-2.527-0.848
		c-0.63-0.565-0.945-1.314-0.945-2.246c0-0.915,0.296-1.667,0.889-2.256s1.348-0.883,2.266-0.883c0.923,0,1.68,0.31,2.27,0.93
		c0.591,0.619,0.867,1.45,0.828,2.491h-4.303c0.037,0.544,0.23,0.962,0.577,1.255s0.813,0.439,1.396,0.439
		C244.058,343.936,244.798,343.65,245.572,343.079z M241.414,341.251h2.604c-0.102-0.872-0.536-1.308-1.302-1.308
		C241.941,339.943,241.508,340.379,241.414,341.251z"/>
	<path fill="#FFFFFF" d="M251.019,339.264v1.34c-0.72-0.439-1.386-0.66-2-0.66c-0.452,0-0.679,0.154-0.679,0.463
		c0,0.081,0.048,0.16,0.144,0.238c0.095,0.078,0.46,0.244,1.095,0.496c0.635,0.254,1.083,0.545,1.345,0.875
		c0.263,0.331,0.395,0.693,0.395,1.087c0,0.622-0.212,1.104-0.635,1.442c-0.424,0.339-1.026,0.508-1.81,0.508
		c-0.804,0-1.52-0.146-2.146-0.438v-1.326c0.771,0.338,1.416,0.508,1.936,0.508c0.609,0,0.914-0.148,0.914-0.443
		c0-0.114-0.056-0.222-0.169-0.323c-0.112-0.101-0.49-0.277-1.133-0.529c-0.643-0.251-1.082-0.527-1.319-0.828
		s-0.355-0.636-0.355-1.004c0-0.546,0.228-0.991,0.683-1.335c0.455-0.343,1.055-0.514,1.8-0.514
		C249.798,338.82,250.443,338.968,251.019,339.264z"/>
</g>
<g>
	<path fill="#FF0000" d="M91.751,380.77l-37.179,81.48h-8.694L6.902,380.77h21.83l21.286,45.966l20.149-45.966H91.751z"/>
	<path fill="#FF0000" d="M135.73,379.733c13.705,0,24.8,4.137,33.283,12.409c8.484,8.272,12.727,17.898,12.727,28.878
		c0,11.133-4.3,20.788-12.899,28.965c-8.599,8.177-19.636,12.265-33.11,12.265c-13.628,0-24.722-4.068-33.283-12.207
		c-8.561-8.139-12.841-17.813-12.841-29.022c0-11.018,4.252-20.653,12.755-28.906C110.864,383.86,121.987,379.733,135.73,379.733z
		 M135.73,445.552c7.602,0,13.725-2.256,18.369-6.767c4.646-4.511,6.968-10.433,6.968-17.765c0-7.37-2.322-13.302-6.968-17.793
		c-4.645-4.491-10.768-6.737-18.369-6.737c-7.639,0-13.791,2.246-18.455,6.737s-6.996,10.423-6.996,17.793
		c0,7.332,2.332,13.254,6.996,17.765S128.092,445.552,135.73,445.552z"/>
	<path fill="#FF0000" d="M261.205,380.77v14.741h-29.137v65.703h-20.039v-65.703h-29.138V380.77H261.205z"/>
	<path fill="#FF0000" d="M332.954,446.473v14.741h-59.311V380.77h58.504v14.741h-38.465v16.872h36.68v14.742h-36.68v19.348H332.954z
		"/>
</g>
</svg>
