<?xml version="1.0" encoding="utf-8"?>
<!-- Generator: Adobe Illustrator 16.0.0, SVG Export Plug-In . SVG Version: 6.00 Build 0)  -->
<!DOCTYPE svg PUBLIC "-//W3C//DTD SVG 1.1//EN" "http://www.w3.org/Graphics/SVG/1.1/DTD/svg11.dtd">
<svg version="1.1" xmlns="http://www.w3.org/2000/svg" xmlns:xlink="http://www.w3.org/1999/xlink" x="0px" y="0px" width="627px"
	 height="436px" viewBox="0 0 627 436" enable-background="new 0 0 627 436" xml:space="preserve">
<g id="Layer_2">
	<rect y="379" fill="#22B573" width="627" height="58"/>
	<rect y="401" fill="#009245" width="627" height="36"/>
</g>
<g id="Layer_1">
	<rect x="471.5" y="362.5" fill="#666666" stroke="#4D4D4D" stroke-miterlimit="10" width="54" height="35"/>
	
		<rect x="467.354" y="320.945" transform="matrix(0.9761 -0.2171 0.2171 0.9761 -61.6907 115.409)" fill="#666666" stroke="#4D4D4D" stroke-miterlimit="10" width="54" height="35"/>
	
		<rect x="459.755" y="286.781" transform="matrix(0.9761 -0.2171 0.2171 0.9761 -54.4549 112.946)" fill="#666666" stroke="#4D4D4D" stroke-miterlimit="10" width="53.999" height="34.999"/>
	
		<rect x="452.156" y="252.615" transform="matrix(0.9761 -0.2171 0.2171 0.9761 -47.2168 110.4771)" fill="#666666" stroke="#4D4D4D" stroke-miterlimit="10" width="54.001" height="35.001"/>
	
		<rect x="444.558" y="218.45" transform="matrix(0.9761 -0.2171 0.2171 0.9761 -39.9806 108.0143)" fill="#666666" stroke="#4D4D4D" stroke-miterlimit="10" width="54" height="35"/>
	
		<rect x="436.96" y="184.285" transform="matrix(0.9761 -0.2171 0.2171 0.9761 -32.7427 105.5425)" fill="#666666" stroke="#4D4D4D" stroke-miterlimit="10" width="53.999" height="35"/>
	
		<rect x="429.36" y="150.12" transform="matrix(0.9761 -0.2171 0.2171 0.9761 -25.5061 103.076)" fill="#666666" stroke="#4D4D4D" stroke-miterlimit="10" width="54" height="35"/>
	
		<rect x="421.762" y="115.954" transform="matrix(0.9761 -0.2171 0.2171 0.9761 -18.2698 100.6114)" fill="#666666" stroke="#4D4D4D" stroke-miterlimit="10" width="54" height="35"/>
	
		<rect x="414.163" y="81.789" transform="matrix(0.9761 -0.2171 0.2171 0.9761 -11.0337 98.1467)" fill="#666666" stroke="#4D4D4D" stroke-miterlimit="10" width="54" height="35"/>
	
		<rect x="406.564" y="47.624" transform="matrix(0.9762 -0.2171 0.2171 0.9762 -3.7979 95.6766)" fill="#666666" stroke="#4D4D4D" stroke-miterlimit="10" width="54.001" height="35"/>
	<g>
		<rect x="87.5" y="316.5" fill="#666666" stroke="#4D4D4D" stroke-miterlimit="10" width="54" height="11"/>
		<rect x="87.5" y="327.5" fill="#666666" stroke="#4D4D4D" stroke-miterlimit="10" width="54" height="35"/>
		<rect x="87.5" y="362.5" fill="#666666" stroke="#4D4D4D" stroke-miterlimit="10" width="54" height="35"/>
	</g>
	<g>
		<rect x="281.5" y="362.5" fill="#666666" stroke="#4D4D4D" stroke-miterlimit="10" width="54" height="35"/>
		<rect x="281.5" y="327.5" fill="#666666" stroke="#4D4D4D" stroke-miterlimit="10" width="54" height="35"/>
		<rect x="281.5" y="292.5" fill="#666666" stroke="#4D4D4D" stroke-miterlimit="10" width="54" height="35"/>
	</g>
	<g>
		<rect x="179.5" y="327.5" fill="#666666" stroke="#4D4D4D" stroke-miterlimit="10" width="54" height="35"/>
		<rect x="179.5" y="362.5" fill="#666666" stroke="#4D4D4D" stroke-miterlimit="10" width="54" height="35"/>
		<rect x="179.5" y="301.5" fill="#666666" stroke="#4D4D4D" stroke-miterlimit="10" width="54" height="26"/>
	</g>
	<g>
		<rect x="372.5" y="362.5" fill="#666666" stroke="#4D4D4D" stroke-miterlimit="10" width="54" height="35"/>
		<rect x="372.5" y="327.5" fill="#666666" stroke="#4D4D4D" stroke-miterlimit="10" width="54" height="35"/>
		<rect x="372.5" y="292.5" fill="#666666" stroke="#4D4D4D" stroke-miterlimit="10" width="54" height="35"/>
		<rect x="372.5" y="271.5" fill="#666666" stroke="#4D4D4D" stroke-miterlimit="10" width="54" height="21"/>
	</g>
	
		<rect x="436.948" y="49.236" transform="matrix(0.9762 -0.2171 0.2171 0.9762 -34.1831 101.2892)" fill="#4D4D4D" width="14" height="314"/>
	<rect x="372" y="272" fill="#4D4D4D" width="14" height="126"/>
	<rect x="281" y="292" fill="#4D4D4D" width="14" height="105"/>
	<rect x="179" y="302" fill="#4D4D4D" width="14" height="96"/>
	<rect x="87" y="317" fill="#4D4D4D" width="14" height="81"/>
	<g>
		<path fill="none" stroke="#4D4D4D" stroke-width="3" stroke-miterlimit="10" d="M114.5,304v13 M111,308.5h7"/>
	</g>
	<g>
		<path fill="none" stroke="#4D4D4D" stroke-width="3" stroke-miterlimit="10" d="M206.5,289v13 M203,293.5h7"/>
	</g>
	<g>
		<path fill="none" stroke="#4D4D4D" stroke-width="3" stroke-miterlimit="10" d="M308.5,279v13 M305,283.5h7"/>
	</g>
	<g>
		<path fill="none" stroke="#4D4D4D" stroke-width="3" stroke-miterlimit="10" d="M399.5,258v13 M396,262.5h7"/>
	</g>
	<g>
		<path fill="none" stroke="#4D4D4D" stroke-width="3" stroke-miterlimit="10" d="M426.834,34.863l2.822,12.69 M424.395,40.017
			l6.833-1.521"/>
	</g>
	<rect x="471" y="362" fill="#4D4D4D" width="14" height="36"/>
	<g>
		<path d="M113.353,287.149v2.923h-9.464v-0.4c0.868-1.06,1.861-2.4,2.979-4.025c1.117-1.623,1.823-2.776,2.117-3.46
			s0.441-1.347,0.441-1.989c0-0.561-0.187-1.043-0.559-1.445c-0.373-0.404-0.822-0.605-1.348-0.605
			c-1.046,0-2.194,0.595-3.445,1.784v-3.005c1.401-0.908,2.738-1.363,4.009-1.363c1.408,0,2.518,0.362,3.327,1.087
			c0.811,0.725,1.215,1.72,1.215,2.983c0,1.73-1.295,4.235-3.886,7.517H113.353z"/>
		<path d="M118.603,283.898v-2.521c0.595,0,1.071-0.168,1.431-0.503c0.358-0.335,0.538-0.735,0.538-1.2
			c0-0.479-0.191-0.875-0.574-1.189s-0.868-0.471-1.456-0.471c-0.8,0-1.675,0.232-2.625,0.697v-2.523
			c0.95-0.416,2.041-0.625,3.271-0.625c1.36,0,2.464,0.326,3.312,0.979c0.848,0.654,1.271,1.496,1.271,2.528
			c0,1.429-0.708,2.532-2.123,3.312c1.675,0.656,2.512,1.884,2.512,3.682c0,1.271-0.461,2.289-1.384,3.051s-2.16,1.143-3.712,1.143
			c-1.265,0-2.434-0.27-3.507-0.81v-2.778c1.08,0.758,2.088,1.138,3.025,1.138c0.663,0,1.203-0.176,1.62-0.528
			c0.417-0.352,0.625-0.809,0.625-1.369s-0.2-1.028-0.6-1.404C119.828,284.128,119.286,283.926,118.603,283.898z"/>
	</g>
	<g>
		<path d="M205.353,268.774v2.923h-9.464v-0.4c0.868-1.06,1.861-2.4,2.979-4.025c1.117-1.623,1.823-2.776,2.117-3.46
			s0.441-1.347,0.441-1.989c0-0.561-0.187-1.043-0.559-1.445c-0.373-0.404-0.822-0.605-1.348-0.605
			c-1.046,0-2.194,0.595-3.445,1.784v-3.005c1.401-0.908,2.738-1.363,4.009-1.363c1.408,0,2.518,0.362,3.327,1.087
			c0.811,0.725,1.215,1.72,1.215,2.983c0,1.73-1.295,4.235-3.886,7.517H205.353z"/>
		<path d="M209.505,264.14c-1.176-0.738-1.764-1.761-1.764-3.065c0-1.162,0.4-2.101,1.2-2.814c0.8-0.715,1.849-1.072,3.148-1.072
			c1.367,0,2.451,0.381,3.25,1.143c0.8,0.764,1.2,1.684,1.2,2.764c0,1.334-0.581,2.349-1.743,3.046
			c1.429,0.738,2.143,1.894,2.143,3.466c0,1.285-0.439,2.319-1.317,3.102c-0.879,0.783-2.049,1.174-3.512,1.174
			c-1.408,0-2.555-0.396-3.44-1.189c-0.886-0.793-1.328-1.814-1.328-3.065C207.342,265.965,208.063,264.803,209.505,264.14z
			 M212.171,269.789c0.472,0,0.853-0.199,1.143-0.598c0.291-0.399,0.436-0.934,0.436-1.602c0-0.702-0.146-1.26-0.436-1.672
			c-0.291-0.413-0.678-0.619-1.164-0.619s-0.875,0.199-1.169,0.598c-0.294,0.399-0.441,0.934-0.441,1.602
			c0,0.695,0.15,1.252,0.451,1.668S211.686,269.789,212.171,269.789z M212.171,263.258c0.41,0,0.729-0.183,0.958-0.549
			c0.229-0.365,0.344-0.869,0.344-1.512c0-1.271-0.448-1.908-1.343-1.908c-0.403,0-0.725,0.174-0.964,0.518
			c-0.239,0.346-0.359,0.822-0.359,1.432c0,0.621,0.123,1.113,0.369,1.477C211.423,263.076,211.754,263.258,212.171,263.258z"/>
	</g>
	<g>
		<path d="M301.016,253.523v-2.521c0.595,0,1.071-0.168,1.431-0.503c0.358-0.335,0.538-0.735,0.538-1.2
			c0-0.479-0.191-0.875-0.574-1.189s-0.868-0.471-1.456-0.471c-0.8,0-1.675,0.232-2.625,0.697v-2.523
			c0.95-0.416,2.041-0.625,3.271-0.625c1.36,0,2.464,0.326,3.312,0.979c0.848,0.654,1.271,1.496,1.271,2.528
			c0,1.429-0.708,2.532-2.123,3.312c1.675,0.656,2.512,1.884,2.512,3.682c0,1.271-0.461,2.289-1.384,3.051s-2.16,1.143-3.712,1.143
			c-1.265,0-2.434-0.27-3.507-0.81v-2.778c1.08,0.758,2.088,1.138,3.025,1.138c0.663,0,1.203-0.176,1.62-0.528
			c0.417-0.352,0.625-0.809,0.625-1.369s-0.2-1.028-0.6-1.404C302.241,253.753,301.699,253.551,301.016,253.523z"/>
		<path d="M314.151,245.188c1.518,0,2.702,0.652,3.553,1.959c0.851,1.305,1.276,3.079,1.276,5.321c0,2.331-0.414,4.149-1.241,5.455
			s-2.01,1.958-3.548,1.958c-1.559,0-2.771-0.648-3.635-1.947s-1.297-3.098-1.297-5.395c0-2.324,0.439-4.13,1.317-5.418
			C311.456,245.832,312.647,245.188,314.151,245.188z M314.151,257.195c0.574,0,0.991-0.348,1.251-1.041s0.39-1.998,0.39-3.912
			c0-1.593-0.128-2.719-0.384-3.379c-0.257-0.659-0.682-0.989-1.277-0.989c-0.581,0-1.007,0.323-1.277,0.97
			c-0.27,0.645-0.405,1.926-0.405,3.84c0,1.605,0.135,2.76,0.405,3.461C313.124,256.845,313.556,257.195,314.151,257.195z"/>
	</g>
	<g>
		<path d="M392.016,230.068v-2.521c0.595,0,1.071-0.168,1.431-0.503c0.358-0.335,0.538-0.735,0.538-1.2
			c0-0.479-0.191-0.875-0.574-1.189s-0.868-0.471-1.456-0.471c-0.8,0-1.675,0.232-2.625,0.697v-2.523
			c0.95-0.416,2.04-0.625,3.271-0.625c1.361,0,2.465,0.326,3.313,0.979c0.848,0.654,1.271,1.496,1.271,2.528
			c0,1.429-0.707,2.532-2.123,3.312c1.676,0.656,2.513,1.884,2.513,3.682c0,1.271-0.462,2.289-1.384,3.051
			c-0.924,0.762-2.16,1.143-3.713,1.143c-1.264,0-2.434-0.27-3.506-0.81v-2.778c1.08,0.758,2.088,1.138,3.024,1.138
			c0.663,0,1.203-0.176,1.62-0.528c0.417-0.352,0.625-0.809,0.625-1.369s-0.199-1.028-0.6-1.404
			C393.241,230.298,392.699,230.096,392.016,230.068z"/>
		<path d="M408.217,221.732l-3.311,5.414c0.314-0.082,0.631-0.123,0.953-0.123c1.072,0,1.99,0.414,2.752,1.24
			c0.762,0.828,1.144,1.918,1.144,3.271c0,1.401-0.451,2.566-1.354,3.496s-2.034,1.395-3.394,1.395c-1.402,0-2.543-0.469-3.426-1.41
			c-0.881-0.939-1.322-2.161-1.322-3.665c0-1.634,0.652-3.503,1.959-5.608l2.476-4.01H408.217z M405.068,233.74
			c0.492,0,0.886-0.189,1.18-0.57c0.294-0.379,0.441-0.896,0.441-1.553c0-0.643-0.15-1.158-0.451-1.549
			c-0.301-0.389-0.697-0.584-1.189-0.584s-0.883,0.195-1.17,0.584c-0.287,0.391-0.43,0.924-0.43,1.6c0,0.656,0.143,1.166,0.43,1.528
			S404.563,233.74,405.068,233.74z"/>
	</g>
	<g>
		<path d="M407.438,9.834l3.791,18.024l-3.986,0.838l-3.79-18.023L407.438,9.834z"/>
		<path d="M420.06,6.937c1.91-0.401,3.573,0.107,4.988,1.525c1.417,1.417,2.421,3.537,3.015,6.358
			c0.617,2.933,0.578,5.33-0.118,7.192c-0.694,1.861-2.011,2.996-3.945,3.402c-1.961,0.413-3.656-0.083-5.089-1.489
			c-1.432-1.405-2.451-3.553-3.059-6.443c-0.615-2.924-0.542-5.313,0.223-7.167C416.84,8.462,418.168,7.335,420.06,6.937z
			 M423.237,22.045c0.723-0.152,1.153-0.698,1.298-1.64c0.144-0.942-0.037-2.617-0.544-5.026c-0.422-2.004-0.881-3.387-1.379-4.149
			c-0.496-0.762-1.119-1.064-1.869-0.908c-0.729,0.154-1.18,0.674-1.348,1.557c-0.17,0.885-0.001,2.531,0.505,4.939
			c0.425,2.021,0.9,3.437,1.427,4.247C421.852,21.876,422.488,22.202,423.237,22.045z"/>
		<path d="M443.729,17.183l0.772,3.677l-11.907,2.505l-0.106-0.503c0.812-1.563,1.707-3.514,2.683-5.852
			c0.977-2.339,1.56-3.978,1.749-4.915c0.189-0.938,0.198-1.812,0.028-2.62c-0.148-0.706-0.511-1.262-1.085-1.671
			c-0.576-0.409-1.195-0.543-1.857-0.404c-1.316,0.277-2.604,1.329-3.862,3.157l-0.795-3.78c1.521-1.515,3.083-2.44,4.684-2.777
			c1.771-0.373,3.263-0.21,4.474,0.487c1.211,0.698,1.983,1.842,2.318,3.433c0.457,2.176-0.509,5.671-2.901,10.485L443.729,17.183z"
			/>
	</g>
	<g>
		<path fill="#FFFFFF" d="M97.369,389.74v1.489c-0.853,0.452-1.747,0.679-2.681,0.679c-1.211,0-2.175-0.334-2.893-1.004
			c-0.718-0.668-1.077-1.493-1.077-2.473s0.378-1.812,1.135-2.495s1.746-1.025,2.966-1.025c0.973,0,1.797,0.2,2.471,0.601v1.519
			c-0.827-0.466-1.61-0.698-2.349-0.698c-0.726,0-1.319,0.194-1.78,0.584c-0.46,0.389-0.691,0.884-0.691,1.486
			c0,0.605,0.227,1.105,0.681,1.499s1.036,0.591,1.746,0.591c0.352,0,0.69-0.047,1.016-0.139
			C96.24,390.26,96.725,390.056,97.369,389.74z"/>
		<path fill="#FFFFFF" d="M102.713,384.999l3.03,6.821h-1.827l-0.562-1.348h-3.055l-0.509,1.348h-1.801l2.755-6.821H102.713z
			 M102.857,389.281l-1.105-2.651l-1.002,2.651H102.857z"/>
		<path fill="#FFFFFF" d="M113.438,384.999v6.821h-1.435l-3.765-4.37v4.37h-1.699v-6.821h1.558l3.642,4.17v-4.17H113.438z"/>
		<path fill="#FFFFFF" d="M118.963,384.999l3.03,6.821h-1.827l-0.562-1.348h-3.055l-0.509,1.348h-1.801l2.755-6.821H118.963z
			 M119.107,389.281l-1.105-2.651L117,389.281H119.107z"/>
		<path fill="#FFFFFF" d="M122.77,384.999h3.008c1.162,0,2.081,0.318,2.756,0.954c0.675,0.637,1.013,1.46,1.013,2.469
			c0,1.058-0.343,1.889-1.028,2.492c-0.685,0.604-1.663,0.906-2.932,0.906h-2.817V384.999z M124.469,386.249v4.321h1.108
			c0.719,0,1.27-0.197,1.65-0.594c0.381-0.395,0.571-0.917,0.571-1.564c0-0.671-0.193-1.199-0.579-1.584
			c-0.386-0.387-0.94-0.579-1.663-0.579H124.469z"/>
		<path fill="#FFFFFF" d="M134.237,384.999l3.03,6.821h-1.827l-0.562-1.348h-3.055l-0.509,1.348h-1.801l2.755-6.821H134.237z
			 M134.38,389.281l-1.105-2.651l-1.002,2.651H134.38z"/>
	</g>
	<g>
		<path fill="#FFFFFF" d="M190.209,384.999v1.25h-2.998v1.523h2.998v1.25h-2.998v2.798h-1.699v-6.821H190.209z"/>
		<path fill="#FFFFFF" d="M191.552,384.999h3.047c0.661,0,1.198,0.191,1.611,0.573c0.414,0.383,0.62,0.845,0.62,1.389
			c0,0.751-0.391,1.308-1.172,1.668c0.342,0.156,0.668,0.576,0.977,1.259c0.309,0.684,0.606,1.327,0.894,1.933h-1.865
			c-0.111-0.225-0.305-0.652-0.582-1.284c-0.277-0.632-0.514-1.037-0.71-1.216s-0.408-0.269-0.632-0.269h-0.488v2.769h-1.699
			V384.999z M193.251,386.249v1.553h0.898c0.287,0,0.514-0.067,0.681-0.202c0.167-0.136,0.251-0.328,0.251-0.579
			c0-0.515-0.324-0.771-0.972-0.771H193.251z"/>
		<path fill="#FFFFFF" d="M202.311,384.999l3.03,6.821h-1.827l-0.562-1.348h-3.055l-0.509,1.348h-1.801l2.755-6.821H202.311z
			 M202.455,389.281l-1.105-2.651l-1.002,2.651H202.455z"/>
		<path fill="#FFFFFF" d="M213.036,384.999v6.821h-1.435l-3.765-4.37v4.37h-1.699v-6.821h1.558l3.642,4.17v-4.17H213.036z"/>
		<path fill="#FFFFFF" d="M220.927,389.74v1.489c-0.853,0.452-1.747,0.679-2.681,0.679c-1.211,0-2.175-0.334-2.893-1.004
			c-0.718-0.668-1.077-1.493-1.077-2.473s0.378-1.812,1.135-2.495s1.746-1.025,2.966-1.025c0.973,0,1.797,0.2,2.471,0.601v1.519
			c-0.827-0.466-1.61-0.698-2.349-0.698c-0.726,0-1.319,0.194-1.78,0.584c-0.46,0.389-0.691,0.884-0.691,1.486
			c0,0.605,0.227,1.105,0.681,1.499s1.036,0.591,1.746,0.591c0.352,0,0.69-0.047,1.016-0.139
			C219.797,390.26,220.282,390.056,220.927,389.74z"/>
		<path fill="#FFFFFF" d="M227.328,390.57v1.25h-5.029v-6.821h4.961v1.25h-3.262v1.431h3.11v1.25h-3.11v1.641H227.328z"/>
	</g>
	<g>
		<path fill="#FFFFFF" d="M289.003,384.999l3.03,6.821h-1.827l-0.562-1.348h-3.055l-0.509,1.348h-1.801l2.755-6.821H289.003z
			 M289.147,389.281l-1.105-2.651l-1.002,2.651H289.147z"/>
		<path fill="#FFFFFF" d="M297.678,384.999h1.699v3.872c0,0.996-0.294,1.751-0.884,2.266s-1.431,0.771-2.524,0.771
			c-1.081,0-1.92-0.261-2.517-0.781s-0.896-1.27-0.896-2.246v-3.882h1.704v3.921c0,0.476,0.155,0.856,0.466,1.143
			s0.719,0.43,1.223,0.43c0.524,0,0.943-0.146,1.257-0.439s0.471-0.71,0.471-1.25V384.999z"/>
		<path fill="#FFFFFF" d="M305.48,385.438v1.333c-0.905-0.407-1.626-0.61-2.163-0.61c-0.306,0-0.549,0.052-0.73,0.153
			c-0.181,0.104-0.271,0.239-0.271,0.408c0,0.13,0.065,0.254,0.195,0.371s0.448,0.269,0.952,0.454s0.908,0.358,1.211,0.518
			s0.564,0.384,0.784,0.674s0.33,0.656,0.33,1.099c0,0.632-0.24,1.135-0.72,1.509s-1.112,0.562-1.897,0.562
			c-0.846,0-1.667-0.22-2.461-0.659v-1.47c0.456,0.306,0.859,0.529,1.211,0.669s0.724,0.21,1.118,0.21
			c0.667,0,1.001-0.21,1.001-0.63c0-0.143-0.067-0.277-0.2-0.404c-0.134-0.127-0.455-0.282-0.965-0.464
			c-0.509-0.183-0.913-0.352-1.211-0.508c-0.297-0.156-0.555-0.379-0.771-0.669s-0.325-0.661-0.325-1.113
			c0-0.587,0.236-1.06,0.708-1.419c0.472-0.36,1.104-0.54,1.895-0.54C303.9,384.911,304.67,385.087,305.48,385.438z"/>
		<path fill="#FFFFFF" d="M313.049,384.999v1.25h-2.471v5.571h-1.699v-5.571h-2.471v-1.25H313.049z"/>
		<path fill="#FFFFFF" d="M314.084,384.999h3.047c0.661,0,1.198,0.191,1.611,0.573c0.414,0.383,0.62,0.845,0.62,1.389
			c0,0.751-0.391,1.308-1.172,1.668c0.342,0.156,0.668,0.576,0.977,1.259c0.309,0.684,0.606,1.327,0.894,1.933h-1.865
			c-0.111-0.225-0.305-0.652-0.582-1.284c-0.277-0.632-0.514-1.037-0.71-1.216s-0.408-0.269-0.632-0.269h-0.488v2.769h-1.699
			V384.999z M315.783,386.249v1.553h0.898c0.287,0,0.514-0.067,0.681-0.202c0.167-0.136,0.251-0.328,0.251-0.579
			c0-0.515-0.324-0.771-0.972-0.771H315.783z"/>
		<path fill="#FFFFFF" d="M322.609,384.999v6.821h-1.699v-6.821H322.609z"/>
		<path fill="#FFFFFF" d="M328.174,384.999l3.029,6.821h-1.827l-0.562-1.348h-3.055l-0.51,1.348h-1.801l2.756-6.821H328.174z
			 M328.316,389.281l-1.105-2.651l-1.002,2.651H328.316z"/>
	</g>
	<g>
		<path fill="#FFFFFF" d="M380.709,384.999v1.25h-2.998v1.523h2.998v1.25h-2.998v2.798h-1.699v-6.821H380.709z"/>
		<path fill="#FFFFFF" d="M383.81,384.999v6.821h-1.699v-6.821H383.81z"/>
		<path fill="#FFFFFF" d="M392.291,384.999v6.821h-1.436l-3.765-4.37v4.37h-1.699v-6.821h1.558l3.643,4.17v-4.17H392.291z"/>
		<path fill="#FFFFFF" d="M399.024,390.57v1.25h-5.2v-6.821h1.699v5.571H399.024z"/>
		<path fill="#FFFFFF" d="M403.969,384.999l3.029,6.821h-1.827l-0.562-1.348h-3.055l-0.51,1.348h-1.801l2.756-6.821H403.969z
			 M404.111,389.281l-1.105-2.651l-1.002,2.651H404.111z"/>
		<path fill="#FFFFFF" d="M414.693,384.999v6.821h-1.436l-3.765-4.37v4.37h-1.699v-6.821h1.558l3.643,4.17v-4.17H414.693z"/>
		<path fill="#FFFFFF" d="M416.217,384.999h3.008c1.162,0,2.081,0.318,2.756,0.954c0.676,0.637,1.014,1.46,1.014,2.469
			c0,1.058-0.343,1.889-1.027,2.492c-0.686,0.604-1.663,0.906-2.933,0.906h-2.817V384.999z M417.916,386.249v4.321h1.108
			c0.72,0,1.27-0.197,1.65-0.594c0.381-0.395,0.571-0.917,0.571-1.564c0-0.671-0.193-1.199-0.578-1.584
			c-0.387-0.387-0.94-0.579-1.663-0.579H417.916z"/>
	</g>
	<g>
		<path fill="#FFFFFF" d="M490.695,384.999h1.699v3.872c0,0.996-0.295,1.751-0.885,2.266c-0.589,0.515-1.43,0.771-2.523,0.771
			c-1.081,0-1.92-0.261-2.518-0.781s-0.896-1.27-0.896-2.246v-3.882h1.705v3.921c0,0.476,0.154,0.856,0.466,1.143
			s0.719,0.43,1.224,0.43c0.523,0,0.943-0.146,1.257-0.439s0.472-0.71,0.472-1.25V384.999z"/>
		<path fill="#FFFFFF" d="M493.336,391.039c0-0.237,0.086-0.441,0.257-0.613c0.171-0.17,0.375-0.256,0.612-0.256
			c0.241,0,0.447,0.086,0.618,0.256c0.171,0.172,0.257,0.376,0.257,0.613c0,0.241-0.086,0.446-0.257,0.615s-0.377,0.254-0.618,0.254
			c-0.237,0-0.441-0.085-0.612-0.254S493.336,391.28,493.336,391.039z"/>
		<path fill="#FFFFFF" d="M500.959,385.438v1.333c-0.905-0.407-1.627-0.61-2.164-0.61c-0.306,0-0.549,0.052-0.729,0.153
			c-0.181,0.104-0.271,0.239-0.271,0.408c0,0.13,0.064,0.254,0.195,0.371c0.13,0.117,0.447,0.269,0.951,0.454
			c0.505,0.186,0.908,0.358,1.211,0.518s0.564,0.384,0.784,0.674s0.329,0.656,0.329,1.099c0,0.632-0.24,1.135-0.72,1.509
			s-1.112,0.562-1.897,0.562c-0.846,0-1.666-0.22-2.461-0.659v-1.47c0.456,0.306,0.859,0.529,1.211,0.669s0.725,0.21,1.119,0.21
			c0.667,0,1-0.21,1-0.63c0-0.143-0.066-0.277-0.199-0.404c-0.135-0.127-0.455-0.282-0.965-0.464
			c-0.51-0.183-0.914-0.352-1.211-0.508c-0.298-0.156-0.555-0.379-0.771-0.669s-0.324-0.661-0.324-1.113
			c0-0.587,0.235-1.06,0.707-1.419c0.473-0.36,1.104-0.54,1.895-0.54C499.378,384.911,500.148,385.087,500.959,385.438z"/>
		<path fill="#FFFFFF" d="M502.086,391.039c0-0.237,0.086-0.441,0.257-0.613c0.171-0.17,0.375-0.256,0.612-0.256
			c0.241,0,0.447,0.086,0.618,0.256c0.171,0.172,0.257,0.376,0.257,0.613c0,0.241-0.086,0.446-0.257,0.615s-0.377,0.254-0.618,0.254
			c-0.237,0-0.441-0.085-0.612-0.254S502.086,391.28,502.086,391.039z"/>
		<path fill="#FFFFFF" d="M509.071,384.999l3.03,6.821h-1.828l-0.562-1.348h-3.055l-0.509,1.348h-1.801l2.755-6.821H509.071z
			 M509.215,389.281l-1.105-2.651l-1.002,2.651H509.215z"/>
	</g>
	<g>
		<path d="M130.111,53.895v3.574c-2.086-1.008-4.125-1.512-6.117-1.512c-1.922,0-3.402,0.484-4.441,1.453s-1.559,2.203-1.559,3.703
			c0,1.438,0.52,2.602,1.559,3.492s2.406,1.336,4.102,1.336c0.898,0,1.801-0.195,2.707-0.586v-1.91h-2.367v-3h6.457v6.691
			c-0.648,0.648-1.635,1.178-2.959,1.588s-2.635,0.615-3.932,0.615c-2.852,0-5.193-0.787-7.025-2.361s-2.748-3.576-2.748-6.006
			c0-2.484,0.916-4.51,2.748-6.076s4.205-2.35,7.119-2.35C126.061,52.547,128.213,52.996,130.111,53.895z"/>
		<path d="M141.244,69.129v-1.582c-1.023,1.195-2.215,1.793-3.574,1.793c-1.203,0-2.18-0.371-2.93-1.113s-1.125-1.77-1.125-3.082
			v-7.078h3.48v6.835c0,1.404,0.582,2.106,1.746,2.106c0.656,0,1.217-0.255,1.682-0.767c0.465-0.511,0.697-0.887,0.697-1.129v-7.045
			h3.504v11.063H141.244z"/>
		<path d="M151.088,58.066v1.57c1.023-1.203,2.223-1.805,3.598-1.805c1.148,0,2.107,0.368,2.877,1.103
			c0.77,0.735,1.154,1.787,1.154,3.156v7.039h-3.48v-6.747c0-1.479-0.574-2.218-1.723-2.218c-0.82,0-1.629,0.609-2.426,1.828v7.137
			h-3.48V58.066H151.088z"/>
		<path d="M171.842,58.066v3.164h0.047c1.008-2.266,2.184-3.398,3.527-3.398c0.641,0,1.41,0.336,2.309,1.008l-0.961,3.082
			c-0.859-0.547-1.547-0.82-2.063-0.82c-0.805,0-1.482,0.499-2.033,1.496c-0.551,0.998-0.826,1.579-0.826,1.743v4.788h-3.48V58.066
			H171.842z"/>
		<path d="M189.338,65.695v2.191c-1.328,0.969-2.973,1.453-4.934,1.453c-1.945,0-3.5-0.522-4.664-1.566s-1.746-2.426-1.746-4.147
			c0-1.689,0.547-3.077,1.641-4.165c1.094-1.087,2.488-1.63,4.184-1.63c1.703,0,3.1,0.572,4.189,1.717s1.6,2.678,1.529,4.6h-7.945
			c0.07,1.004,0.426,1.776,1.066,2.317s1.5,0.812,2.578,0.812C186.541,67.277,187.908,66.75,189.338,65.695z M181.662,62.32h4.805
			c-0.188-1.609-0.988-2.414-2.402-2.414C182.635,59.906,181.834,60.711,181.662,62.32z"/>
		<path d="M195.338,52.758v16.371h-3.48V52.758H195.338z"/>
		<path d="M209.588,66.398v1.934c-1.156,0.672-2.242,1.008-3.258,1.008c-1.094,0-1.742-0.414-1.945-1.242
			c-1.211,0.828-2.426,1.242-3.645,1.242c-0.859,0-1.59-0.272-2.191-0.816c-0.602-0.543-0.902-1.175-0.902-1.896
			c0-0.962,0.311-1.739,0.932-2.33s2.502-1.352,5.643-2.283c0.078-1.234-0.563-1.852-1.922-1.852c-1.477,0-2.836,0.617-4.078,1.852
			V59.18c1.453-0.898,3.051-1.348,4.793-1.348c3.125,0,4.688,1.123,4.688,3.368v5.045c0,0.517,0.191,0.774,0.574,0.774
			C208.564,67.02,209.002,66.813,209.588,66.398z M204.221,66.442v-2.681c-1.164,0.408-1.963,0.774-2.396,1.1s-0.65,0.739-0.65,1.24
			c0,0.321,0.109,0.598,0.328,0.829c0.219,0.231,0.484,0.347,0.797,0.347C202.955,67.277,203.596,66.999,204.221,66.442z"/>
		<path d="M218.975,58.066v2.379h-4.031v4.559c0,0.547,0.15,0.979,0.451,1.295s0.717,0.475,1.248,0.475
			c0.719,0,1.496-0.215,2.332-0.645v2.52c-1.109,0.461-2.184,0.691-3.223,0.691c-1.359,0-2.414-0.352-3.164-1.055
			s-1.125-1.734-1.125-3.094v-4.746h-1.582v-0.68l4.629-5.18h0.434v3.48H218.975z"/>
		<path d="M231.561,65.695v2.191c-1.328,0.969-2.973,1.453-4.934,1.453c-1.945,0-3.5-0.522-4.664-1.566s-1.746-2.426-1.746-4.147
			c0-1.689,0.547-3.077,1.641-4.165c1.094-1.087,2.488-1.63,4.184-1.63c1.703,0,3.1,0.572,4.189,1.717s1.6,2.678,1.529,4.6h-7.945
			c0.07,1.004,0.426,1.776,1.066,2.317s1.5,0.812,2.578,0.812C228.764,67.277,230.131,66.75,231.561,65.695z M223.885,62.32h4.805
			c-0.188-1.609-0.988-2.414-2.402-2.414C224.857,59.906,224.057,60.711,223.885,62.32z"/>
		<path d="M245.143,52.758v16.371h-3.48v-0.891c-0.891,0.734-1.914,1.102-3.07,1.102c-1.477,0-2.709-0.547-3.697-1.642
			c-0.988-1.095-1.482-2.467-1.482-4.118c0-1.689,0.502-3.069,1.506-4.141c1.004-1.071,2.291-1.607,3.861-1.607
			c0.977,0,1.938,0.234,2.883,0.703v-5.777H245.143z M241.662,66.094v-5.285c-0.633-0.43-1.281-0.645-1.945-0.645
			c-0.875,0-1.557,0.305-2.045,0.914s-0.732,1.465-0.732,2.566c0,1.016,0.242,1.83,0.727,2.443s1.129,0.92,1.934,0.92
			C240.311,67.008,240.998,66.703,241.662,66.094z"/>
		<path d="M265.803,52.758v16.371h-3.48v-0.891c-0.891,0.734-1.914,1.102-3.07,1.102c-1.477,0-2.709-0.547-3.697-1.642
			c-0.988-1.095-1.482-2.467-1.482-4.118c0-1.689,0.502-3.069,1.506-4.141c1.004-1.071,2.291-1.607,3.861-1.607
			c0.977,0,1.938,0.234,2.883,0.703v-5.777H265.803z M262.322,66.094v-5.285c-0.633-0.43-1.281-0.645-1.945-0.645
			c-0.875,0-1.557,0.305-2.045,0.914s-0.732,1.465-0.732,2.566c0,1.016,0.242,1.83,0.727,2.443s1.129,0.92,1.934,0.92
			C260.971,67.008,261.658,66.703,262.322,66.094z"/>
		<path d="M279.455,65.695v2.191c-1.328,0.969-2.973,1.453-4.934,1.453c-1.945,0-3.5-0.522-4.664-1.566s-1.746-2.426-1.746-4.147
			c0-1.689,0.547-3.077,1.641-4.165c1.094-1.087,2.488-1.63,4.184-1.63c1.703,0,3.1,0.572,4.189,1.717s1.6,2.678,1.529,4.6h-7.945
			c0.07,1.004,0.426,1.776,1.066,2.317s1.5,0.812,2.578,0.812C276.658,67.277,278.025,66.75,279.455,65.695z M271.779,62.32h4.805
			c-0.188-1.609-0.988-2.414-2.402-2.414C272.752,59.906,271.951,60.711,271.779,62.32z"/>
		<path d="M293.201,66.398v1.934c-1.156,0.672-2.242,1.008-3.258,1.008c-1.094,0-1.742-0.414-1.945-1.242
			c-1.211,0.828-2.426,1.242-3.645,1.242c-0.859,0-1.59-0.272-2.191-0.816c-0.602-0.543-0.902-1.175-0.902-1.896
			c0-0.962,0.311-1.739,0.932-2.33s2.502-1.352,5.643-2.283c0.078-1.234-0.563-1.852-1.922-1.852c-1.477,0-2.836,0.617-4.078,1.852
			V59.18c1.453-0.898,3.051-1.348,4.793-1.348c3.125,0,4.688,1.123,4.688,3.368v5.045c0,0.517,0.191,0.774,0.574,0.774
			C292.178,67.02,292.615,66.813,293.201,66.398z M287.834,66.442v-2.681c-1.164,0.408-1.963,0.774-2.396,1.1s-0.65,0.739-0.65,1.24
			c0,0.321,0.109,0.598,0.328,0.829c0.219,0.231,0.484,0.347,0.797,0.347C286.568,67.277,287.209,66.999,287.834,66.442z"/>
		<path d="M302.588,58.066v2.379h-4.031v4.559c0,0.547,0.15,0.979,0.451,1.295s0.717,0.475,1.248,0.475
			c0.719,0,1.496-0.215,2.332-0.645v2.52c-1.109,0.461-2.184,0.691-3.223,0.691c-1.359,0-2.414-0.352-3.164-1.055
			s-1.125-1.734-1.125-3.094v-4.746h-1.582v-0.68l4.629-5.18h0.434v3.48H302.588z"/>
		<path d="M307.908,52.758v6.926h0.047c0.969-1.234,2.137-1.852,3.504-1.852c1.18,0,2.15,0.374,2.912,1.121
			c0.762,0.747,1.143,1.785,1.143,3.114v7.062h-3.48v-6.325c0-1.612-0.598-2.417-1.793-2.417c-0.789,0-1.566,0.56-2.332,1.678v7.064
			h-3.48V52.758H307.908z"/>
		<path d="M325.979,58.652v2.473c-1.328-0.813-2.559-1.219-3.691-1.219c-0.836,0-1.254,0.285-1.254,0.855
			c0,0.148,0.088,0.295,0.265,0.439c0.176,0.145,0.85,0.45,2.021,0.917c1.171,0.467,1.999,1.005,2.483,1.615
			c0.484,0.61,0.727,1.279,0.727,2.006c0,1.15-0.391,2.038-1.172,2.663c-0.781,0.626-1.895,0.938-3.34,0.938
			c-1.484,0-2.805-0.27-3.961-0.809v-2.449c1.422,0.625,2.613,0.938,3.574,0.938c1.125,0,1.688-0.272,1.688-0.818
			c0-0.21-0.104-0.409-0.312-0.596c-0.208-0.187-0.906-0.513-2.092-0.977c-1.187-0.464-1.999-0.974-2.436-1.529
			s-0.656-1.173-0.656-1.854c0-1.009,0.42-1.83,1.26-2.463c0.84-0.633,1.947-0.95,3.322-0.95
			C323.725,57.832,324.916,58.105,325.979,58.652z"/>
		<path d="M335.166,54.469c0-0.531,0.188-0.984,0.563-1.359s0.824-0.563,1.348-0.563c0.531,0,0.984,0.188,1.359,0.563
			s0.563,0.828,0.563,1.359c0,0.523-0.188,0.975-0.563,1.354s-0.828,0.568-1.359,0.568c-0.523,0-0.973-0.189-1.348-0.568
			S335.166,54.992,335.166,54.469z M338.834,58.066v11.063h-3.48V58.066H338.834z"/>
		<path d="M345.268,58.066v1.57c1.023-1.203,2.223-1.805,3.598-1.805c1.148,0,2.107,0.368,2.877,1.103
			c0.77,0.735,1.154,1.787,1.154,3.156v7.039h-3.48v-6.747c0-1.479-0.574-2.218-1.723-2.218c-0.82,0-1.629,0.609-2.426,1.828v7.137
			h-3.48V58.066H345.268z"/>
		<path d="M114.191,81.558v6.926h0.047c0.969-1.234,2.137-1.852,3.504-1.852c1.18,0,2.15,0.374,2.912,1.121
			c0.762,0.747,1.143,1.785,1.143,3.114v7.062h-3.48v-6.325c0-1.612-0.598-2.417-1.793-2.417c-0.789,0-1.566,0.56-2.332,1.678v7.064
			h-3.48V81.558H114.191z"/>
		<path d="M124.539,83.269c0-0.531,0.188-0.984,0.563-1.359s0.824-0.563,1.348-0.563c0.531,0,0.984,0.188,1.359,0.563
			s0.563,0.828,0.563,1.359c0,0.523-0.188,0.975-0.563,1.354s-0.828,0.568-1.359,0.568c-0.523,0-0.973-0.189-1.348-0.568
			S124.539,83.792,124.539,83.269z M128.207,86.867v11.063h-3.48V86.867H128.207z"/>
		<path d="M142.434,86.867v2.332h-1.582c0.367,0.625,0.551,1.238,0.551,1.84c0,0.859-0.32,1.652-0.961,2.379
			s-1.588,1.158-2.842,1.295s-1.965,0.266-2.133,0.387s-0.252,0.279-0.252,0.475s0.109,0.354,0.328,0.475s1.08,0.246,2.584,0.375
			s2.551,0.523,3.141,1.184s0.885,1.369,0.885,2.127c0,1.211-0.502,2.133-1.506,2.766s-2.455,0.949-4.354,0.949
			c-1.938,0-3.406-0.293-4.406-0.879s-1.5-1.363-1.5-2.332c0-1.344,0.984-2.281,2.953-2.813c-0.891-0.266-1.336-0.746-1.336-1.441
			c0-0.813,0.672-1.371,2.016-1.676c-0.898-0.156-1.641-0.547-2.227-1.172s-0.879-1.371-0.879-2.238c0-1.063,0.422-2,1.266-2.813
			s2.07-1.219,3.68-1.219H142.434z M136.457,101.386c0.742,0,1.344-0.137,1.805-0.41s0.691-0.602,0.691-0.984
			c0-0.813-0.902-1.219-2.707-1.219c-0.82,0-1.465,0.119-1.934,0.357s-0.703,0.557-0.703,0.955
			C133.609,100.953,134.559,101.386,136.457,101.386z M136.17,88.929c-0.569,0-1.046,0.195-1.432,0.586s-0.578,0.867-0.578,1.43
			c0,0.539,0.198,1.006,0.596,1.4s0.869,0.592,1.414,0.592s1.013-0.207,1.402-0.621c0.39-0.414,0.584-0.91,0.584-1.488
			c0-0.523-0.189-0.971-0.567-1.342S136.738,88.929,136.17,88.929z"/>
		<path d="M147.695,81.558v6.926h0.047c0.969-1.234,2.137-1.852,3.504-1.852c1.18,0,2.15,0.374,2.912,1.121
			c0.762,0.747,1.143,1.785,1.143,3.114v7.062h-3.48v-6.325c0-1.612-0.598-2.417-1.793-2.417c-0.789,0-1.566,0.56-2.332,1.678v7.064
			h-3.48V81.558H147.695z"/>
		<path d="M164.711,83.269c0-0.531,0.188-0.984,0.563-1.359s0.824-0.563,1.348-0.563c0.531,0,0.984,0.188,1.359,0.563
			s0.563,0.828,0.563,1.359c0,0.523-0.188,0.975-0.563,1.354s-0.828,0.568-1.359,0.568c-0.523,0-0.973-0.189-1.348-0.568
			S164.711,83.792,164.711,83.269z M168.379,86.867v11.063h-3.48V86.867H168.379z"/>
		<path d="M174.813,86.867v1.57c1.023-1.203,2.223-1.805,3.598-1.805c1.148,0,2.107,0.368,2.877,1.103
			c0.77,0.735,1.154,1.787,1.154,3.156v7.039h-3.48v-6.747c0-1.479-0.574-2.218-1.723-2.218c-0.82,0-1.629,0.609-2.426,1.828v7.137
			h-3.48V86.867H174.813z"/>
		<path d="M194.992,94.906v2.496c-1.359,0.492-2.605,0.738-3.738,0.738c-1.945,0-3.5-0.522-4.664-1.566s-1.746-2.426-1.746-4.147
			c0-1.681,0.588-3.067,1.764-4.159c1.176-1.091,2.674-1.636,4.494-1.636c1.172,0,2.414,0.242,3.727,0.727v2.59
			c-0.961-0.492-1.906-0.738-2.836-0.738c-1.039,0-1.871,0.29-2.496,0.869c-0.625,0.58-0.938,1.354-0.938,2.325
			c0,0.979,0.305,1.767,0.914,2.366c0.609,0.599,1.41,0.898,2.402,0.898C192.609,95.667,193.648,95.414,194.992,94.906z"/>
		<path d="M203.031,86.632c1.734,0,3.205,0.508,4.412,1.525s1.811,2.432,1.811,4.247c0,1.822-0.613,3.234-1.84,4.235
			s-2.688,1.501-4.383,1.501c-1.836,0-3.338-0.534-4.506-1.601c-1.168-1.068-1.752-2.454-1.752-4.159
			c0-1.736,0.596-3.128,1.787-4.176C199.752,87.156,201.242,86.632,203.031,86.632z M203.031,96.078
			c1.664,0,2.496-1.256,2.496-3.768c0-2.402-0.832-3.604-2.496-3.604c-0.797,0-1.42,0.317-1.869,0.951
			c-0.449,0.634-0.674,1.542-0.674,2.723C200.488,94.845,201.336,96.078,203.031,96.078z"/>
		<path d="M215.137,86.867v1.418c1.181-1.102,2.462-1.652,3.847-1.652c1.899,0,3.229,0.785,3.987,2.355
			c1.337-1.57,2.791-2.355,4.363-2.355c1.274,0,2.314,0.387,3.119,1.162c0.805,0.774,1.208,1.783,1.208,3.026v7.109h-3.48V91.44
			c0-0.782-0.18-1.391-0.541-1.825s-0.861-0.651-1.503-0.651c-1.019,0-1.935,0.626-2.749,1.877v7.087h-3.469v-6.56
			c0-0.774-0.193-1.369-0.58-1.783s-0.9-0.622-1.541-0.622c-0.914,0-1.801,0.513-2.66,1.537v7.428h-3.48V86.867H215.137z"/>
		<path d="M245.371,94.496v2.191c-1.328,0.969-2.973,1.453-4.934,1.453c-1.945,0-3.5-0.522-4.664-1.566s-1.746-2.426-1.746-4.147
			c0-1.689,0.547-3.077,1.641-4.165c1.094-1.087,2.488-1.63,4.184-1.63c1.703,0,3.1,0.572,4.189,1.717s1.6,2.678,1.529,4.6h-7.945
			c0.07,1.004,0.426,1.776,1.066,2.317s1.5,0.812,2.578,0.812C242.574,96.078,243.941,95.55,245.371,94.496z M237.695,91.121h4.805
			c-0.188-1.609-0.988-2.414-2.402-2.414C238.668,88.707,237.867,89.511,237.695,91.121z"/>
		<path d="M264.156,94.906v2.496c-1.359,0.492-2.605,0.738-3.738,0.738c-1.945,0-3.5-0.522-4.664-1.566s-1.746-2.426-1.746-4.147
			c0-1.681,0.588-3.067,1.764-4.159c1.176-1.091,2.674-1.636,4.494-1.636c1.172,0,2.414,0.242,3.727,0.727v2.59
			c-0.961-0.492-1.906-0.738-2.836-0.738c-1.039,0-1.871,0.29-2.496,0.869c-0.625,0.58-0.938,1.354-0.938,2.325
			c0,0.979,0.305,1.767,0.914,2.366c0.609,0.599,1.41,0.898,2.402,0.898C261.773,95.667,262.813,95.414,264.156,94.906z"/>
		<path d="M272.195,86.632c1.734,0,3.205,0.508,4.412,1.525s1.811,2.432,1.811,4.247c0,1.822-0.613,3.234-1.84,4.235
			s-2.688,1.501-4.383,1.501c-1.836,0-3.338-0.534-4.506-1.601c-1.168-1.068-1.752-2.454-1.752-4.159
			c0-1.736,0.596-3.128,1.787-4.176C268.916,87.156,270.406,86.632,272.195,86.632z M272.195,96.078
			c1.664,0,2.496-1.256,2.496-3.768c0-2.402-0.832-3.604-2.496-3.604c-0.797,0-1.42,0.317-1.869,0.951
			c-0.449,0.634-0.674,1.542-0.674,2.723C269.652,94.845,270.5,96.078,272.195,96.078z"/>
		<path d="M288.379,97.929v-1.582c-1.023,1.195-2.215,1.793-3.574,1.793c-1.203,0-2.18-0.371-2.93-1.113s-1.125-1.77-1.125-3.082
			v-7.078h3.48v6.835c0,1.404,0.582,2.106,1.746,2.106c0.656,0,1.217-0.255,1.682-0.767c0.465-0.511,0.697-0.887,0.697-1.129v-7.045
			h3.504v11.063H288.379z"/>
		<path d="M298.223,86.867v1.57c1.023-1.203,2.223-1.805,3.598-1.805c1.148,0,2.107,0.368,2.877,1.103
			c0.77,0.735,1.154,1.787,1.154,3.156v7.039h-3.48v-6.747c0-1.479-0.574-2.218-1.723-2.218c-0.82,0-1.629,0.609-2.426,1.828v7.137
			h-3.48V86.867H298.223z"/>
		<path d="M316.68,86.867v2.379h-4.031v4.559c0,0.547,0.15,0.979,0.451,1.295s0.717,0.475,1.248,0.475
			c0.719,0,1.496-0.215,2.332-0.645v2.52c-1.109,0.461-2.184,0.691-3.223,0.691c-1.359,0-2.414-0.352-3.164-1.055
			s-1.125-1.734-1.125-3.094v-4.746h-1.582v-0.68l4.629-5.18h0.434v3.48H316.68z"/>
		<path d="M322.047,86.867v3.164h0.047c1.008-2.266,2.184-3.398,3.527-3.398c0.641,0,1.41,0.336,2.309,1.008l-0.961,3.082
			c-0.859-0.547-1.547-0.82-2.063-0.82c-0.805,0-1.482,0.499-2.033,1.496c-0.551,0.998-0.826,1.579-0.826,1.743v4.788h-3.48V86.867
			H322.047z"/>
		<path d="M329.113,83.269c0-0.531,0.188-0.984,0.563-1.359s0.824-0.563,1.348-0.563c0.531,0,0.984,0.188,1.359,0.563
			s0.563,0.828,0.563,1.359c0,0.523-0.188,0.975-0.563,1.354s-0.828,0.568-1.359,0.568c-0.523,0-0.973-0.189-1.348-0.568
			S329.113,83.792,329.113,83.269z M332.781,86.867v11.063h-3.48V86.867H332.781z"/>
		<path d="M346.527,94.496v2.191c-1.328,0.969-2.973,1.453-4.934,1.453c-1.945,0-3.5-0.522-4.664-1.566s-1.746-2.426-1.746-4.147
			c0-1.689,0.547-3.077,1.641-4.165c1.094-1.087,2.488-1.63,4.184-1.63c1.703,0,3.1,0.572,4.189,1.717s1.6,2.678,1.529,4.6h-7.945
			c0.07,1.004,0.426,1.776,1.066,2.317s1.5,0.812,2.578,0.812C343.73,96.078,345.098,95.55,346.527,94.496z M338.852,91.121h4.805
			c-0.188-1.609-0.988-2.414-2.402-2.414C339.824,88.707,339.023,89.511,338.852,91.121z"/>
		<path d="M356.582,87.453v2.473c-1.328-0.813-2.559-1.219-3.691-1.219c-0.836,0-1.254,0.285-1.254,0.855
			c0,0.148,0.088,0.295,0.265,0.439c0.176,0.145,0.85,0.45,2.021,0.917c1.171,0.467,1.999,1.005,2.483,1.615
			c0.484,0.61,0.727,1.279,0.727,2.006c0,1.15-0.391,2.038-1.172,2.663c-0.781,0.626-1.895,0.938-3.34,0.938
			c-1.484,0-2.805-0.27-3.961-0.809v-2.449c1.422,0.625,2.613,0.938,3.574,0.938c1.125,0,1.688-0.272,1.688-0.818
			c0-0.21-0.104-0.409-0.313-0.596s-0.905-0.513-2.092-0.977s-1.998-0.974-2.436-1.529s-0.656-1.173-0.656-1.854
			c0-1.009,0.42-1.83,1.26-2.463c0.84-0.633,1.947-0.95,3.322-0.95C354.328,86.632,355.52,86.906,356.582,87.453z"/>
		<path d="M187.527,110.147c-2.844,3.133-4.266,6.813-4.266,11.039c0,4.18,1.422,7.867,4.266,11.063h-2.473
			c-1.734-1.391-3.092-3.078-4.072-5.063s-1.471-3.984-1.471-6c0-2.008,0.494-4.01,1.482-6.006s2.342-3.674,4.061-5.033H187.527z"/>
		<path d="M193.094,115.667h1.582v2.379h-1.582v8.684h-3.48v-8.684h-1.582v-2.379h1.582v-0.551c0-1.555,0.438-2.771,1.313-3.65
			s2.055-1.318,3.539-1.318c0.359,0,1.063,0.07,2.109,0.211v2.813c-0.727-0.094-1.246-0.141-1.559-0.141
			c-1.281,0-1.922,0.645-1.922,1.934V115.667z"/>
		<path d="M201.824,115.432c1.734,0,3.205,0.508,4.412,1.525s1.811,2.432,1.811,4.247c0,1.822-0.613,3.234-1.84,4.235
			s-2.688,1.501-4.383,1.501c-1.836,0-3.338-0.534-4.506-1.601c-1.168-1.068-1.752-2.454-1.752-4.159
			c0-1.736,0.596-3.128,1.787-4.176C198.545,115.956,200.035,115.432,201.824,115.432z M201.824,124.877
			c1.664,0,2.496-1.256,2.496-3.768c0-2.402-0.832-3.604-2.496-3.604c-0.797,0-1.42,0.317-1.869,0.951
			c-0.449,0.634-0.674,1.542-0.674,2.723C199.281,123.645,200.129,124.877,201.824,124.877z"/>
		<path d="M213.953,115.667v3.164H214c1.008-2.266,2.184-3.398,3.527-3.398c0.641,0,1.41,0.336,2.309,1.008l-0.961,3.082
			c-0.859-0.547-1.547-0.82-2.063-0.82c-0.805,0-1.482,0.499-2.033,1.496c-0.551,0.998-0.826,1.579-0.826,1.743v4.788h-3.48v-11.063
			H213.953z"/>
		<path d="M238.48,123.389v3.34h-10.816v-0.457c0.992-1.211,2.127-2.744,3.404-4.6s2.084-3.174,2.42-3.955s0.504-1.539,0.504-2.273
			c0-0.641-0.213-1.191-0.639-1.652s-0.939-0.691-1.541-0.691c-1.195,0-2.508,0.68-3.938,2.039v-3.434
			c1.602-1.039,3.129-1.559,4.582-1.559c1.609,0,2.877,0.414,3.803,1.242s1.389,1.965,1.389,3.41c0,1.977-1.48,4.84-4.441,8.59
			H238.48z"/>
		<path d="M246.25,110.147c1.734,0,3.088,0.746,4.061,2.238s1.459,3.52,1.459,6.082c0,2.664-0.473,4.742-1.418,6.234
			s-2.297,2.238-4.055,2.238c-1.781,0-3.166-0.742-4.154-2.227s-1.482-3.539-1.482-6.164c0-2.656,0.502-4.721,1.506-6.193
			S244.531,110.147,246.25,110.147z M246.25,123.87c0.656,0,1.133-0.396,1.43-1.189s0.445-2.283,0.445-4.471
			c0-1.82-0.146-3.107-0.439-3.861s-0.779-1.131-1.459-1.131c-0.664,0-1.15,0.369-1.459,1.107s-0.463,2.201-0.463,4.389
			c0,1.836,0.154,3.154,0.463,3.955S245.57,123.87,246.25,123.87z"/>
		<path d="M261.227,110.358v16.371h-3.621v-16.371H261.227z"/>
		<path d="M278.207,123.389v3.34h-10.816v-0.457c0.992-1.211,2.127-2.744,3.404-4.6s2.084-3.174,2.42-3.955s0.504-1.539,0.504-2.273
			c0-0.641-0.213-1.191-0.639-1.652s-0.939-0.691-1.541-0.691c-1.195,0-2.508,0.68-3.938,2.039v-3.434
			c1.602-1.039,3.129-1.559,4.582-1.559c1.609,0,2.877,0.414,3.803,1.242s1.389,1.965,1.389,3.41c0,1.977-1.48,4.84-4.441,8.59
			H278.207z"/>
		<path d="M279.473,132.249c2.852-3.211,4.277-6.898,4.277-11.063c0-4.227-1.426-7.906-4.277-11.039h2.473
			c1.719,1.359,3.072,3.037,4.061,5.033s1.482,3.998,1.482,6.006s-0.488,4-1.465,5.977s-2.336,3.672-4.078,5.086H279.473z"/>
		<path fill="#4D4D4D" d="M148.535,142.017l-0.387,2.73c0.547-0.219,1.157-0.328,1.829-0.328c1.267,0,2.328,0.477,3.184,1.43
			s1.284,2.148,1.284,3.586c0,1.711-0.581,3.211-1.741,4.5s-2.749,1.934-4.766,1.934h-1.349l-0.715,5.18h-2.035l1.91-13.629
			c-0.438,0.313-0.834,0.719-1.189,1.219s-0.557,0.75-0.604,0.75c-0.063,0-0.094-0.051-0.094-0.152c0-0.359,0.205-0.877,0.615-1.553
			s0.9-1.244,1.471-1.705l0.551-3.961H148.535z M147.938,146.259l-1.102,7.875h0.985c1.384,0,2.486-0.467,3.307-1.4
			s1.231-2.033,1.231-3.299c0-1.094-0.289-1.947-0.868-2.561c-0.578-0.613-1.313-0.92-2.205-0.92
			C148.81,145.955,148.36,146.056,147.938,146.259z"/>
		<path fill="#4D4D4D" d="M164.605,152.716l-0.293,1.945c-1.094,0.805-2.293,1.207-3.598,1.207c-1.359,0-2.451-0.475-3.275-1.424
			s-1.236-2.213-1.236-3.791c0-1.758,0.494-3.236,1.482-4.436s2.197-1.799,3.627-1.799c1.094,0,2.004,0.42,2.73,1.26
			s1.09,1.924,1.09,3.252c0,0.328-0.023,0.664-0.07,1.008h-6.727c-0.063,0.359-0.094,0.703-0.094,1.031
			c0,0.992,0.271,1.775,0.814,2.35s1.225,0.861,2.045,0.861C162.102,154.181,163.27,153.693,164.605,152.716z M158.649,148.521
			h4.515c0-0.75-0.17-1.342-0.51-1.775c-0.34-0.434-0.819-0.65-1.436-0.65C160.045,146.095,159.189,146.904,158.649,148.521z"/>
		<path fill="#4D4D4D" d="M170.238,144.748l-0.316,2.051l0.047,0.047c0.642-0.914,1.15-1.52,1.525-1.816
			c0.375-0.297,0.821-0.445,1.337-0.445c0.321,0,0.618,0.055,0.892,0.164v2.309c-0.43-0.242-0.849-0.363-1.255-0.363
			c-0.399,0-0.755,0.1-1.067,0.299c-0.313,0.199-0.692,0.625-1.138,1.277c-0.446,0.652-0.677,1.049-0.692,1.189l-0.844,6.07h-2.035
			l1.512-10.781H170.238z"/>
		<path fill="#4D4D4D" d="M188.96,138.947l-2.589,16.582h-2.171l2.625-16.582H188.96z"/>
		<path fill="#4D4D4D" d="M203.251,144.748l-0.265,1.86c1.255-1.35,2.506-2.024,3.753-2.024c1.388,0,2.202,0.809,2.444,2.426
			c1.312-1.617,2.654-2.426,4.028-2.426c0.765,0,1.38,0.262,1.844,0.785c0.465,0.523,0.697,1.257,0.697,2.203
			c0,0.297-0.023,0.621-0.07,0.972l-0.983,6.985h-2.036l1.008-7.078c0.039-0.242,0.059-0.469,0.059-0.68
			c0-1.055-0.387-1.582-1.16-1.582c-0.195,0-0.41,0.041-0.645,0.123s-0.496,0.217-0.785,0.404s-0.682,0.527-1.178,1.02
			s-0.756,0.809-0.779,0.949l-0.988,6.844h-2.036l0.961-6.82c0.055-0.336,0.082-0.637,0.082-0.902c0-1.078-0.425-1.617-1.275-1.617
			c-0.538,0-1.207,0.377-2.006,1.132c-0.799,0.754-1.21,1.209-1.232,1.366l-0.974,6.842h-2.036l1.535-10.781H203.251z"/>
		<path fill="#4D4D4D" d="M221.016,144.748l-1.512,10.781h-2.035l1.512-10.781H221.016z M219.203,141.373
			c0-0.328,0.115-0.607,0.346-0.838s0.506-0.346,0.826-0.346s0.596,0.115,0.826,0.346s0.346,0.51,0.346,0.838
			c0,0.32-0.115,0.596-0.346,0.826s-0.506,0.346-0.826,0.346s-0.596-0.115-0.826-0.346S219.203,141.693,219.203,141.373z"/>
		<path fill="#4D4D4D" d="M226.325,139.158l-2.309,16.371h-2.036l2.309-16.371H226.325z"/>
		<path fill="#4D4D4D" d="M230.837,139.158l-2.309,16.371h-2.036l2.309-16.371H230.837z"/>
		<path fill="#4D4D4D" d="M234.551,144.748l-1.512,10.781h-2.035l1.512-10.781H234.551z M232.738,141.373
			c0-0.328,0.115-0.607,0.346-0.838s0.506-0.346,0.826-0.346s0.596,0.115,0.826,0.346s0.346,0.51,0.346,0.838
			c0,0.32-0.115,0.596-0.346,0.826s-0.506,0.346-0.826,0.346s-0.596-0.115-0.826-0.346S232.738,141.693,232.738,141.373z"/>
		<path fill="#4D4D4D" d="M240.988,144.419c1.211,0,2.182,0.428,2.912,1.283s1.096,1.994,1.096,3.416
			c0,1.969-0.492,3.586-1.477,4.852s-2.195,1.898-3.633,1.898c-1.266,0-2.258-0.426-2.977-1.277s-1.078-2.035-1.078-3.551
			c0-1.883,0.496-3.457,1.488-4.723S239.535,144.419,240.988,144.419z M240.988,146.025c-0.836,0-1.557,0.518-2.162,1.553
			s-0.908,2.26-0.908,3.674c0,0.844,0.182,1.531,0.545,2.063s0.814,0.797,1.354,0.797c0.852,0,1.58-0.484,2.186-1.453
			s0.908-2.188,0.908-3.656c0-0.906-0.176-1.629-0.527-2.168S241.566,146.025,240.988,146.025z"/>
		<path fill="#4D4D4D" d="M249.997,144.748l-0.274,1.907l0.055,0.038c1.148-1.406,2.339-2.109,3.574-2.109
			c0.836,0,1.484,0.307,1.945,0.92s0.691,1.404,0.691,2.373c0,0.273-0.023,0.559-0.07,0.855l-1.034,6.797h-2.013l0.984-6.867
			c0.039-0.242,0.059-0.465,0.059-0.668c0-0.563-0.118-0.992-0.353-1.289s-0.529-0.445-0.881-0.445
			c-0.204,0-0.433,0.051-0.688,0.152s-0.527,0.258-0.816,0.468c-0.29,0.211-0.648,0.531-1.075,0.96
			c-0.427,0.43-0.649,0.703-0.666,0.821l-0.986,6.868h-2.012l1.512-10.781H249.997z"/>
		<path fill="#4D4D4D" d="M268.664,142.017l-0.387,2.73c0.547-0.219,1.157-0.328,1.829-0.328c1.267,0,2.328,0.477,3.184,1.43
			s1.284,2.148,1.284,3.586c0,1.711-0.581,3.211-1.741,4.5s-2.749,1.934-4.766,1.934h-1.349l-0.715,5.18h-2.035l1.91-13.629
			c-0.438,0.313-0.834,0.719-1.189,1.219s-0.557,0.75-0.604,0.75c-0.063,0-0.094-0.051-0.094-0.152c0-0.359,0.205-0.877,0.615-1.553
			s0.9-1.244,1.471-1.705l0.551-3.961H268.664z M268.066,146.259l-1.102,7.875h0.985c1.384,0,2.486-0.467,3.307-1.4
			s1.231-2.033,1.231-3.299c0-1.094-0.289-1.947-0.868-2.561c-0.578-0.613-1.313-0.92-2.205-0.92
			C268.938,145.955,268.489,146.056,268.066,146.259z"/>
		<path fill="#4D4D4D" d="M284.734,152.716l-0.293,1.945c-1.094,0.805-2.293,1.207-3.598,1.207c-1.359,0-2.451-0.475-3.275-1.424
			s-1.236-2.213-1.236-3.791c0-1.758,0.494-3.236,1.482-4.436s2.197-1.799,3.627-1.799c1.094,0,2.004,0.42,2.73,1.26
			s1.09,1.924,1.09,3.252c0,0.328-0.023,0.664-0.07,1.008h-6.727c-0.063,0.359-0.094,0.703-0.094,1.031
			c0,0.992,0.271,1.775,0.814,2.35s1.225,0.861,2.045,0.861C282.23,154.181,283.398,153.693,284.734,152.716z M278.778,148.521
			h4.515c0-0.75-0.17-1.342-0.51-1.775c-0.34-0.434-0.819-0.65-1.436-0.65C280.174,146.095,279.318,146.904,278.778,148.521z"/>
		<path fill="#4D4D4D" d="M291.953,144.419c1.211,0,2.182,0.428,2.912,1.283s1.096,1.994,1.096,3.416
			c0,1.969-0.492,3.586-1.477,4.852s-2.195,1.898-3.633,1.898c-1.266,0-2.258-0.426-2.977-1.277s-1.078-2.035-1.078-3.551
			c0-1.883,0.496-3.457,1.488-4.723S290.5,144.419,291.953,144.419z M291.953,146.025c-0.836,0-1.557,0.518-2.162,1.553
			s-0.908,2.26-0.908,3.674c0,0.844,0.182,1.531,0.545,2.063s0.814,0.797,1.354,0.797c0.852,0,1.58-0.484,2.186-1.453
			s0.908-2.188,0.908-3.656c0-0.906-0.176-1.629-0.527-2.168S292.531,146.025,291.953,146.025z"/>
		<path fill="#4D4D4D" d="M301.699,142.017l-0.387,2.73c0.547-0.219,1.157-0.328,1.829-0.328c1.267,0,2.328,0.477,3.184,1.43
			s1.284,2.148,1.284,3.586c0,1.711-0.581,3.211-1.741,4.5s-2.749,1.934-4.766,1.934h-1.349l-0.715,5.18h-2.035l1.91-13.629
			c-0.438,0.313-0.834,0.719-1.189,1.219s-0.557,0.75-0.604,0.75c-0.063,0-0.094-0.051-0.094-0.152c0-0.359,0.205-0.877,0.615-1.553
			s0.9-1.244,1.471-1.705l0.551-3.961H301.699z M301.102,146.259L300,154.134h0.985c1.384,0,2.486-0.467,3.307-1.4
			s1.231-2.033,1.231-3.299c0-1.094-0.289-1.947-0.868-2.561c-0.578-0.613-1.313-0.92-2.205-0.92
			C301.974,145.955,301.524,146.056,301.102,146.259z"/>
		<path fill="#4D4D4D" d="M313.349,139.158l-2.309,16.371h-2.036l2.309-16.371H313.349z"/>
		<path fill="#4D4D4D" d="M322.281,152.716l-0.293,1.945c-1.094,0.805-2.293,1.207-3.598,1.207c-1.359,0-2.451-0.475-3.275-1.424
			s-1.236-2.213-1.236-3.791c0-1.758,0.494-3.236,1.482-4.436s2.197-1.799,3.627-1.799c1.094,0,2.004,0.42,2.73,1.26
			s1.09,1.924,1.09,3.252c0,0.328-0.023,0.664-0.07,1.008h-6.727c-0.063,0.359-0.094,0.703-0.094,1.031
			c0,0.992,0.271,1.775,0.814,2.35s1.225,0.861,2.045,0.861C319.777,154.181,320.945,153.693,322.281,152.716z M316.325,148.521
			h4.515c0-0.75-0.17-1.342-0.51-1.775c-0.34-0.434-0.819-0.65-1.436-0.65C317.721,146.095,316.865,146.904,316.325,148.521z"/>
	</g>
</g>
</svg>
