<?xml version="1.0" encoding="utf-8"?>
<!-- Generator: Adobe Illustrator 16.0.0, SVG Export Plug-In . SVG Version: 6.00 Build 0)  -->
<!DOCTYPE svg PUBLIC "-//W3C//DTD SVG 1.1//EN" "http://www.w3.org/Graphics/SVG/1.1/DTD/svg11.dtd">
<svg version="1.1" id="Layer_1" xmlns="http://www.w3.org/2000/svg" xmlns:xlink="http://www.w3.org/1999/xlink" x="0px" y="0px"
	 width="639.667px" height="285.664px" viewBox="0 0 639.667 285.664" enable-background="new 0 0 639.667 285.664"
	 xml:space="preserve">
<pattern  x="-152.333" width="32" height="36.137" patternUnits="userSpaceOnUse" id="New_Pattern_2" viewBox="4.5 -36.137 32 36.137" overflow="visible">
	<g>
		<polygon fill="none" points="4.5,-36.137 36.5,-36.137 36.5,0 4.5,0 		"/>
		<path fill="#E6E6E6" d="M39-16.5h-5v13h5V-16.5z M41-16.5h-9v-10h9V-16.5z M39.356-29.837c0,1.546-1.254,2.8-2.8,2.8
			s-2.8-1.254-2.8-2.8c0-1.547,1.254-2.8,2.8-2.8S39.356-31.384,39.356-29.837z"/>
		<path fill="#E6E6E6" d="M23-16.5h-5v13h5V-16.5z M25-16.5h-9v-10h9V-16.5z M23.356-29.837c0,1.546-1.254,2.8-2.8,2.8
			s-2.8-1.254-2.8-2.8c0-1.547,1.254-2.8,2.8-2.8S23.356-31.384,23.356-29.837z"/>
		<path fill="#E6E6E6" d="M7-16.5H2v13h5V-16.5z M9-16.5H0v-10h9V-16.5z M7.356-29.837c0,1.546-1.254,2.8-2.8,2.8
			s-2.8-1.254-2.8-2.8c0-1.547,1.254-2.8,2.8-2.8S7.356-31.384,7.356-29.837z"/>
	</g>
</pattern>
<pattern  x="-152.333" width="32" height="36.137" patternUnits="userSpaceOnUse" id="New_Pattern_3" viewBox="4.5 -36.137 32 36.137" overflow="visible">
	<g>
		<polygon fill="none" points="4.5,-36.137 36.5,-36.137 36.5,0 4.5,0 		"/>
		<path fill="#F15A24" d="M39-16.5h-5v13h5V-16.5z M41-16.5h-9v-10h9V-16.5z M39.356-29.837c0,1.546-1.254,2.8-2.8,2.8
			c-1.547,0-2.801-1.254-2.801-2.8c0-1.547,1.254-2.8,2.801-2.8C38.103-32.637,39.356-31.384,39.356-29.837z"/>
		<path fill="#F15A24" d="M23-16.5h-5v13h5V-16.5z M25-16.5h-9v-10h9V-16.5z M23.356-29.837c0,1.546-1.254,2.8-2.8,2.8
			c-1.547,0-2.801-1.254-2.801-2.8c0-1.547,1.254-2.8,2.801-2.8C22.103-32.637,23.356-31.384,23.356-29.837z"/>
		<path fill="#F15A24" d="M7-16.5H2v13h5V-16.5z M9-16.5H0v-10h9V-16.5z M7.356-29.837c0,1.546-1.254,2.8-2.8,2.8
			c-1.547,0-2.801-1.254-2.801-2.8c0-1.547,1.254-2.8,2.801-2.8C6.103-32.637,7.356-31.384,7.356-29.837z"/>
	</g>
</pattern>
<path fill="#E6E6E6" d="M382.667-18h-5v-13h5V-18z M384.667-41h-9v10h9V-41z M380.223-47.137c-1.547,0-2.801,1.253-2.801,2.8
	c0,1.546,1.254,2.8,2.801,2.8c1.546,0,2.8-1.254,2.8-2.8C383.023-45.884,381.769-47.137,380.223-47.137z"/>
<rect x="2.667" fill="url(#New_Pattern_2)" width="637" height="180"/>
<path fill="#F15A24" d="M401.667-13h-5v-13h5V-13z M403.667-36h-9v10h9V-36z M399.223-42.137c-1.547,0-2.801,1.253-2.801,2.8
	c0,1.546,1.254,2.8,2.801,2.8c1.546,0,2.8-1.254,2.8-2.8C402.023-40.884,400.769-42.137,399.223-42.137z"/>
<rect x="2.667" y="177" fill="url(#New_Pattern_2)" width="558" height="41"/>
<rect x="2.667" y="180" fill="url(#New_Pattern_3)" width="556" height="38"/>
<rect x="365.667" y="145" fill="url(#New_Pattern_3)" width="272" height="38"/>
<g>
	<path d="M126.338,241.812c2.44,0,4.416,0.737,5.927,2.209c1.511,1.474,2.266,3.188,2.266,5.143c0,1.982-0.766,3.702-2.297,5.158
		s-3.497,2.184-5.896,2.184c-2.427,0-4.402-0.725-5.927-2.174s-2.287-3.172-2.287-5.168c0-1.962,0.757-3.678,2.271-5.147
		C121.91,242.547,123.891,241.812,126.338,241.812z M126.338,253.532c1.354,0,2.444-0.401,3.271-1.205
		c0.827-0.803,1.241-1.857,1.241-3.163c0-1.313-0.414-2.369-1.241-3.168s-1.917-1.2-3.271-1.2c-1.36,0-2.456,0.4-3.287,1.2
		c-0.83,0.8-1.246,1.856-1.246,3.168c0,1.306,0.416,2.36,1.246,3.163C123.882,253.131,124.978,253.532,126.338,253.532z"/>
	<path d="M143.452,256.321v-1.384c-0.896,1.046-1.938,1.569-3.127,1.569c-1.053,0-1.907-0.325-2.563-0.974s-0.984-1.548-0.984-2.697
		v-6.193h3.045v5.98c0,1.229,0.509,1.843,1.528,1.843c0.574,0,1.064-0.224,1.471-0.671c0.407-0.447,0.61-0.776,0.61-0.988v-6.165
		h3.066v9.68H143.452z"/>
	<path d="M155.972,246.642v2.082h-3.527v3.989c0,0.479,0.131,0.856,0.395,1.133c0.263,0.277,0.627,0.416,1.092,0.416
		c0.629,0,1.309-0.188,2.041-0.564v2.205c-0.971,0.403-1.911,0.605-2.82,0.605c-1.189,0-2.112-0.308-2.769-0.923
		s-0.984-1.518-0.984-2.707v-4.153h-1.384v-0.595l4.05-4.532h0.379v3.045H155.972z"/>
	<path d="M168.369,246.437c1.518,0,2.805,0.445,3.86,1.334c1.057,0.89,1.584,2.128,1.584,3.715c0,1.595-0.537,2.83-1.61,3.706
		c-1.073,0.876-2.352,1.314-3.835,1.314c-1.606,0-2.921-0.467-3.942-1.401c-1.022-0.934-1.533-2.147-1.533-3.639
		c0-1.519,0.521-2.737,1.563-3.654S166.803,246.437,168.369,246.437z M168.369,254.701c1.456,0,2.184-1.099,2.184-3.297
		c0-2.102-0.728-3.153-2.184-3.153c-0.697,0-1.243,0.277-1.636,0.832s-0.589,1.349-0.589,2.382
		C166.144,253.623,166.885,254.701,168.369,254.701z"/>
	<path d="M179.34,246.642h1.384v2.082h-1.384v7.598h-3.045v-7.598h-1.384v-2.082h1.384v-0.482c0-1.36,0.383-2.425,1.148-3.194
		c0.766-0.77,1.798-1.154,3.097-1.154c0.314,0,0.93,0.062,1.846,0.185v2.461c-0.636-0.082-1.09-0.123-1.364-0.123
		c-1.121,0-1.682,0.564-1.682,1.692V246.642z"/>
	<path d="M197.367,253.399v2.922h-9.464v-0.4c0.868-1.06,1.861-2.401,2.979-4.025c1.117-1.623,1.823-2.777,2.117-3.46
		s0.441-1.347,0.441-1.989c0-0.561-0.187-1.042-0.559-1.446s-0.822-0.605-1.348-0.605c-1.046,0-2.194,0.595-3.445,1.784v-3.004
		c1.401-0.909,2.738-1.364,4.009-1.364c1.408,0,2.518,0.362,3.327,1.087c0.811,0.725,1.215,1.719,1.215,2.984
		c0,1.729-1.295,4.235-3.886,7.516H197.367z"/>
	<path d="M202.617,250.148v-2.522c0.595,0,1.071-0.167,1.431-0.502c0.358-0.335,0.538-0.735,0.538-1.2
		c0-0.479-0.191-0.875-0.574-1.189s-0.868-0.472-1.456-0.472c-0.8,0-1.675,0.232-2.625,0.697v-2.522
		c0.95-0.417,2.041-0.625,3.271-0.625c1.36,0,2.464,0.327,3.312,0.979c0.848,0.653,1.271,1.496,1.271,2.528
		c0,1.429-0.708,2.533-2.123,3.312c1.675,0.656,2.512,1.883,2.512,3.681c0,1.271-0.461,2.289-1.384,3.05
		c-0.923,0.763-2.16,1.144-3.712,1.144c-1.265,0-2.434-0.27-3.507-0.81v-2.779c1.08,0.759,2.088,1.138,3.025,1.138
		c0.663,0,1.203-0.176,1.62-0.528s0.625-0.809,0.625-1.369s-0.2-1.029-0.6-1.405C203.842,250.377,203.3,250.176,202.617,250.148z"/>
	<path d="M219.454,241.997v2.881h-4.583v2.666c1.531-0.103,2.758,0.277,3.681,1.138s1.384,1.952,1.384,3.271
		c0,1.381-0.47,2.485-1.41,3.312c-0.94,0.827-2.2,1.241-3.779,1.241c-1.388,0-2.543-0.256-3.466-0.769v-2.604
		c1.101,0.615,2.116,0.923,3.045,0.923c0.656,0,1.198-0.19,1.625-0.569c0.427-0.38,0.641-0.856,0.641-1.431
		c0-0.636-0.26-1.138-0.779-1.507s-1.241-0.554-2.164-0.554c-0.506,0-1.049,0.058-1.63,0.174v-8.172H219.454z"/>
	<path d="M96.381,271.842v1.241c1.033-0.964,2.155-1.446,3.366-1.446c1.662,0,2.825,0.687,3.489,2.061
		c1.169-1.374,2.442-2.061,3.817-2.061c1.115,0,2.025,0.339,2.729,1.016c0.705,0.678,1.057,1.561,1.057,2.648v6.22h-3.045v-5.678
		c0-0.685-0.158-1.217-0.473-1.597c-0.315-0.38-0.754-0.57-1.316-0.57c-0.891,0-1.692,0.548-2.405,1.643v6.202h-3.035v-5.739
		c0-0.678-0.169-1.198-0.508-1.561c-0.338-0.363-0.788-0.544-1.348-0.544c-0.8,0-1.576,0.448-2.328,1.345v6.499h-3.045v-9.68H96.381
		z"/>
	<path d="M123.277,279.132v1.692c-1.012,0.588-1.962,0.882-2.851,0.882c-0.957,0-1.524-0.362-1.702-1.087
		c-1.06,0.725-2.123,1.087-3.189,1.087c-0.752,0-1.391-0.237-1.917-0.714c-0.526-0.476-0.79-1.029-0.79-1.659
		c0-0.842,0.271-1.521,0.815-2.039c0.543-0.517,2.189-1.183,4.937-1.998c0.068-1.08-0.492-1.62-1.682-1.62
		c-1.292,0-2.481,0.54-3.568,1.62v-2.481c1.271-0.786,2.669-1.179,4.194-1.179c2.734,0,4.102,0.982,4.102,2.947v4.415
		c0,0.452,0.167,0.678,0.502,0.678C122.382,279.676,122.765,279.495,123.277,279.132z M118.581,279.171v-2.346
		c-1.019,0.356-1.717,0.677-2.097,0.962c-0.379,0.285-0.569,0.646-0.569,1.085c0,0.281,0.096,0.523,0.287,0.726
		c0.191,0.202,0.424,0.303,0.697,0.303C117.474,279.901,118.034,279.658,118.581,279.171z"/>
	<path d="M131.193,272.354v2.164c-1.162-0.711-2.239-1.066-3.23-1.066c-0.731,0-1.097,0.25-1.097,0.749
		c0,0.13,0.077,0.258,0.231,0.384c0.154,0.126,0.744,0.394,1.769,0.802s1.75,0.879,2.173,1.413s0.636,1.119,0.636,1.755
		c0,1.006-0.342,1.783-1.025,2.33c-0.684,0.548-1.658,0.821-2.922,0.821c-1.299,0-2.454-0.235-3.466-0.708v-2.143
		c1.244,0.547,2.287,0.82,3.127,0.82c0.984,0,1.477-0.239,1.477-0.716c0-0.184-0.091-0.358-0.273-0.521
		c-0.183-0.164-0.792-0.449-1.831-0.855s-1.749-0.852-2.131-1.338s-0.574-1.026-0.574-1.622c0-0.882,0.367-1.601,1.103-2.155
		c0.734-0.554,1.704-0.832,2.907-0.832C129.221,271.637,130.264,271.876,131.193,272.354z"/>
	<path d="M140.155,272.354v2.164c-1.162-0.711-2.239-1.066-3.23-1.066c-0.731,0-1.097,0.25-1.097,0.749
		c0,0.13,0.077,0.258,0.231,0.384c0.154,0.126,0.744,0.394,1.769,0.802s1.75,0.879,2.173,1.413s0.636,1.119,0.636,1.755
		c0,1.006-0.342,1.783-1.025,2.33c-0.684,0.548-1.658,0.821-2.922,0.821c-1.299,0-2.454-0.235-3.466-0.708v-2.143
		c1.244,0.547,2.287,0.82,3.127,0.82c0.984,0,1.477-0.239,1.477-0.716c0-0.184-0.091-0.358-0.273-0.521
		c-0.183-0.164-0.792-0.449-1.831-0.855s-1.749-0.852-2.131-1.338s-0.574-1.026-0.574-1.622c0-0.882,0.367-1.601,1.103-2.155
		c0.734-0.554,1.704-0.832,2.907-0.832C138.183,271.637,139.226,271.876,140.155,272.354z"/>
	<path d="M154.952,272.354v2.164c-1.162-0.711-2.239-1.066-3.23-1.066c-0.731,0-1.097,0.25-1.097,0.749
		c0,0.13,0.077,0.258,0.231,0.384c0.154,0.126,0.744,0.394,1.769,0.802s1.75,0.879,2.173,1.413s0.636,1.119,0.636,1.755
		c0,1.006-0.342,1.783-1.025,2.33c-0.684,0.548-1.658,0.821-2.922,0.821c-1.299,0-2.454-0.235-3.466-0.708v-2.143
		c1.244,0.547,2.287,0.82,3.127,0.82c0.984,0,1.477-0.239,1.477-0.716c0-0.184-0.091-0.358-0.273-0.521
		c-0.183-0.164-0.792-0.449-1.831-0.855s-1.749-0.852-2.131-1.338s-0.574-1.026-0.574-1.622c0-0.882,0.367-1.601,1.103-2.155
		c0.734-0.554,1.704-0.832,2.907-0.832C152.979,271.637,154.022,271.876,154.952,272.354z"/>
	<path d="M160.345,267.197v6.06h0.041c0.848-1.08,1.87-1.62,3.066-1.62c1.032,0,1.881,0.327,2.548,0.98c0.666,0.653,1,1.562,1,2.725
		v6.179h-3.045v-5.534c0-1.41-0.523-2.115-1.569-2.115c-0.69,0-1.371,0.489-2.041,1.468v6.181H157.3v-14.325H160.345z"/>
	<path d="M174.496,271.637c1.518,0,2.805,0.445,3.86,1.334c1.057,0.89,1.584,2.128,1.584,3.715c0,1.595-0.537,2.83-1.61,3.706
		s-2.352,1.314-3.835,1.314c-1.606,0-2.921-0.467-3.942-1.401c-1.022-0.934-1.533-2.147-1.533-3.639
		c0-1.519,0.521-2.737,1.563-3.654S172.93,271.637,174.496,271.637z M174.496,279.901c1.456,0,2.184-1.099,2.184-3.297
		c0-2.102-0.728-3.153-2.184-3.153c-0.697,0-1.243,0.277-1.636,0.832s-0.589,1.349-0.589,2.382
		C172.271,278.823,173.012,279.901,174.496,279.901z"/>
	<path d="M186.975,271.637c1.518,0,2.805,0.445,3.86,1.334c1.057,0.89,1.584,2.128,1.584,3.715c0,1.595-0.537,2.83-1.61,3.706
		s-2.352,1.314-3.835,1.314c-1.606,0-2.921-0.467-3.942-1.401c-1.022-0.934-1.533-2.147-1.533-3.639
		c0-1.519,0.521-2.737,1.563-3.654S185.409,271.637,186.975,271.637z M186.975,279.901c1.456,0,2.184-1.099,2.184-3.297
		c0-2.102-0.728-3.153-2.184-3.153c-0.697,0-1.243,0.277-1.636,0.832s-0.589,1.349-0.589,2.382
		C184.75,278.823,185.491,279.901,186.975,279.901z"/>
	<path d="M201.412,271.842v2.082h-3.527v3.989c0,0.479,0.131,0.856,0.395,1.133c0.263,0.277,0.627,0.416,1.092,0.416
		c0.629,0,1.309-0.188,2.041-0.564v2.205c-0.971,0.402-1.911,0.604-2.82,0.604c-1.189,0-2.112-0.308-2.769-0.923
		s-0.984-1.518-0.984-2.707v-4.153h-1.384v-0.595l4.05-4.532h0.379v3.045H201.412z"/>
	<path d="M212.425,278.517v1.917c-1.162,0.848-2.601,1.271-4.317,1.271c-1.702,0-3.063-0.456-4.081-1.37
		c-1.019-0.914-1.528-2.123-1.528-3.629c0-1.478,0.479-2.692,1.436-3.644s2.177-1.427,3.661-1.427c1.49,0,2.712,0.501,3.666,1.502
		c0.954,1.002,1.4,2.343,1.338,4.025h-6.952c0.062,0.878,0.373,1.554,0.933,2.028c0.561,0.473,1.313,0.71,2.256,0.71
		C209.978,279.901,211.174,279.44,212.425,278.517z M205.708,275.564h4.204c-0.164-1.408-0.865-2.112-2.102-2.112
		C206.56,273.452,205.859,274.156,205.708,275.564z"/>
	<path d="M217.695,271.842v2.769h0.041c0.882-1.982,1.911-2.974,3.086-2.974c0.561,0,1.234,0.294,2.02,0.882l-0.841,2.697
		c-0.752-0.479-1.354-0.718-1.805-0.718c-0.704,0-1.297,0.437-1.779,1.309c-0.481,0.873-0.723,1.381-0.723,1.525v4.189h-3.045v-9.68
		H217.695z"/>
	<path d="M230.636,272.354v2.164c-1.162-0.711-2.239-1.066-3.23-1.066c-0.731,0-1.097,0.25-1.097,0.749
		c0,0.13,0.077,0.258,0.231,0.384c0.154,0.126,0.744,0.394,1.769,0.802s1.75,0.879,2.173,1.413s0.636,1.119,0.636,1.755
		c0,1.006-0.342,1.783-1.025,2.33c-0.684,0.548-1.658,0.821-2.922,0.821c-1.299,0-2.454-0.235-3.466-0.708v-2.143
		c1.244,0.547,2.287,0.82,3.127,0.82c0.984,0,1.477-0.239,1.477-0.716c0-0.184-0.091-0.358-0.273-0.521
		c-0.183-0.164-0.792-0.449-1.831-0.855s-1.749-0.852-2.131-1.338s-0.574-1.026-0.574-1.622c0-0.882,0.367-1.601,1.103-2.155
		c0.734-0.554,1.704-0.832,2.907-0.832C228.664,271.637,229.706,271.876,230.636,272.354z"/>
	<path d="M232.687,279.881c0-0.499,0.18-0.928,0.538-1.287c0.359-0.358,0.788-0.538,1.287-0.538c0.506,0,0.938,0.18,1.297,0.538
		c0.359,0.359,0.539,0.788,0.539,1.287c0,0.506-0.179,0.937-0.539,1.292c-0.358,0.355-0.791,0.533-1.297,0.533
		c-0.499,0-0.928-0.178-1.287-0.533C232.866,280.817,232.687,280.387,232.687,279.881z"/>
	<path d="M238.377,279.881c0-0.499,0.18-0.928,0.538-1.287c0.359-0.358,0.788-0.538,1.287-0.538c0.506,0,0.938,0.18,1.297,0.538
		c0.359,0.359,0.539,0.788,0.539,1.287c0,0.506-0.179,0.937-0.539,1.292c-0.358,0.355-0.791,0.533-1.297,0.533
		c-0.499,0-0.928-0.178-1.287-0.533C238.557,280.817,238.377,280.387,238.377,279.881z"/>
	<path d="M244.068,279.881c0-0.499,0.18-0.928,0.538-1.287c0.359-0.358,0.788-0.538,1.287-0.538c0.506,0,0.938,0.18,1.297,0.538
		c0.359,0.359,0.539,0.788,0.539,1.287c0,0.506-0.179,0.937-0.539,1.292c-0.358,0.355-0.791,0.533-1.297,0.533
		c-0.499,0-0.928-0.178-1.287-0.533C244.248,280.817,244.068,280.387,244.068,279.881z"/>
</g>
<g>
	<path d="M415.274,254.681c0-0.499,0.18-0.928,0.538-1.287c0.359-0.358,0.788-0.538,1.287-0.538c0.506,0,0.938,0.18,1.297,0.538
		c0.359,0.359,0.538,0.788,0.538,1.287c0,0.506-0.179,0.937-0.538,1.292c-0.358,0.355-0.791,0.533-1.297,0.533
		c-0.499,0-0.928-0.178-1.287-0.533C415.454,255.618,415.274,255.187,415.274,254.681z"/>
	<path d="M420.965,254.681c0-0.499,0.18-0.928,0.537-1.287c0.359-0.358,0.789-0.538,1.287-0.538c0.506,0,0.939,0.18,1.297,0.538
		c0.359,0.359,0.539,0.788,0.539,1.287c0,0.506-0.18,0.937-0.539,1.292c-0.357,0.355-0.791,0.533-1.297,0.533
		c-0.498,0-0.928-0.178-1.287-0.533C421.145,255.618,420.965,255.187,420.965,254.681z"/>
	<path d="M426.656,254.681c0-0.499,0.18-0.928,0.538-1.287c0.359-0.358,0.788-0.538,1.287-0.538c0.506,0,0.938,0.18,1.297,0.538
		c0.359,0.359,0.539,0.788,0.539,1.287c0,0.506-0.18,0.937-0.539,1.292c-0.358,0.355-0.791,0.533-1.297,0.533
		c-0.499,0-0.928-0.178-1.287-0.533C426.835,255.618,426.656,255.187,426.656,254.681z"/>
	<path d="M437.596,246.437c1.518,0,2.805,0.445,3.861,1.334s1.584,2.128,1.584,3.715c0,1.595-0.537,2.83-1.609,3.706
		c-1.074,0.876-2.352,1.314-3.836,1.314c-1.605,0-2.92-0.467-3.941-1.401c-1.023-0.934-1.533-2.147-1.533-3.639
		c0-1.519,0.521-2.737,1.563-3.654C434.727,246.896,436.032,246.437,437.596,246.437z M437.596,254.702
		c1.457,0,2.185-1.099,2.185-3.297c0-2.102-0.728-3.153-2.185-3.153c-0.697,0-1.242,0.277-1.635,0.832
		c-0.394,0.555-0.59,1.349-0.59,2.382C435.372,253.624,436.114,254.702,437.596,254.702z"/>
	<path d="M448.127,246.642v1.374c0.896-1.053,1.945-1.579,3.148-1.579c1.004,0,1.844,0.322,2.517,0.965s1.011,1.563,1.011,2.761
		v6.159h-3.046v-5.904c0-1.293-0.503-1.94-1.507-1.94c-0.719,0-1.426,0.533-2.123,1.6v6.245h-3.045v-9.68H448.127z"/>
	<path d="M460.432,241.997v14.325h-3.045v-14.325H460.432z"/>
	<path d="M472.247,246.642l-6.487,14.325h-3.245l2.842-6.227l-3.785-8.098h3.248l2.048,4.986l2.187-4.986H472.247z"/>
	<path d="M487.605,241.997v2.881h-4.583v2.666c1.531-0.103,2.758,0.277,3.681,1.138s1.384,1.952,1.384,3.271
		c0,1.381-0.47,2.485-1.409,3.312c-0.94,0.827-2.2,1.241-3.778,1.241c-1.389,0-2.543-0.256-3.467-0.769v-2.604
		c1.102,0.615,2.116,0.923,3.046,0.923c0.656,0,1.198-0.19,1.625-0.569c0.427-0.38,0.642-0.856,0.642-1.431
		c0-0.636-0.26-1.138-0.779-1.507s-1.241-0.554-2.164-0.554c-0.506,0-1.049,0.058-1.631,0.174v-8.172H487.605z"/>
	<path d="M500.279,253.399v2.922h-9.464v-0.4c0.867-1.06,1.86-2.401,2.979-4.025c1.117-1.623,1.823-2.777,2.117-3.46
		s0.441-1.347,0.441-1.989c0-0.561-0.188-1.042-0.56-1.446s-0.821-0.605-1.349-0.605c-1.045,0-2.193,0.595-3.445,1.784v-3.004
		c1.402-0.909,2.738-1.364,4.01-1.364c1.408,0,2.518,0.362,3.327,1.087c0.811,0.725,1.216,1.719,1.216,2.984
		c0,1.729-1.296,4.235-3.887,7.516H500.279z"/>
	<path d="M511.446,241.997v6.06h0.041c0.848-1.08,1.869-1.62,3.065-1.62c1.032,0,1.882,0.327,2.548,0.98
		c0.666,0.653,1,1.562,1,2.725v6.179h-3.045v-5.534c0-1.41-0.523-2.115-1.569-2.115c-0.69,0-1.37,0.489-2.04,1.468v6.181H508.4
		v-14.325H511.446z"/>
	<path d="M530.487,253.933v1.692c-1.012,0.588-1.962,0.882-2.851,0.882c-0.957,0-1.524-0.362-1.702-1.087
		c-1.06,0.725-2.123,1.087-3.189,1.087c-0.752,0-1.391-0.238-1.917-0.714c-0.526-0.476-0.79-1.029-0.79-1.659
		c0-0.842,0.271-1.521,0.816-2.039c0.543-0.517,2.188-1.183,4.937-1.998c0.068-1.08-0.492-1.62-1.682-1.62
		c-1.292,0-2.481,0.54-3.568,1.62v-2.481c1.271-0.786,2.669-1.179,4.194-1.179c2.734,0,4.102,0.982,4.102,2.947v4.415
		c0,0.452,0.167,0.678,0.502,0.678C529.591,254.476,529.974,254.295,530.487,253.933z M525.791,253.971v-2.346
		c-1.019,0.356-1.718,0.677-2.097,0.962s-0.569,0.646-0.569,1.085c0,0.281,0.096,0.523,0.287,0.726
		c0.191,0.202,0.424,0.303,0.697,0.303C524.683,254.702,525.244,254.458,525.791,253.971z"/>
	<path d="M541.489,241.997v14.325h-3.045v-0.779c-0.779,0.643-1.675,0.964-2.687,0.964c-1.292,0-2.37-0.479-3.235-1.437
		s-1.297-2.159-1.297-3.603c0-1.478,0.439-2.686,1.317-3.623s2.005-1.406,3.379-1.406c0.854,0,1.695,0.205,2.522,0.615v-5.055
		H541.489z M538.444,253.666v-4.625c-0.554-0.376-1.121-0.564-1.702-0.564c-0.766,0-1.362,0.267-1.789,0.8
		c-0.428,0.533-0.642,1.282-0.642,2.246c0,0.889,0.213,1.602,0.637,2.138c0.424,0.537,0.987,0.805,1.691,0.805
		C537.261,254.466,537.863,254.199,538.444,253.666z"/>
	<path d="M415.884,271.842v1.241c1.032-0.964,2.155-1.446,3.366-1.446c1.662,0,2.824,0.687,3.488,2.061
		c1.17-1.374,2.441-2.061,3.816-2.061c1.115,0,2.025,0.339,2.73,1.016c0.704,0.678,1.057,1.561,1.057,2.648v6.22h-3.045v-5.677
		c0-0.685-0.158-1.217-0.473-1.597c-0.316-0.38-0.754-0.57-1.316-0.57c-0.891,0-1.692,0.548-2.405,1.643v6.201h-3.035v-5.739
		c0-0.678-0.169-1.198-0.508-1.561c-0.338-0.363-0.788-0.544-1.349-0.544c-0.799,0-1.575,0.448-2.327,1.345v6.499h-3.046v-9.679
		H415.884z"/>
	<path d="M442.339,278.518v1.917c-1.162,0.848-2.601,1.272-4.317,1.272c-1.701,0-3.063-0.457-4.08-1.371
		c-1.02-0.914-1.528-2.123-1.528-3.629c0-1.478,0.479-2.692,1.436-3.644s2.177-1.427,3.661-1.427c1.49,0,2.712,0.501,3.665,1.502
		c0.954,1.002,1.399,2.343,1.339,4.025h-6.953c0.063,0.878,0.373,1.554,0.934,2.028c0.561,0.473,1.313,0.71,2.256,0.71
		C439.892,279.902,441.088,279.44,442.339,278.518z M435.624,275.564h4.203c-0.164-1.408-0.864-2.112-2.102-2.112
		C436.474,273.452,435.774,274.156,435.624,275.564z"/>
	<path d="M447.528,271.842v1.374c0.896-1.053,1.945-1.579,3.148-1.579c1.004,0,1.844,0.322,2.517,0.965s1.011,1.563,1.011,2.761
		v6.158h-3.046v-5.903c0-1.293-0.503-1.94-1.507-1.94c-0.719,0-1.426,0.533-2.123,1.6v6.244h-3.045v-9.679H447.528z"/>
	<path d="M463.678,271.842v2.082h-3.527v3.989c0,0.479,0.131,0.856,0.395,1.133c0.263,0.277,0.627,0.416,1.092,0.416
		c0.629,0,1.309-0.188,2.041-0.564v2.205c-0.971,0.403-1.911,0.605-2.82,0.605c-1.189,0-2.112-0.309-2.769-0.923
		c-0.656-0.615-0.984-1.518-0.984-2.707v-4.153h-1.384v-0.595l4.05-4.532h0.38v3.045H463.678z"/>
	<path d="M475.131,279.133v1.692c-1.012,0.587-1.962,0.882-2.851,0.882c-0.957,0-1.524-0.363-1.702-1.087
		c-1.06,0.724-2.123,1.087-3.189,1.087c-0.752,0-1.391-0.238-1.917-0.714c-0.526-0.476-0.79-1.029-0.79-1.659
		c0-0.842,0.271-1.521,0.816-2.039c0.543-0.517,2.188-1.183,4.937-1.998c0.068-1.08-0.492-1.62-1.682-1.62
		c-1.292,0-2.481,0.54-3.568,1.62v-2.481c1.271-0.786,2.669-1.179,4.194-1.179c2.734,0,4.102,0.982,4.102,2.947v4.415
		c0,0.452,0.167,0.678,0.502,0.678C474.236,279.676,474.619,279.495,475.131,279.133z M470.435,279.171v-2.346
		c-1.019,0.356-1.718,0.677-2.097,0.962s-0.569,0.646-0.569,1.085c0,0.281,0.096,0.523,0.287,0.726
		c0.191,0.202,0.424,0.303,0.697,0.303C469.328,279.902,469.888,279.659,470.435,279.171z"/>
	<path d="M479.5,267.197v14.324h-3.046v-14.324H479.5z"/>
	<path d="M487.815,268.694c0-0.465,0.164-0.861,0.492-1.189s0.722-0.492,1.18-0.492c0.465,0,0.861,0.164,1.189,0.492
		s0.492,0.725,0.492,1.189c0,0.458-0.164,0.853-0.492,1.184c-0.328,0.332-0.725,0.498-1.189,0.498c-0.458,0-0.852-0.166-1.18-0.498
		C487.979,269.547,487.815,269.152,487.815,268.694z M491.025,271.842v9.679h-3.046v-9.679H491.025z"/>
	<path d="M496.715,267.197v14.324h-3.045v-14.324H496.715z"/>
	<path d="M502.407,267.197v14.324h-3.045v-14.324H502.407z"/>
	<path d="M508.036,271.842v1.374c0.896-1.053,1.945-1.579,3.148-1.579c1.005,0,1.844,0.322,2.518,0.965
		c0.673,0.643,1.01,1.563,1.01,2.761v6.158h-3.045v-5.903c0-1.293-0.503-1.94-1.508-1.94c-0.718,0-1.426,0.533-2.123,1.6v6.244
		h-3.045v-9.679H508.036z"/>
	<path d="M526.678,278.518v1.917c-1.162,0.848-2.602,1.272-4.317,1.272c-1.702,0-3.063-0.457-4.081-1.371s-1.527-2.123-1.527-3.629
		c0-1.478,0.479-2.692,1.436-3.644s2.177-1.427,3.66-1.427c1.49,0,2.713,0.501,3.666,1.502c0.953,1.002,1.399,2.343,1.338,4.025
		H519.9c0.062,0.878,0.372,1.554,0.933,2.028c0.561,0.473,1.313,0.71,2.256,0.71C524.231,279.902,525.426,279.44,526.678,278.518z
		 M519.961,275.564h4.204c-0.164-1.408-0.864-2.112-2.103-2.112C520.813,273.452,520.112,274.156,519.961,275.564z"/>
	<path d="M535.475,272.355v2.164c-1.162-0.711-2.238-1.066-3.229-1.066c-0.731,0-1.097,0.25-1.097,0.749
		c0,0.13,0.076,0.258,0.23,0.384s0.744,0.394,1.77,0.802c1.024,0.408,1.749,0.879,2.173,1.413s0.636,1.119,0.636,1.755
		c0,1.006-0.342,1.783-1.025,2.33c-0.684,0.548-1.658,0.822-2.922,0.822c-1.299,0-2.455-0.236-3.467-0.708v-2.143
		c1.244,0.547,2.287,0.82,3.128,0.82c0.984,0,1.477-0.239,1.477-0.716c0-0.184-0.091-0.358-0.272-0.521
		c-0.184-0.164-0.793-0.449-1.831-0.855s-1.749-0.852-2.132-1.338s-0.574-1.026-0.574-1.622c0-0.882,0.367-1.601,1.104-2.155
		c0.734-0.554,1.703-0.832,2.906-0.832C533.503,271.637,534.545,271.876,535.475,272.355z"/>
	<path d="M544.438,272.355v2.164c-1.162-0.711-2.239-1.066-3.23-1.066c-0.731,0-1.098,0.25-1.098,0.749
		c0,0.13,0.078,0.258,0.232,0.384c0.153,0.126,0.743,0.394,1.768,0.802c1.025,0.408,1.75,0.879,2.174,1.413s0.636,1.119,0.636,1.755
		c0,1.006-0.342,1.783-1.025,2.33c-0.684,0.548-1.657,0.822-2.923,0.822c-1.299,0-2.453-0.236-3.465-0.708v-2.143
		c1.244,0.547,2.286,0.82,3.127,0.82c0.984,0,1.477-0.239,1.477-0.716c0-0.184-0.092-0.358-0.273-0.521s-0.792-0.449-1.83-0.855
		s-1.748-0.852-2.131-1.338s-0.574-1.026-0.574-1.622c0-0.882,0.367-1.601,1.102-2.155s1.704-0.832,2.907-0.832
		C542.465,271.637,543.508,271.876,544.438,272.355z"/>
</g>
</svg>
