<?xml version="1.0" encoding="utf-8"?>
<!-- Generator: Adobe Illustrator 16.0.0, SVG Export Plug-In . SVG Version: 6.00 Build 0)  -->
<!DOCTYPE svg PUBLIC "-//W3C//DTD SVG 1.1//EN" "http://www.w3.org/Graphics/SVG/1.1/DTD/svg11.dtd">
<svg version="1.1" id="Layer_1" xmlns="http://www.w3.org/2000/svg" xmlns:xlink="http://www.w3.org/1999/xlink" x="0px" y="0px"
	 width="740px" height="448px" viewBox="0 0 740 448" enable-background="new 0 0 740 448" xml:space="preserve">
<g>
	<path fill="#0071BC" stroke="#000000" stroke-width="4" stroke-miterlimit="10" d="M294.125,350.043
		c14.817,4.195,30.196-4.299,34.392-19.115s-4.433-30.17-19.25-34.366c-73.355-19.758-53.529-12.063-84.212-21.865
		c-27.973-8.937-71.063-82.573-71.063-82.573l-34.438,10.059l0.25,32.568c0,0,27.057,59.424,73.99,81.719
		C225.609,331.582,294.125,350.043,294.125,350.043z"/>
	<path fill="#F5E0CD" stroke="#000000" stroke-width="4" stroke-miterlimit="10" d="M281.835,346.527l10.377-54.557
		c0,0,43.392,1.552,37.18,34.515C321.917,366.145,281.835,346.527,281.835,346.527z"/>
</g>
<path fill="#F15A24" stroke="#000000" stroke-width="4" stroke-miterlimit="10" d="M718,445H591c0,0-7.015-168.667,6-222.818
	c3.839-15.971,40.992-36.877,57.5-36.877s63.5,16.877,63.5,16.877V445z"/>
<g>
	<path fill="#F15A24" stroke="#000000" stroke-width="4" stroke-miterlimit="10" d="M543.429,350.043
		c-14.817,4.195-30.196-4.299-34.392-19.115s4.433-30.17,19.25-34.366c73.355-19.758,53.529-12.063,84.212-21.865
		c27.973-8.937,71.063-82.574,71.063-82.574L718,202.182l-0.25,32.568c0,0-27.057,59.424-73.99,81.719
		C611.944,331.582,543.429,350.043,543.429,350.043z"/>
	<path fill="#CF9E76" stroke="#000000" stroke-width="4" stroke-miterlimit="10" d="M555.719,346.527l-10.377-54.557
		c0,0-43.392,1.552-37.18,34.515C515.637,366.145,555.719,346.527,555.719,346.527z"/>
</g>
<g>
	<circle fill="#CF9E76" stroke="#000000" stroke-width="4" stroke-miterlimit="10" cx="653.772" cy="120.49" r="77.289"/>
	<path stroke="#000000" stroke-width="4" stroke-miterlimit="10" d="M606.812,148h35.22c0,0-6.844,23.256-29.35,21.279
		C610.236,158.699,606.812,148,606.812,148z"/>
	<ellipse stroke="#000000" stroke-width="4" stroke-miterlimit="10" cx="613.415" cy="107.773" rx="6.604" ry="12.717"/>
	<path fill="#ED1C24" stroke="#000000" stroke-width="4" stroke-miterlimit="10" d="M576.973,79.892c0,0-9.784-64.571,79.734-50.875
		c77.778-22.991,74.82,51.49,74.82,51.49l-210.321,5.743L576.973,79.892z"/>
</g>
<path fill="#0071BC" stroke="#000000" stroke-width="4" stroke-miterlimit="10" d="M67,448h126c0,0-0.667-195-9.333-227
	c-4.261-15.733-37.244-34.85-53.667-34.85c-16.424,0-63,16.789-63,16.789V448z"/>
<circle fill="#F5E0CD" stroke="#000000" stroke-width="4" stroke-miterlimit="10" cx="130.409" cy="121.671" r="76.889"/>
<path stroke="#000000" stroke-width="4" stroke-miterlimit="10" d="M177.127,150h-35.038c0,0,6.809,23.137,29.198,21.169
	C173.719,160.645,177.127,150,177.127,150z"/>
<path stroke="#000000" stroke-width="3" stroke-miterlimit="10" d="M128.016,35.048c0,0,74.613,0.974,84.149,57.91
	c-29.56-22.873-21.932-13.626-21.932-13.626l-6.676,9.247l-78.665,4.379c0,0-9.536,48.404-14.304,57.294
	c-4.769,8.889-16.537,22.832-16.537,22.832s-43.78-26.815-18.656-98.118C70.242,32.832,129.294,35.319,128.016,35.048z"/>
<path stroke="#000000" stroke-width="3" stroke-miterlimit="10" d="M69.094,50.622c0,0,10.704-9.733,6.325-15.573
	c-4.38-5.84-54.505-3.892-58.396,47.691C13.13,134.323,69.094,50.622,69.094,50.622z"/>
<ellipse stroke="#000000" stroke-width="4" stroke-miterlimit="10" cx="164.584" cy="113.096" rx="6.327" ry="10.888"/>
<g>
	<path fill="#0071BC" stroke="#000000" stroke-width="4" stroke-miterlimit="10" d="M28.011,427.05
		c4.097,14.844,19.335,23.588,34.179,19.491c14.844-4.098,23.497-19.437,19.4-34.282c-21.149-72.966-17.446-52.023-24.978-83.341
		C49.745,300.366,67,276.196,67,276.196v-57.257v-14c0,0-67.594,67.223-62.316,118.915C8.261,358.894,28.011,427.05,28.011,427.05z"
		/>
	<path fill="#F5E0CD" stroke="#000000" stroke-width="4" stroke-miterlimit="10" d="M24.642,414.718l52.028-19.422
		c0,0,21.177,37.905-10.228,49.688C28.657,459.162,24.642,414.718,24.642,414.718z"/>
</g>
<path fill="#FFFFFF" stroke="#000000" stroke-width="6" stroke-miterlimit="10" d="M426.001,66.331
	c0,31.296-29.848,56.667-66.667,56.667c-18.294,0-34.868-6.264-46.914-16.405c-2.196-1.849-38.42,6.503-38.42,6.503
	s29.207-16.09,27.855-18.041c-5.838-8.423-9.187-18.241-9.187-28.725c0-31.296,29.848-56.667,66.666-56.667
	C396.153,9.665,426.001,35.035,426.001,66.331z"/>
<path fill="#FFFFFF" stroke="#000000" stroke-width="5" stroke-miterlimit="10" d="M503.001,234.331
	c0,31.296-29.848,56.667-66.667,56.667c-36.818,0-66.666-25.371-66.666-56.667s29.848-56.667,66.666-56.667
	c15.396,0,29.572,4.436,40.858,11.886c3.69,2.436,44.475-9.217,44.475-9.217s-28.426,24.161-26.13,27.918
	C500.307,216.059,503.001,224.927,503.001,234.331z"/>
</svg>
